<?xml version="1.0" standalone="no"?>
<!DOCTYPE svg PUBLIC "-//W3C//DTD SVG 1.1//EN" "http://www.w3.org/Graphics/SVG/1.1/DTD/svg11.dtd" >
<!--
2013-1-9: Created.
-->
<svg>
<metadata>
Created by FontForge 20120731 at Wed Oct  1 16:57:07 2014
 By Aleksandr,,,
Copyright 2013-2014 Aleksandr Andreev and Nikita Simmons.

This font is part of the Ponomar Project Slavonic Computing Initiative. See http://www.ponomar.net/ for more information.

Original glyph design by Nikita Simmons. Reencoding for Unicode, OpenType and Graphite feature creation and some tweaking by Aleksandr Andreev.

This font is BETA-STAGE SOFTWARE and is intended primarily for software evaluation purposes.
</metadata>
<defs>
<font id="FedorovskUnicode" horiz-adv-x="0" >
  <font-face 
    font-family="Fedorovsk Unicode"
    font-weight="500"
    font-stretch="normal"
    units-per-em="1000"
    panose-1="2 0 6 3 0 0 0 0 0 0"
    ascent="800"
    descent="-200"
    x-height="388"
    cap-height="647"
    bbox="-772 -517 1196 1115"
    underline-thickness="50"
    underline-position="-100"
    unicode-range="U+0001-1F545"
  />
    <missing-glyph />
    <glyph glyph-name="uni0020" unicode=" " horiz-adv-x="500" 
 />
    <glyph glyph-name="uni0021" unicode="!" horiz-adv-x="256" 
d="M53 73c0 42 31 71 74 71c44 0 71 -25 71 -64c0 -42 -31 -80 -76 -80h-4c-34 3 -57 25 -64 54c-1 8 -2 14 -1 19zM212 266c6 0 14 -4 14 -11c0 -22 -73 -64 -88 -72c-11 -5 -18 -8 -23 -8h-1c-28 0 -32 27 -32 57v32c2 89 13 184 13 268c0 14 -11 22 -18 30
c-4 5 -9 8 -15 10c-12 2 -19 13 -19 25c0 13 3 16 17 21c48 16 115 17 162 34c3 1 7 2 9 2c14 0 21 -12 25 -24c1 -2 2 -4 2 -6c0 -4 -3 -8 -5 -12c-3 -3 -10 -8 -21 -13s-21 -12 -28 -19c-11 -13 -16 -26 -20 -42c-17 -83 -32 -183 -35 -280c-3 -9 6 -22 17 -18
c12 5 29 26 46 26z" />
    <glyph glyph-name="uni2E2F" unicode="&#x2e2f;" horiz-adv-x="191" 
d="M153 775c13 0 27 -7 27 -16c0 -20 -46 -48 -55 -56c-4 -4 -3 -12 1 -14c16 -18 29 -36 44 -52c5 -9 10 -11 10 -16c0 -2 -2 -8 -3 -10c-28 -28 -51 -50 -81 -70c-9 -6 -23 -16 -33 -16c-8 0 -13 8 -13 18c0 14 14 18 24 28c7 4 18 12 23 16c2 4 2 8 0 10c0 2 -3 4 -9 8
c-14 10 -33 22 -47 32c-8 4 -21 12 -21 24c0 1 -1 2 -1 4c0 1 0 2 1 2c1 2 7 8 18 20c21 22 50 48 74 68c14 10 23 16 30 18c4 2 8 2 11 2z" />
    <glyph glyph-name="uni033E" unicode="&#x33e;" 
d="M-46 801c13 0 27 -7 27 -17c0 -20 -46 -47 -55 -56c-4 -4 -3 -11 1 -13c16 -19 29 -36 43 -53c7 -8 11 -11 11 -15c0 -3 -2 -8 -3 -10c-28 -28 -51 -50 -81 -71c-9 -6 -23 -15 -33 -15c-8 0 -13 7 -13 17c0 14 14 19 24 28c7 5 18 12 23 17c2 4 2 7 0 10c0 1 -3 4 -10 8
c-13 9 -32 22 -46 31c-8 5 -23 13 -23 24c0 2 -2 4 0 7c1 2 9 8 19 19c22 22 51 48 76 68c12 10 22 16 29 19c4 1 8 2 11 2z" />
    <glyph glyph-name="uni0028" unicode="(" horiz-adv-x="500" 
d="M301 328c0 -232 30 -393 132 -513l-23 -34c-87 63 -155 139 -204 230c-51 94 -77 193 -77 298v38c0 242 128 415 281 529l23 -34c-102 -120 -132 -282 -132 -514z" />
    <glyph glyph-name="uni0029" unicode=")" horiz-adv-x="476" 
d="M153 876c150 -114 280 -290 280 -529v-38c0 -239 -131 -419 -280 -528l-24 34c100 116 131 285 131 513c0 234 -29 394 -131 514z" />
    <glyph glyph-name="uni002A" unicode="*" horiz-adv-x="283" 
d="M230 692c6 0 10 -3 10 -8c0 -11 -19 -24 -26 -29c-9 -7 -33 -22 -33 -34c0 -15 25 -30 35 -37c9 -7 16 -13 22 -18c4 -4 6 -8 6 -11c0 -5 -6 -9 -13 -9c-2 0 -4 -1 -7 0c-16 4 -37 15 -52 20c-6 2 -10 3 -13 3c-6 0 -8 -4 -11 -15c-5 -14 -10 -34 -15 -47
c-3 -7 -6 -10 -10 -10c-22 0 -23 63 -34 74c-1 1 -2 1 -4 1c-9 0 -31 -13 -37 -15c-7 -3 -23 -11 -34 -11c-5 0 -11 2 -11 7c0 10 21 25 27 30c10 9 33 23 33 36c0 16 -23 31 -35 39c-7 6 -28 20 -28 30v3c2 3 7 5 11 5c11 0 27 -8 34 -11c8 -3 26 -13 40 -13
c20 0 20 30 24 48c3 12 7 36 18 36c22 0 15 -74 29 -82c3 -2 6 -2 9 -2c12 0 28 7 35 10c6 3 21 10 30 10zM88 623c0 -19 14 -30 33 -30c17 0 36 10 36 28s-16 38 -36 38c-18 0 -33 -17 -33 -36z" />
    <glyph glyph-name="uni002B" unicode="+" horiz-adv-x="406" 
d="M218 24c0 -8 -9 -11 -20 -11c-12 0 -25 4 -28 11c-2 4 -3 9 -3 12c0 45 5 96 5 146c-12 0 -24 -1 -36 -1c-24 -1 -44 -2 -63 -2c-18 0 -35 1 -54 3c-7 1 -9 6 -9 12c0 10 5 24 8 30c2 5 7 7 14 8h18c38 0 84 -2 122 -2c0 11 -1 19 -1 30c-1 24 -2 44 -2 63
c0 18 1 35 3 54c1 7 6 9 12 9c10 0 24 -5 30 -8c5 -2 7 -7 8 -14v-18c0 -36 -2 -81 -2 -118h36c25 0 53 1 78 1c12 0 22 0 31 -1h7c8 0 11 -9 11 -20c0 -12 -4 -25 -11 -28c-4 -2 -9 -3 -12 -3c-44 0 -94 5 -142 5v-36c0 -27 1 -56 1 -82c0 -13 0 -24 -1 -33v-7z" />
    <glyph glyph-name="uni002C" unicode="," horiz-adv-x="302" 
d="M36 -4c-6 0 -9 5 -9 12c0 20 24 38 38 48c32 23 67 39 115 46c7 2 14 2 20 2c43 0 62 -24 62 -59c0 -16 -4 -34 -12 -54c-13 -36 -53 -72 -84 -95c-28 -21 -69 -50 -107 -54h-2c-14 0 -20 8 -20 16c0 7 4 15 11 20c27 19 56 45 76 73c7 10 17 32 17 50c0 12 -4 22 -15 27
c-3 1 -8 2 -12 2c-7 0 -14 -2 -19 -6c-11 -8 -37 -26 -51 -28h-8z" />
    <glyph glyph-name="uni002D" unicode="-" horiz-adv-x="394" 
d="M358 242c9 0 12 -9 12 -20c0 -12 -4 -25 -10 -28c-6 -2 -10 -3 -13 -3c-20 0 -46 3 -73 3c-29 1 -62 2 -94 2c-16 0 -32 -1 -47 -1c-24 -1 -44 -2 -63 -2c-18 0 -35 1 -54 3c-7 1 -9 6 -9 12c0 10 5 24 8 30c2 5 7 7 14 8h49c41 0 89 -3 127 -3c11 -1 23 -1 35 -1
c26 0 54 1 79 1c13 0 24 0 33 -1h6z" />
    <glyph glyph-name="uni002E" unicode="." horiz-adv-x="238" 
d="M190 115c6 -10 9 -21 9 -32c0 -23 -11 -46 -22 -58c-12 -13 -30 -25 -55 -25h-4c-34 3 -57 25 -64 54c-1 6 -1 11 -1 15c0 32 16 55 38 67c9 6 22 8 36 8c16 0 33 -4 43 -10c9 -5 16 -12 20 -19z" />
    <glyph glyph-name="uni002F" unicode="/" horiz-adv-x="390" 
d="M300 774h60l-230 -774h-60z" />
    <glyph glyph-name="uni0030" unicode="0" horiz-adv-x="237" 
d="M92 375c13 12 29 20 42 20c19 0 35 -11 44 -32c13 -29 19 -74 19 -117c0 -76 -21 -127 -51 -178c-12 -20 -25 -37 -39 -51c-12 -12 -24 -17 -35 -17c-15 0 -29 10 -38 28c-15 32 -24 78 -24 124c0 72 16 123 44 174c10 20 23 36 38 49zM97 236c-14 0 -22 -15 -22 -33
c0 -21 7 -34 18 -47c5 -5 11 -8 16 -8c12 0 23 13 25 27v10c0 21 -6 33 -20 44c-5 5 -11 7 -17 7z" />
    <glyph glyph-name="uni0031" unicode="1" horiz-adv-x="332" 
d="M156 316c-22 -10 -93 -33 -125 -33c-12 0 -18 17 -18 50c87 15 164 38 233 71c6 3 15 5 28 5c11 0 17 -11 17 -32c0 -3 -2 -33 -5 -88s-5 -100 -5 -135c0 -17 0 -41 1 -70v-44c0 -19 -5 -29 -16 -30c-56 -7 -88 -10 -96 -10c-15 0 -22 11 -22 32c0 31 8 251 8 284z" />
    <glyph glyph-name="uni0032" unicode="2" horiz-adv-x="598" 
d="M330 415c139 0 207 -51 207 -187c0 -37 -17 -72 -51 -103c-53 -49 -155 -107 -308 -176c35 0 76 -12 123 -36c19 -10 56 -32 110 -67c38 -24 63 -37 76 -37c21 0 39 19 54 57l29 -25c-25 -57 -99 -133 -176 -133c-22 0 -52 14 -90 42l-96 78c-36 28 -62 42 -78 42
c-33 0 -61 -8 -84 -24l-14 26c31 39 80 79 148 121c81 49 131 82 150 100c45 41 68 90 68 146c0 67 -39 134 -101 134c-82 0 -127 -24 -127 -100c0 -16 2 -36 6 -60l-111 -32l-15 12c0 173 96 222 280 222z" />
    <glyph glyph-name="uni0033" unicode="3" horiz-adv-x="616" 
d="M251 408c31 0 174 -2 203 -2c53 0 87 1 102 2l6 -12l-198 -224v-10c9 1 18 2 26 2c41 0 77 -15 108 -45c33 -32 49 -71 49 -117c0 -35 -27 -76 -81 -124c-42 -37 -82 -55 -120 -55c-30 0 -68 12 -116 35c-46 24 -77 36 -90 36c-34 0 -68 -16 -102 -49l-18 27h-1
c77 70 127 105 151 105c26 0 66 -12 121 -37c55 -24 88 -36 101 -36c10 0 15 6 15 17c0 60 -13 110 -39 150c-23 35 -47 52 -73 52c-19 0 -37 -2 -52 -7l-22 30c94 28 150 84 169 168h-112c-84 0 -104 -27 -108 -110l-25 8c-2 16 -22 85 -22 105c0 61 43 91 128 91z" />
    <glyph glyph-name="uni0034" unicode="4" horiz-adv-x="647" 
d="M634 274c-7 -38 -21 -68 -44 -91l-123 7v-154c0 -15 -5 -24 -15 -29c-57 -5 -92 -8 -105 -8c-19 0 -29 10 -29 31c0 0 2 20 6 67c4 46 6 79 6 98c-124 5 -199 8 -224 8c-29 0 -54 -1 -75 -3l-1 27c105 109 167 174 184 194c55 63 96 124 124 182l136 36l12 -14
c-45 -63 -105 -131 -180 -206c-51 -51 -103 -103 -156 -154l6 -6h174v158c43 9 79 17 110 26c23 5 36 8 40 8c5 0 7 -7 7 -22c0 -3 0 -7 -1 -14c-10 -36 -18 -88 -23 -155c71 6 127 13 167 20z" />
    <glyph glyph-name="uni0035" unicode="5" horiz-adv-x="621" 
d="M122 168c0 27 8 128 8 155c0 39 -5 70 -16 92l11 12h95c47 0 100 -5 158 -17c60 -10 94 -16 105 -16c21 0 39 19 54 57l29 -25c-25 -57 -99 -133 -176 -133c-27 0 -61 9 -102 26s-71 26 -90 26l-12 -142c77 17 140 25 188 25c35 0 61 -5 76 -14c49 -32 97 -105 97 -182
c0 -35 -27 -76 -81 -124c-42 -37 -82 -55 -120 -55c-29 0 -67 12 -115 35c-48 24 -78 36 -91 36c-34 0 -68 -15 -102 -48l-18 26h-1c77 70 127 105 151 105c26 0 66 -12 121 -37c55 -24 88 -36 101 -36c10 0 15 6 15 17c0 61 -13 111 -39 151c-23 34 -47 51 -73 51
c-30 0 -129 -31 -147 -40l-23 9c-2 13 -3 29 -3 46z" />
    <glyph glyph-name="uni0036" unicode="6" horiz-adv-x="552" 
d="M178 177c0 -66 39 -134 101 -134c85 0 127 36 127 107c0 84 -46 129 -138 134l-11 20c51 58 90 87 115 87c35 0 68 -19 101 -59c33 -38 49 -79 49 -120c0 -147 -120 -212 -276 -212c-139 0 -208 66 -208 199c0 36 17 73 50 111c49 57 137 126 265 207l144 91l14 -43
c-114 -66 -192 -120 -235 -162c-65 -65 -98 -140 -98 -226z" />
    <glyph glyph-name="uni0037" unicode="7" horiz-adv-x="558" 
d="M110 326c0 60 53 89 118 89h315l6 -12c-80 -73 -156 -155 -227 -245c-18 -21 -35 -55 -52 -100c-27 -69 -40 -139 -40 -211h-150c-17 0 -25 7 -25 17c0 21 16 51 47 93l275 364h-112c-81 0 -106 -55 -111 -139l-22 -6c1 6 0 12 0 19c0 16 -2 39 -10 69
c-8 29 -12 50 -12 62z" />
    <glyph glyph-name="uni0038" unicode="8" horiz-adv-x="618" 
d="M313 583c94 0 221 -46 221 -130c0 -26 -8 -49 -23 -68s-42 -39 -80 -60c51 -19 86 -38 107 -58c23 -22 34 -51 34 -88c0 -13 -11 -35 -34 -66c-45 -60 -125 -130 -214 -130c-60 0 -119 20 -178 61c-61 43 -92 88 -92 137c0 52 43 96 129 132c-69 33 -103 71 -103 112
c0 39 25 75 74 108s102 50 159 50zM262 537c-34 0 -73 -28 -73 -61c0 -28 15 -51 44 -69c19 -13 64 -31 134 -56c31 15 47 38 47 70c0 72 -77 116 -152 116zM401 59c34 0 60 41 60 76c0 24 -28 55 -84 92c-59 39 -112 58 -159 58c-27 0 -52 -36 -52 -63
c0 -33 21 -67 64 -102c49 -41 106 -61 171 -61z" />
    <glyph glyph-name="uni0039" unicode="9" horiz-adv-x="572" 
d="M47 192c0 149 118 211 276 211c138 0 207 -66 207 -198c0 -41 -15 -80 -45 -119c-48 -62 -136 -130 -265 -205l-148 -85l-14 43c114 65 192 119 235 162c65 65 98 140 98 226c0 65 -40 134 -101 134c-85 0 -128 -36 -128 -108c0 -68 46 -112 139 -133l11 -20
c-45 -57 -83 -85 -115 -85c-37 0 -71 19 -103 57c-31 38 -47 78 -47 120z" />
    <glyph glyph-name="uni003A" unicode=":" horiz-adv-x="238" 
d="M91 376c9 6 22 8 36 8c16 0 33 -4 43 -10c19 -11 28 -32 28 -54c0 -20 -7 -40 -21 -55c-12 -13 -30 -25 -55 -25h-4c-34 3 -57 25 -64 54c-1 6 -1 11 -1 15c0 32 16 55 38 67zM91 136c9 6 22 8 36 8c16 0 33 -4 43 -10c19 -11 28 -32 28 -54c0 -20 -7 -40 -21 -55
c-12 -13 -30 -25 -55 -25h-4c-34 3 -57 25 -64 54c-1 6 -1 11 -1 15c0 32 16 55 38 67z" />
    <glyph glyph-name="uni003B" unicode=";" horiz-adv-x="302" 
d="M111 370c9 6 22 8 36 8c16 0 33 -4 43 -10c19 -11 28 -32 28 -54c0 -20 -7 -40 -21 -55c-12 -13 -30 -25 -55 -25h-4c-34 3 -57 25 -64 54c-1 8 -2 14 -1 19c0 30 17 52 38 63zM36 12c-6 0 -9 5 -9 12c0 20 24 38 38 48c32 23 67 39 115 46c7 2 14 2 20 2
c43 0 62 -24 62 -59c0 -16 -4 -34 -12 -54c-13 -36 -53 -72 -84 -95c-28 -21 -69 -50 -107 -54h-2c-14 0 -20 8 -20 16c0 7 4 15 11 20c27 19 56 45 76 73c7 10 17 32 17 50c0 12 -4 22 -15 27c-3 1 -8 2 -12 2c-7 0 -14 -2 -19 -6c-11 -8 -37 -26 -51 -28h-8z" />
    <glyph glyph-name="uni003C" unicode="&#x3c;" horiz-adv-x="690" 
d="M45 258l570 234l30 -75l-516 -214l516 -214l-30 -75l-570 234v110z" />
    <glyph glyph-name="uni003D" unicode="=" horiz-adv-x="394" 
d="M358 150c9 0 12 -9 12 -20c0 -12 -4 -25 -10 -28c-6 -2 -10 -3 -13 -3c-20 0 -46 3 -73 3c-29 1 -62 2 -94 2c-16 0 -32 -1 -47 -1c-24 -1 -44 -2 -63 -2c-18 0 -35 1 -54 3c-7 1 -9 6 -9 12c0 10 5 24 8 30c2 5 7 7 14 8h49c41 0 89 -3 127 -3c11 -1 23 -1 35 -1
c26 0 54 1 79 1c13 0 24 0 33 -1h6zM358 280c9 0 12 -9 12 -20c0 -12 -4 -25 -10 -28c-6 -2 -10 -3 -13 -3c-20 0 -46 3 -73 3c-29 1 -62 2 -94 2c-16 0 -32 -1 -47 -1c-24 -1 -44 -2 -63 -2c-18 0 -35 1 -54 3c-7 1 -9 6 -9 12c0 10 5 24 8 30c2 5 7 7 14 8h49
c41 0 89 -3 127 -3c11 -1 23 -1 35 -1c26 0 54 1 79 1c13 0 24 0 33 -1h6z" />
    <glyph glyph-name="uni003E" unicode="&#x3e;" horiz-adv-x="690" 
d="M645 138l-570 -234l-30 75l516 214l-516 214l30 75l570 -234v-110z" />
    <glyph glyph-name="uni003F" unicode="?" horiz-adv-x="558" 
d="M85 652c0 58 114 74 186 74c50 0 98 -26 143 -78c43 -51 65 -102 65 -153c0 -57 -15 -101 -45 -133l-67 -72c-8 -9 -16 -18 -23 -27c-13 -12 -27 -18 -42 -18c-32 0 -61 46 -61 78c0 29 24 66 71 111c48 45 72 81 72 107c0 49 -34 87 -84 87c-25 0 -46 -8 -63 -25
c-4 -4 -16 -20 -36 -48c-12 -17 -24 -25 -36 -25c-27 0 -44 4 -50 13c-10 16 -30 80 -30 109zM371 74c0 -49 -27 -74 -80 -74c-52 0 -78 25 -78 74c0 51 27 76 81 76c51 0 77 -25 77 -76z" />
    <glyph glyph-name="uni0434" unicode="&#x434;" horiz-adv-x="472" 
d="M297 -43c0 22 -3 40 -18 43h-65c-44 1 -65 1 -65 1c-11 -1 -20 -6 -29 -16c-3 -4 -7 -25 -14 -63c-6 -35 -9 -55 -9 -62c0 -14 -6 -23 -16 -23s-21 6 -22 15c-6 62 -23 113 -56 154c-4 4 -3 9 -3 13c0 8 7 15 16 15c66 0 100 0 101 -1c1 0 4 2 9 5c19 34 56 168 67 249
l10 74c1 9 5 14 12 15c3 1 20 2 51 3c1 0 35 5 47 5h4c8 -1 10 -8 7 -17c-4 -10 -10 -31 -17 -62c-1 -11 -2 -23 -2 -37c0 -25 2 -56 7 -93c10 -80 17 -125 22 -135c3 -7 6 -11 11 -13c15 1 30 1 47 1h26c7 -2 14 -12 14 -22c0 -4 -2 -9 -5 -12c-46 -46 -90 -104 -108 -155
c-1 -5 -6 -7 -13 -7c-13 0 -19 3 -19 13c0 4 1 7 2 12c0 0 8 70 8 100zM172 33c1 -1 22 -1 63 -1c6 0 8 1 8 4c0 2 0 3 -1 5c-5 9 -9 31 -13 66c-5 36 -8 75 -14 75h-1c-3 0 -4 -2 -5 -6c-9 -30 -25 -93 -40 -130c-1 -2 -1 -4 -1 -5c0 -4 1 -6 4 -8z" />
    <glyph glyph-name="uni0462" unicode="&#x462;" horiz-adv-x="771" 
d="M273 576c0 16 -8 17 -22 17h-7c-12 0 -23 8 -23 20c0 17 7 23 15 29c4 3 9 4 15 4c10 0 26 -1 39 -1c16 0 37 -1 51 -1c32 0 70 1 101 4c2 0 5 1 7 1c13 0 20 -10 20 -24c0 -15 -9 -26 -23 -26h-10c-14 0 -19 -14 -19 -29v-27c0 -25 3 -31 33 -31c32 0 64 2 96 5
c18 -1 34 -1 49 -1h37c8 0 16 1 22 1c13 0 21 -3 21 -16c0 -21 -18 -40 -29 -55c-7 -11 -16 -23 -26 -36c-12 -20 -23 -39 -38 -56c-7 -9 -10 -13 -21 -13c-17 0 -18 15 -21 34c-8 34 -12 89 -44 97c-6 2 -13 3 -21 3c-35 0 -58 -7 -58 -40c0 -22 1 -46 1 -64
c0 -19 1 -49 1 -64c2 -24 2 -27 18 -43c13 -15 51 -32 73 -43c24 -11 58 -28 80 -35c21 -9 19 -17 28 -35c1 -2 3 -8 6 -20c9 -42 22 -94 31 -138c6 -31 12 -65 25 -84c11 -15 23 -27 41 -36c6 -4 10 -10 10 -17c0 -6 -4 -11 -12 -11h-2c-51 0 -121 2 -175 2h-57
c-78 0 -164 -10 -243 -10c-11 0 -18 3 -19 4c-6 4 -11 11 -11 19c0 22 38 11 41 28c1 4 1 17 2 39c4 127 11 270 11 400c0 34 2 69 2 104c0 30 -13 37 -45 39c-10 1 -18 1 -24 1c-22 0 -28 -7 -40 -18c-18 -18 -24 -63 -24 -97c0 -12 -4 -19 -14 -19c-7 0 -20 20 -25 26
l-16 22c-19 25 -47 42 -70 64c-7 8 -13 18 -13 30c0 16 9 30 26 30h154c17 0 44 -1 60 -1c23 1 35 11 35 33c1 6 1 11 1 16v19zM416 -101c4 -13 26 -18 48 -18c17 0 34 1 45 2c19 1 37 6 37 24c0 53 -11 111 -19 156s-13 83 -34 110c-13 13 -33 29 -49 40c-6 4 -14 8 -20 8
c-7 0 -12 -4 -12 -17c0 -48 -3 -114 -3 -163c0 -43 7 -100 7 -142z" />
    <glyph glyph-name="uni0472" unicode="&#x472;" horiz-adv-x="505" 
d="M389 -38c-46 -73 -97 -115 -161 -115c-51 0 -100 33 -146 100c-55 81 -82 177 -82 295c0 102 22 196 68 282c49 92 102 140 171 140c57 0 108 -38 153 -114c49 -82 73 -179 73 -291c0 -118 -26 -217 -76 -297zM234 606c-70 0 -111 -106 -111 -302c0 -7 13 -11 40 -12h66
c17 -1 32 -1 45 -1c46 0 69 4 70 11c-3 116 -24 304 -110 304zM243 -98c86 0 102 190 102 317v24c0 9 -7 15 -22 16c-6 1 -108 4 -139 4c-34 0 -61 -2 -61 -14c0 -68 9 -129 18 -176c21 -114 55 -171 102 -171z" />
    <glyph glyph-name="uni0466" unicode="&#x466;" horiz-adv-x="912" 
d="M318 608c-17 5 -13 14 -13 20c0 15 11 22 28 22s34 -4 54 -4c37 0 81 5 118 5c9 0 18 0 26 -1c18 -2 21 -6 26 -21c0 -1 1 -3 1 -4c0 -8 -7 -17 -18 -17h-14c-14 0 -23 -4 -23 -16c0 -2 1 -5 1 -8c0 -47 9 -75 28 -109c26 -47 58 -79 101 -123c37 -38 68 -71 93 -99
c62 -69 105 -130 105 -256c0 -43 -7 -70 -15 -102c-1 -4 4 -10 10 -10c7 1 15 3 22 3c15 0 24 -12 24 -24c0 -16 -12 -20 -33 -20c-33 0 -62 3 -104 3c-43 0 -65 -3 -94 -3c-19 0 -25 7 -25 23c0 11 7 20 20 20c5 0 10 -1 15 -1c19 0 23 20 29 33c7 18 10 38 10 64
c0 101 -42 157 -88 213c-6 6 -13 21 -25 21h-9c-14 0 -24 2 -35 2c-8 0 -17 -2 -28 -7c-7 -3 -6 -8 -9 -15c-1 -3 -3 -12 -3 -25c0 -28 -2 -58 -2 -89c0 -62 4 -124 4 -182v-9c0 -5 6 -8 11 -8c8 0 18 3 26 3c13 0 20 -10 20 -20c0 -16 -9 -23 -28 -23c-32 0 -64 3 -99 3
c-42 0 -64 -4 -94 -4c-16 0 -20 5 -25 21c-1 2 -1 3 -1 5c0 9 9 17 21 17c9 0 19 -2 27 -2c13 0 12 4 12 17c0 52 2 112 2 167v61c0 18 -1 33 -1 46c0 21 -4 19 -4 34c0 11 -31 12 -50 12h-14c-21 0 -40 -1 -48 -14c-20 -32 -44 -62 -60 -101c-15 -35 -27 -76 -27 -124
c0 -42 11 -55 27 -81c5 -8 9 -16 21 -16c5 0 12 1 17 1c11 0 18 -10 18 -18c0 -15 -8 -24 -27 -24c-29 0 -50 3 -89 3h-108c-15 0 -22 3 -22 20c0 10 6 19 20 19c8 0 19 -1 28 -1c13 0 5 12 3 18c-12 31 -19 50 -19 93c0 75 22 122 56 171c18 26 42 55 72 86
c28 30 63 65 103 104c58 59 94 122 94 227v20c-17 0 -28 0 -39 4zM415 250h77c17 0 52 0 52 11c0 3 -2 5 -6 9c-59 51 -117 107 -136 199c-1 8 -2 13 -2 16c0 7 -4 21 -13 21c-10 0 -11 -20 -11 -30c0 -39 -20 -79 -34 -110c-16 -34 -36 -70 -53 -98c-1 -2 -2 -4 -2 -6
c0 -12 24 -14 47 -14c29 0 52 2 81 2z" />
    <glyph glyph-name="uni20DD" unicode="&#x20dd;" 
d="M-10 357c0 -97 -34 -180 -101 -250c-68 -71 -151 -107 -248 -107c-99 0 -184 35 -253 104c-70 69 -105 154 -106 253c0 99 35 184 104 254c69 72 152 107 249 107h3c97 0 179 -34 248 -103c70 -71 104 -156 104 -258zM-139 590c-61 62 -136 93 -223 93h-3
c-88 -1 -163 -33 -225 -96c-61 -63 -92 -138 -92 -226v-3c0 -90 31 -166 94 -228s139 -93 229 -93c87 1 162 34 223 96c61 63 91 138 91 225c0 92 -31 169 -94 232z" />
    <glyph glyph-name="uni0488" unicode="&#x488;" horiz-adv-x="839" 
d="M755 567c-30 -27 -60 -44 -89 -51c-24 23 -40 52 -49 87c32 25 62 42 89 51c17 -23 34 -52 49 -87zM498 684c-29 -26 -59 -43 -88 -50c-24 23 -41 52 -50 86c32 25 62 43 90 52c17 -23 33 -53 48 -88zM818 330c-29 -26 -59 -43 -88 -50c-24 24 -41 53 -50 86
c32 25 62 43 89 52c19 -23 35 -53 49 -88zM271 564c-29 -26 -58 -43 -87 -50c-25 23 -42 52 -51 86c32 25 62 43 90 52c18 -23 34 -53 48 -88zM752 77c-30 -26 -59 -43 -88 -50c-24 24 -41 53 -50 86c32 25 62 42 89 52c18 -23 34 -53 49 -88zM162 336
c-29 -26 -59 -43 -88 -50c-25 23 -41 52 -50 86c32 25 62 43 90 52c17 -23 33 -53 48 -88zM491 -37c-30 -26 -60 -43 -89 -50c-24 24 -40 54 -49 87c32 25 62 41 89 51c18 -23 34 -53 49 -88zM226 84c-30 -26 -59 -43 -88 -50c-24 23 -40 52 -49 86c31 25 61 43 89 52
c17 -23 33 -53 48 -88z" />
    <glyph glyph-name="uni0489" unicode="&#x489;" horiz-adv-x="860" 
d="M607 581c0 45 47 67 88 67c17 0 37 -3 59 -9v-10c-31 -8 -51 -19 -64 -33c-7 -9 -11 -18 -11 -27c0 -17 12 -29 36 -35v-26c-7 -1 -15 -2 -21 -2c-41 0 -87 34 -87 75zM422 618c-36 0 -68 24 -68 59c0 42 28 77 84 103l8 -10c-17 -26 -25 -45 -25 -63c0 -25 9 -38 31 -38
c9 0 18 3 27 8l17 -23c-18 -23 -43 -35 -74 -36zM671 332c0 33 21 68 57 68h3c44 -1 78 -31 101 -90l-8 -8c-26 20 -48 30 -67 31h-2c-23 0 -35 -11 -35 -33c0 -8 2 -16 7 -25l-24 -15c-20 17 -32 44 -32 72zM203 488c-41 0 -66 37 -66 76c0 23 8 49 25 78l12 -2
c1 -40 15 -86 52 -86c14 0 25 9 33 26l25 -10c0 -40 -33 -82 -81 -82zM693 53c0 27 -14 48 -34 48c-12 0 -23 -6 -34 -18l-21 17c10 31 43 61 82 61c41 0 63 -24 63 -66c0 -32 -18 -62 -53 -95h-11c5 20 8 39 8 53zM164 297c-13 -29 -33 -43 -58 -43c-8 0 -15 2 -22 6
c-40 17 -60 58 -60 121l11 5c17 -28 33 -46 50 -53c7 -3 13 -5 19 -5c21 0 32 13 32 39v7l27 4c7 -13 10 -26 10 -40s-3 -28 -9 -41zM432 47c34 0 67 -22 67 -56c0 -43 -29 -78 -86 -105l-9 8c19 26 28 48 28 67c0 25 -11 39 -32 39c-8 0 -17 -4 -26 -9l-16 23
c18 22 43 33 74 33zM111 64c32 0 67 13 67 40c0 13 -8 25 -23 34l12 26c41 -8 75 -47 75 -87c0 -23 -9 -40 -28 -49c-14 -7 -28 -11 -42 -11c-27 0 -58 13 -92 39l4 10c10 -1 18 -2 27 -2z" />
    <glyph glyph-name="uniA670" unicode="&#xa670;" horiz-adv-x="871" 
d="M775 572h-66v-66h-33v66h-68v31h68v66h33v-66h66v-31zM846 336h-66v-66h-34v66h-67v33h67v66h34v-66h66v-33zM514 669h-68v-66h-33v66h-66v32h66v66h33v-66h68v-32zM775 96h-66v-66h-33v66h-68v33h68v66h33v-66h66v-33zM271 572h-66v-68h-33v68h-66v31h64v66h35v-66h66
v-31zM191 336h-66v-66h-34v66h-67v33h67v66h34v-66h66v-33zM511 -13h-67v-67h-34v67h-66v31h66v68h34v-68h67v-31zM270 92h-66v-68h-34v68h-66v31h66v67h34v-67h66v-31z" />
    <glyph glyph-name="uniA671" unicode="&#xa671;" 
d="M-16 378h-126v41h68c-14 74 -50 134 -106 181c-54 47 -120 70 -192 70c-70 0 -132 -24 -186 -73c-54 -47 -88 -107 -106 -178h70v-41h-126c8 92 46 170 112 232c68 64 148 95 238 95h4c90 0 170 -31 238 -93c66 -63 104 -141 112 -234zM-16 291
c-14 -85 -54 -156 -118 -215c-66 -59 -142 -88 -230 -89c-88 0 -166 29 -234 87s-108 130 -122 217h126v-41h-64c36 -116 142 -222 288 -222h2c68 1 128 22 184 63c54 41 90 94 110 159h-68v41h126z" />
    <glyph glyph-name="uniA672" unicode="&#xa672;" horiz-adv-x="938" 
d="M808 585h-167v31h167v-31zM917 336h-167v33h167v-33zM545 669h-66v-66h-34v66h-66v32h66v66h34v-66h66v-32zM808 83h-167v31h167v-31zM304 585h-167v31h167v-31zM542 -13h-165v31h165v-31zM187 336h-165v33h165v-33zM302 82h-166v31h166v-31z" />
    <glyph glyph-name="uni0474" unicode="&#x474;" horiz-adv-x="748" 
d="M252 634c0 -22 -12 -32 -33 -32c-12 0 -18 -7 -18 -18c0 -73 43 -144 63 -203c31 -94 56 -182 89 -269c2 -5 11 -10 19 -10c5 0 9 2 10 7c13 63 27 142 38 208l10 60c12 59 15 105 35 152c11 27 32 67 51 86c14 16 38 33 72 38c11 1 23 2 36 2c33 0 67 -6 84 -20
c-4 -24 -17 -56 -24 -80c-3 -9 -4 -16 -4 -20c0 -26 -5 -57 -12 -77c-4 -8 -9 -13 -14 -13c-4 0 -8 3 -12 10c-13 21 -24 59 -59 59c-17 0 -31 -3 -40 -9s-20 -15 -33 -26c-4 -3 -8 -12 -13 -26c-26 -81 -39 -181 -57 -268c-17 -106 -35 -232 -56 -333c-1 -7 -9 -9 -19 -9
s-22 4 -29 4c-10 0 -23 -4 -33 -4h-7c-3 0 -6 4 -6 7c-36 130 -72 240 -109 359c-34 108 -66 212 -102 317c-8 23 -12 28 -15 47c-2 16 -6 30 -23 30c-12 0 -11 -3 -23 -3c-10 0 -18 14 -18 24c0 9 9 28 18 28c31 -3 49 -4 82 -4c40 0 76 4 115 4c8 0 17 -1 26 -1
c8 0 11 -9 11 -17z" />
    <glyph glyph-name="uni047E" unicode="&#x47e;" horiz-adv-x="1056" 
d="M450 675v14c0 28 -13 35 -44 37c-9 1 -22 1 -38 1c-30 0 -65 -1 -91 -5c-25 -5 -31 -12 -40 -30c-9 -19 -19 -46 -19 -70c0 -12 -4 -17 -14 -17c-2 0 -6 3 -12 7c-16 15 -36 36 -51 51c-7 9 -26 20 -38 27c-16 8 -43 19 -43 42c0 13 12 25 27 25l133 4c94 3 174 7 264 12
c13 1 22 1 29 1c114 5 240 8 355 15c10 1 19 2 26 2c11 0 21 -9 21 -20c0 -14 -13 -27 -20 -35c-9 -10 -23 -23 -33 -32c-16 -14 -30 -40 -44 -58c-5 -6 -10 -12 -16 -12c-8 0 -13 6 -17 11c-13 11 -20 33 -25 54c-5 28 -17 37 -37 43c-45 0 -98 -1 -139 -5
c-17 -1 -24 -9 -24 -25v-68c0 -6 1 -12 1 -17c0 -8 -2 -14 -13 -16c-6 -1 -11 -1 -17 -1h-9c-15 0 -35 -2 -47 -4c-5 -1 -8 -2 -11 -2c-10 0 -12 6 -12 20c0 15 -2 32 -2 51zM589 424c0 57 51 88 109 88c24 0 48 -5 72 -13c51 -17 106 -47 147 -86c55 -53 99 -130 99 -240
c0 -105 -30 -177 -78 -227c-22 -23 -44 -40 -68 -51c-53 -27 -95 -48 -172 -48c-40 0 -81 8 -103 25c-34 26 -60 63 -80 103c-45 -73 -103 -139 -220 -139h-3c-33 1 -67 7 -102 18c-47 16 -88 52 -118 94c-40 52 -69 126 -72 217v11c0 90 32 157 74 206c37 43 88 80 139 100
c22 9 44 13 66 13c36 0 69 -12 89 -35c11 -13 22 -32 22 -56c0 -27 -27 -56 -45 -64c-9 -5 -18 -7 -27 -7c-32 0 -60 20 -60 52v4c1 10 10 25 10 38c0 12 -13 24 -25 24c-11 0 -21 -8 -31 -19c-43 -46 -67 -121 -77 -205c-2 -16 -3 -33 -3 -49c0 -58 11 -115 27 -154
c15 -37 40 -71 76 -103c22 -20 47 -33 79 -33c45 0 73 19 100 38s53 51 53 99c0 35 -4 61 -21 77c-6 4 -13 14 -13 22c0 5 4 9 12 10c3 0 7 1 11 1c17 0 41 -3 55 -3c10 0 39 5 61 5c14 0 25 -2 26 -9c0 -5 -3 -9 -8 -14s-12 -15 -21 -28c-8 -13 -12 -29 -12 -45
c0 -61 34 -109 74 -131c16 -8 34 -12 52 -12c34 0 69 13 92 31c25 19 48 34 65 65c21 38 29 86 29 147v24c-2 70 -6 119 -20 167c-8 29 -18 41 -30 62c-9 15 -19 29 -29 42c-11 14 -21 21 -38 21c-12 0 -21 -6 -21 -17s6 -21 6 -32c0 -5 -1 -13 -4 -19
c-7 -20 -17 -23 -36 -34c-9 -5 -19 -8 -29 -8c-49 0 -79 32 -79 77z" />
    <glyph glyph-name="uni0476" unicode="&#x476;" horiz-adv-x="748" 
d="M242 655c10 0 11 -12 11 -20c0 -17 -14 -29 -33 -29c-12 0 -18 -7 -18 -18c0 -73 43 -144 63 -203c31 -94 56 -182 89 -269c2 -5 11 -9 19 -9c5 0 9 1 10 6c13 64 27 141 38 208l10 60c12 58 15 105 35 152c11 27 32 67 51 86c14 16 38 33 72 38c11 1 24 2 37 2
c32 0 66 -6 83 -20c-2 -14 -10 -35 -15 -50c-4 -14 -13 -36 -13 -50c0 -26 -5 -57 -12 -77c-4 -8 -9 -13 -14 -13c-4 0 -8 3 -12 10c-12 21 -24 59 -59 59c-17 0 -31 -3 -40 -9s-20 -15 -33 -26c-4 -3 -8 -12 -13 -26c-17 -53 -30 -122 -41 -180c-26 -133 -45 -289 -72 -421
c-1 -7 -10 -9 -19 -9c-10 0 -22 4 -29 4c-10 0 -23 -4 -33 -4h-7c-3 0 -6 4 -6 7c-15 56 -30 106 -43 149c-31 102 -63 191 -89 291c-28 85 -58 186 -91 269c-5 18 -2 44 -26 44c-12 0 -11 -3 -23 -3c-10 0 -18 14 -18 24c0 9 9 28 18 28c31 -3 49 -4 82 -4c40 0 76 4 115 4
c8 0 17 -1 26 -1zM470 728c-11 -12 -28 -18 -51 -18c-21 0 -22 12 -28 32c-11 36 -41 104 -59 131c-7 9 -11 17 -14 25c-1 11 5 16 18 16c10 0 41 -7 48 -9c9 -4 15 -9 19 -16c4 -13 14 -36 31 -71c26 -44 39 -71 39 -82c0 -3 -1 -6 -3 -8zM300 728c-11 -12 -28 -18 -51 -18
c-21 0 -22 12 -28 32c-11 36 -41 104 -59 131c-7 9 -11 17 -14 25c-1 11 5 16 18 16c10 0 41 -7 48 -9c9 -4 15 -9 19 -16c4 -13 14 -36 31 -71c26 -44 39 -71 39 -82c0 -3 -1 -6 -3 -8z" />
    <glyph glyph-name="uni005B" unicode="[" horiz-adv-x="310" 
d="M260 -136c0 -13 -10 -14 -30 -15c-28 -2 -64 -2 -98 -2c-35 0 -71 1 -100 6c-25 4 -30 7 -32 31v9v24c0 93 5 179 8 283c5 139 7 253 7 367c0 42 0 83 -1 125c-1 50 -1 85 -1 108s2 37 5 42c7 10 43 11 63 13c28 2 61 4 92 4c22 0 43 -1 62 -3c23 -1 35 -3 35 -23
c0 -18 -9 -21 -31 -21c-11 -1 -23 -1 -37 -1h-14c-17 0 -37 -1 -45 -7c-3 -2 -4 -14 -5 -39v-50c0 -53 1 -111 1 -166c0 -172 -15 -345 -15 -515c0 -28 1 -54 2 -82c0 -30 3 -49 7 -53c7 -7 24 -8 41 -8c7 0 14 0 20 1c8 0 23 1 35 1c9 0 18 -1 21 -4c6 -6 10 -14 10 -25z
" />
    <glyph glyph-name="uni005C" unicode="\" horiz-adv-x="400" 
d="M360 0h-60l-230 774h60z" />
    <glyph glyph-name="uni005D" unicode="]" horiz-adv-x="323" 
d="M94 811c-9 0 -19 -1 -28 -1c-21 0 -39 3 -39 21c0 22 13 24 37 25c21 2 45 3 70 3c44 0 90 -3 125 -9c11 -2 18 -5 20 -8c3 -4 4 -15 4 -31v-11c-3 -93 -8 -181 -12 -300c-3 -80 -4 -180 -4 -300v-134c0 -57 0 -103 -1 -149c-1 -24 0 -45 -11 -56
c-10 -10 -46 -11 -69 -13c-18 0 -37 -1 -56 -1c-34 0 -69 0 -98 2c-18 1 -28 1 -28 15c0 11 4 19 10 25c3 2 10 3 21 3c14 0 35 -2 54 -2c18 0 35 2 42 9c4 4 7 23 10 53c7 78 7 172 7 267v15v127v65c0 81 1 167 5 244c2 39 3 78 3 114c0 25 -3 25 -26 26c-11 1 -24 1 -36 1
z" />
    <glyph glyph-name="uni005F" unicode="_" horiz-adv-x="394" 
d="M358 48c9 0 12 -9 12 -20c0 -12 -4 -24 -10 -27c-6 -2 -10 -4 -13 -4c-20 0 -46 3 -73 3c-29 1 -62 2 -94 2c-16 0 -32 -1 -47 -1c-24 -1 -44 -2 -63 -2c-18 0 -35 1 -54 3c-7 1 -9 6 -9 12c0 10 5 24 8 30c2 5 7 7 14 8h49c41 0 89 -3 127 -3c11 -1 23 -1 35 -1
c26 0 54 1 79 1c13 0 24 0 33 -1h6z" />
    <glyph glyph-name="uni0463" unicode="&#x463;" horiz-adv-x="590" 
d="M435 242c-9 0 -17 14 -17 20c0 9 2 20 -1 29c-2 18 -20 31 -33 37c-5 3 -9 4 -13 4c-5 0 -24 3 -35 3c-4 0 -7 0 -8 -1c-10 -10 -9 -7 -13 -28c-6 -33 -17 -77 -17 -113c4 -5 -2 -11 15 -9c21 4 50 10 73 10c12 0 23 -29 28 -42c13 -35 26 -78 34 -116c2 -9 3 -15 3 -18
c0 -14 -8 -14 -17 -18c-1 -1 -8 -1 -18 -1h-38c-20 0 -50 1 -67 1c-29 0 -67 -3 -97 -3h-20c-10 1 -24 11 -24 24c0 8 1 15 4 35c13 82 27 176 41 261v3c0 21 -29 25 -56 25c-7 0 -13 0 -19 -1c-16 0 -16 -5 -26 -14c-6 -4 -10 -14 -11 -29c0 -11 -1 -32 -1 -45v-31
c0 -9 2 -22 2 -34c0 -15 -3 -28 -13 -29c-19 0 -46 -2 -65 -2c-15 0 -22 1 -26 10v15c0 46 2 101 5 145c1 8 1 14 1 15c2 13 4 29 20 29h2c24 0 71 -1 100 -1h83c12 0 20 5 23 15c1 1 4 13 11 34c16 52 38 115 61 166c12 29 25 52 38 69c4 5 12 7 21 7h19c5 1 23 2 35 2h7
c7 0 25 -6 25 -17c0 -1 -1 -3 -1 -5c-7 -14 -6 -10 -19 -30c-41 -62 -76 -144 -101 -229c-1 -4 -1 -7 -1 -10c0 -8 30 -9 52 -9h55c35 0 66 10 99 10c11 0 15 -6 15 -14c0 -21 -18 -32 -30 -44c-15 -14 -28 -24 -41 -40c-9 -10 -18 -20 -28 -29c-5 -4 -11 -7 -16 -7zM337 73
c-1 25 -17 54 -44 54c-10 0 -13 -8 -15 -20c-3 -9 -5 -21 -5 -34c0 -18 5 -35 21 -35c27 0 43 5 43 35z" />
    <glyph glyph-name="uni0473" unicode="&#x473;" horiz-adv-x="671" 
d="M223 -31c-15 0 -29 -5 -29 -15c0 -63 -3 -106 -8 -128c-2 -16 -12 -17 -35 -17h-7c-10 0 -22 1 -37 1c-41 0 -64 5 -69 10s-7 9 -7 12c0 6 19 100 19 106c0 14 -1 23 -7 26c-12 0 -26 2 -43 6c-3 3 -5 7 -5 13s2 13 5 22s20 14 49 17c18 0 74 -13 89 -15
c33 -4 60 -5 79 -5c28 0 46 3 46 25c-6 31 -9 64 -9 97c0 64 11 107 30 161c16 44 33 73 50 87c16 10 31 15 44 15c11 0 25 -4 40 -13c34 -21 48 -132 48 -200c0 -28 -5 -76 -15 -143c0 -24 20 -26 44 -26c12 0 43 5 92 14c6 1 11 2 16 2c14 0 22 -5 24 -15
c2 -11 4 -21 4 -31c0 -13 -11 -38 -34 -74c-27 -42 -50 -64 -69 -67c-13 0 -20 7 -22 21v9c0 22 -2 49 -6 82c-3 10 -6 16 -8 17l-12 3c-10 3 -19 4 -27 4c-13 0 -21 -5 -23 -16c0 0 -40 -138 -53 -177c-12 -33 -24 -49 -36 -49c-8 0 -14 5 -17 16c-20 53 -34 141 -49 210
c-5 11 -30 15 -52 15zM357 136c-22 0 -39 -26 -39 -50c0 -3 1 -6 1 -8v-36c5 -21 17 -32 32 -32h2c23 0 39 22 39 67c0 4 1 8 1 12c0 31 -12 47 -36 47z" />
    <glyph glyph-name="uni0467" unicode="&#x467;" horiz-adv-x="558" 
d="M23 2c-17 0 -23 8 -23 27c0 14 4 25 12 40c13 27 20 37 43 60c17 17 17 17 37 36c27 28 57 54 78 82c11 15 25 33 31 51c1 4 2 7 1 8c0 16 -16 24 -27 33c-10 7 -28 14 -28 28c0 15 11 19 25 19h18c13 -1 30 -5 43 -5c23 -1 66 0 79 -10c3 -3 6 -24 6 -35
c0 -18 5 -22 18 -38c27 -33 62 -74 89 -108c16 -21 31 -40 45 -57c22 -26 42 -55 44 -92c2 -15 4 -22 4 -29s-3 -10 -9 -10c-11 0 -37 1 -50 1c-9 0 -25 -2 -37 -2s-23 2 -24 12c-3 10 2 16 0 30c-4 24 -13 32 -28 52c-11 18 -33 43 -52 48c-8 3 -20 3 -20 -6
c0 -29 4 -69 4 -97c1 -5 4 -17 4 -25c0 -5 -1 -8 -3 -9c-7 -4 -46 -5 -57 -6h-5c-15 0 -45 3 -52 6c-3 1 -5 4 -5 9v12c4 13 7 40 9 58c3 20 7 51 7 67c0 8 -13 13 -24 13c-2 0 -4 -1 -6 -1c-10 -2 -21 -14 -30 -21c-30 -26 -55 -60 -55 -116c0 -12 5 -24 -7 -24h-36
c-7 0 -13 -1 -19 -1zM242 199h2c14 0 49 6 49 17c0 2 -1 4 -4 6c-7 7 -33 33 -38 43c-3 5 -6 8 -10 8c-2 0 -5 -2 -7 -6c-5 -15 -23 -35 -33 -45c-4 -3 -6 -5 -6 -8c0 -15 30 -15 47 -15z" />
    <glyph glyph-name="uni0475" unicode="&#x475;" horiz-adv-x="492" 
d="M-5 353c0 24 36 27 62 27c8 0 20 1 29 1c13 0 28 -1 37 -4c11 -2 18 -42 22 -58c11 -43 21 -98 29 -142c5 -21 4 -20 10 -32c3 -7 8 -11 13 -11c4 0 9 4 12 12c16 41 36 99 53 141c24 61 45 98 127 98h15c15 -1 25 -5 36 -8c9 -2 12 -10 12 -19c0 -17 -12 -41 -18 -47
c-15 -15 -37 -18 -64 -18c-40 0 -59 -39 -74 -69c-26 -51 -42 -101 -42 -176v-4c0 -34 -36 -35 -73 -35h-8c-13 0 -37 -8 -56 -8c-24 0 -26 11 -26 39c0 14 -3 31 -9 51c-15 55 -34 125 -54 178c-10 26 -10 26 -18 46c-4 12 -8 20 -10 22c-3 5 -5 11 -5 16z" />
    <glyph glyph-name="uni0461" unicode="&#x461;" horiz-adv-x="590" 
d="M114 376c8 0 21 -1 27 -1c5 -1 7 -3 7 -5s0 -5 -1 -8c0 -5 -11 -15 -15 -21c-18 -22 -27 -40 -30 -80v-7c0 -32 10 -79 22 -103c13 -23 30 -41 49 -54c5 -3 9 -4 13 -4c10 0 18 8 26 16c9 9 28 28 28 46c0 4 -1 8 -4 12c-12 19 -19 48 -23 84v10c0 41 14 71 30 95
c18 22 30 25 63 25h8c12 0 23 -1 23 -10c0 -1 -1 -3 -1 -4c-1 -3 -4 -9 -10 -17c-9 -12 -17 -37 -17 -62v-7c4 -66 31 -124 61 -162c10 -14 17 -23 20 -26c3 -2 6 -3 8 -3c16 0 31 29 36 41c8 21 13 51 13 82c0 44 -11 88 -25 116c-3 6 -4 10 -4 11c1 3 1 5 1 7
c0 8 20 13 31 16c12 4 27 11 44 21c4 3 7 4 10 4c12 0 21 -15 26 -22c16 -18 19 -52 20 -87v-12c0 -39 -11 -74 -23 -103c-24 -58 -62 -102 -108 -134c-19 -13 -33 -22 -42 -25c-8 -3 -16 -4 -23 -4c-44 0 -63 55 -85 85c-5 8 -17 11 -27 6c-2 -1 -8 -6 -17 -15
c-18 -18 -43 -41 -61 -58s-15 -15 -34 -21c-2 0 -3 -1 -5 -1c-7 0 -15 3 -26 8c-25 17 -48 56 -63 88c-17 35 -34 82 -36 127c0 70 25 121 68 147c11 6 15 9 30 9h16z" />
    <glyph glyph-name="uni0460" unicode="&#x460;" horiz-adv-x="916" 
d="M441 30c-33 -48 -146 -180 -203 -186c-52 18 -101 80 -148 186c-56 125 -70 189 -70 319c0 123 19 223 57 298l136 6c-23 -41 -39 -98 -46 -170c-5 -45 -7 -87 -7 -124c0 -33 1 -64 4 -94c15 -179 48 -280 101 -304h4c49 0 99 38 149 114c-41 83 -62 179 -62 290
c0 114 21 208 64 282l136 4c-22 -37 -39 -89 -51 -158c-9 -57 -14 -113 -14 -168c0 -167 43 -337 159 -368c69 25 104 125 104 300c0 122 -23 252 -69 389l137 6c23 -63 39 -119 49 -168c5 -25 7 -60 7 -106c0 -148 -13 -226 -79 -355c-53 -105 -111 -164 -173 -179
c-67 19 -148 122 -185 186z" />
    <glyph glyph-name="uni0477" unicode="&#x477;" horiz-adv-x="492" 
d="M91 39c0 14 -3 31 -9 51c-13 56 -33 125 -54 178c-10 26 -10 26 -18 46c-4 12 -8 20 -10 22c-4 6 -6 12 -6 17c0 21 36 26 63 26c8 0 20 1 29 1c7 0 13 0 20 -1c19 -2 21 -1 28 -21c13 -40 24 -95 32 -141c4 -21 8 -47 13 -62c3 -7 7 -16 13 -20c9 -6 13 1 17 10
c17 42 36 98 53 141c24 61 45 99 128 99c12 0 24 -1 32 -4c17 -4 30 -5 30 -27c0 -12 -7 -27 -12 -34c-12 -23 -38 -28 -70 -28c-23 0 -38 -11 -50 -29c-39 -55 -66 -124 -66 -216v-5c0 -12 -4 -21 -12 -26c-15 -8 -48 -8 -69 -8c-17 0 -37 -6 -54 -6c-2 -1 -3 -1 -5 -1
c-22 0 -23 11 -23 38zM325 529c-12 -12 -29 -18 -51 -18c-21 0 -22 12 -29 32c-11 36 -41 104 -59 131c-7 9 -11 17 -13 25c0 11 5 16 17 16c27 0 59 -9 68 -25c4 -13 14 -36 31 -71c25 -44 38 -71 38 -82c0 -3 -1 -6 -2 -8zM155 529c-12 -12 -29 -18 -51 -18
c-21 0 -22 12 -29 32c-11 36 -41 104 -59 131c-7 9 -11 17 -13 25c-1 11 5 16 17 16c27 0 59 -9 68 -25c4 -13 14 -36 31 -71c25 -44 38 -71 38 -82c0 -3 -1 -6 -2 -8z" />
    <glyph glyph-name="uni0403" unicode="&#x403;" horiz-adv-x="528" 
d="M67 -85c4 37 6 140 6 307c0 82 8 176 8 283c0 9 2 25 5 49c1 9 -5 15 -18 18c-5 -1 -11 -1 -18 -1c-10 0 -21 1 -33 2c-11 6 -17 18 -17 35c0 14 21 29 34 31c58 1 126 2 205 3c85 3 150 8 194 17c5 1 9 1 14 1c17 0 48 -12 48 -31c0 -5 -2 -10 -6 -16
c-13 -8 -32 -24 -57 -48c-21 -24 -38 -54 -51 -89c-2 -6 -6 -9 -12 -9s-13 3 -22 10c-16 11 -21 68 -21 94c0 10 -11 15 -32 15c-5 0 -10 -1 -16 -1c-12 0 -27 -1 -45 -3c-10 -4 -15 -11 -15 -20c0 -3 1 -5 1 -7c-2 -53 -3 -149 -3 -287c5 -143 7 -261 7 -353
c0 -9 6 -17 19 -26c16 -12 22 -13 22 -28c0 -11 -6 -17 -17 -18h-8c-14 0 -45 2 -93 4c-52 -5 -83 -9 -93 -9h-3c-16 1 -24 9 -24 23c0 13 5 15 21 24c12 8 19 17 20 30zM387 982c20 0 41 -2 41 -20c0 -4 -1 -9 -3 -14c-5 -13 -31 -53 -76 -119l-40 -56
c-19 -25 -33 -42 -44 -51c-6 -5 -13 -8 -22 -8c-17 0 -35 14 -35 30c0 3 1 6 2 9c9 7 35 41 78 100c20 31 37 60 50 87c11 21 16 31 17 32c5 7 15 10 32 10z" />
    <glyph glyph-name="uni040C" unicode="&#x40c;" horiz-adv-x="532" 
d="M10 622c0 18 23 20 46 20h20c12 0 26 0 41 -1c5 0 37 2 98 5c9 1 14 -4 14 -14c0 -5 -5 -14 -16 -26c-12 -14 -19 -27 -23 -40c-2 -13 -6 -60 -9 -144c-2 -59 -4 -98 -4 -117c0 -7 1 -12 1 -13c1 -3 2 -4 4 -4c9 0 28 26 46 50c29 37 50 69 63 96c30 61 47 109 50 144v8
c0 11 -2 27 -6 48c-2 9 4 14 18 17c36 0 69 4 110 4c8 0 12 -4 12 -12c0 -4 -1 -10 -3 -16c-3 -11 -14 -34 -33 -70c-52 -98 -79 -140 -156 -219l-57 -54c-4 -4 -5 -8 -4 -13l56 -22c43 -19 76 -41 100 -67c29 -33 51 -89 65 -170l16 -118c7 -10 16 -17 27 -21
c4 -1 6 -5 6 -10c0 -7 -3 -10 -10 -11c-19 -1 -43 -1 -74 -1c-23 -1 -44 -2 -65 -2c-13 0 -20 5 -20 14c0 2 1 4 2 7c9 8 16 12 16 27v88c-3 48 -12 90 -29 126c-33 72 -75 111 -124 116c-7 1 -14 -9 -13 -16c-5 -93 -9 -192 -12 -298c2 -7 7 -17 15 -31
c9 -12 13 -20 13 -23c0 -6 -5 -10 -15 -12h-84c-4 0 -77 -5 -81 -5c-7 0 -11 5 -11 12v5c0 1 -1 1 0 2c8 9 17 25 27 48c8 183 17 268 21 486c1 67 1 113 1 140v25c-1 21 -11 37 -30 47c-6 4 -9 9 -9 15zM397 977c20 0 41 -2 41 -20c0 -4 -1 -9 -3 -14
c-5 -13 -31 -53 -76 -119l-40 -56c-19 -25 -33 -42 -44 -51c-6 -5 -13 -8 -22 -8c-17 0 -35 14 -35 30c0 3 1 6 2 9c9 7 35 41 78 100c20 31 37 60 50 87c11 21 16 31 17 32c5 7 15 10 32 10z" />
    <glyph glyph-name="uni040B" unicode="&#x40b;" horiz-adv-x="771" 
d="M222 623c0 18 14 30 29 30c4 0 86 -2 90 -2c37 0 70 1 101 4h5c13 0 21 -7 22 -23c0 -18 -8 -26 -27 -27c-21 0 -25 -9 -25 -28v-27c0 -26 6 -31 33 -31h6c14 0 44 2 90 5c31 -1 56 -1 75 -1c18 0 30 0 35 1h2c11 0 17 -7 17 -18c0 -2 0 -5 -1 -8c-1 -9 -19 -36 -54 -81
c-12 -20 -40 -65 -51 -68c-12 -3 -20 1 -24 10c-1 3 -5 26 -14 69c-7 40 -19 52 -55 52h-10c-36 0 -49 -6 -49 -43l2 -123c2 -25 4 -29 18 -43c7 -8 32 -22 74 -43c37 -18 64 -30 79 -35c17 -7 21 -20 28 -35c15 -67 32 -143 53 -228c11 -27 24 -43 50 -56
c7 -4 10 -9 10 -15c0 -9 -5 -13 -14 -12l-68 4c-10 0 -61 -4 -96 -4c-20 0 -35 2 -35 5l-2 21c0 7 6 13 18 17c9 5 13 13 12 26c-2 62 -21 187 -38 235c-4 13 -9 22 -15 29c-4 6 -55 45 -63 47c-12 4 -18 -1 -18 -16l-3 -163c0 -11 6 -110 7 -142c1 -3 4 -7 11 -12
c16 -7 33 -6 33 -25v-5c-2 -9 -7 -13 -15 -13c-8 -1 -33 -3 -76 -4c-63 -3 -104 -3 -125 -3c-13 0 -20 2 -21 3c-7 5 -11 10 -11 17c0 14 4 16 22 20c11 3 18 6 19 11c0 0 15 399 15 542c0 31 -14 39 -45 40c-11 1 -19 1 -26 1c-17 0 -23 -4 -38 -18
c-16 -15 -24 -47 -24 -97c0 -13 -5 -19 -14 -19c-3 0 -11 9 -25 27c-10 12 -20 24 -29 36c-21 17 -44 37 -67 62c-2 5 -3 11 -3 16c0 18 4 25 26 27l115 4c49 -1 82 -1 99 -1c23 1 35 12 35 33l1 35c0 8 -4 13 -12 16h-3c-6 0 -16 2 -29 6c-5 3 -7 11 -7 18z" />
    <glyph glyph-name="uni040F" unicode="&#x40f;" horiz-adv-x="826" 
d="M733 -155h-269v-312h51v-42h-258v42h51v312h-277l8 42h83v717h-83v42h307v-42h-69v-717h217v717h-69v42h308v-42h-83v-717h83v-42z" />
    <glyph glyph-name="uni0452" unicode="&#x452;" horiz-adv-x="601" 
d="M435 246c-9 0 -17 14 -17 20c0 9 2 20 -1 29c-2 18 -20 31 -33 37c-5 3 -9 4 -13 4c-5 0 -24 3 -35 3c-4 0 -7 0 -8 -1c-4 -4 -6 -4 -9 -10c-14 -42 -24 -102 -29 -152c20 20 57 33 97 33c8 0 16 -1 24 -2c72 -13 110 -63 135 -120c10 -23 15 -54 15 -87
c0 -24 -2 -48 -7 -72c-11 -53 -53 -113 -83 -152c-18 -24 -34 -44 -49 -60c-15 -17 -23 -25 -25 -26c-7 -3 -14 -10 -22 -10c-11 0 -18 11 -25 17c-1 2 -1 4 -1 7c0 5 1 9 3 12c22 33 61 70 76 110c14 33 30 88 30 136v5c0 38 -15 73 -28 97c-11 19 -12 18 -28 35
c-16 16 -40 32 -71 32c0 0 -1 0 -1 -1c-16 0 -31 -8 -48 -23c-1 -14 -2 -25 -2 -34v-22c0 -12 1 -17 1 -29c-1 -13 -8 -14 -17 -18c-16 -1 -35 -4 -51 -4c-19 0 -43 5 -43 25v3c0 31 7 70 12 108c7 58 19 131 33 185v3c0 21 -29 25 -56 25c-7 0 -13 0 -19 -1
c-16 0 -16 -5 -26 -14c-6 -4 -10 -14 -11 -29c0 -11 -1 -32 -1 -45v-31c0 -9 2 -22 2 -34c0 -15 -3 -28 -13 -29c-19 0 -46 -2 -65 -2c-15 0 -22 1 -26 10v15c0 46 2 101 5 145c1 8 1 14 1 15c2 13 4 29 20 29h2c24 0 71 -1 100 -1h83c9 0 13 1 19 7c8 9 5 11 12 37
c19 79 48 171 82 240c3 7 12 9 20 9h72c11 0 15 -5 15 -12c0 -12 -12 -31 -17 -40c-31 -67 -59 -146 -84 -229c-1 -4 -1 -7 -1 -10c0 -8 30 -9 52 -9h55c35 0 66 10 99 10c11 0 15 -6 15 -14c0 -21 -18 -32 -30 -44c-15 -14 -28 -24 -41 -40c-9 -10 -18 -20 -28 -29
c-5 -4 -11 -7 -16 -7z" />
    <glyph glyph-name="uni045C" unicode="&#x45c;" horiz-adv-x="469" 
d="M251 1c-10 0 -15 7 -14 22v7c0 46 -27 125 -52 155c-4 6 -3 16 2 29c8 18 20 39 37 63c29 41 58 68 89 82c17 9 77 20 113 20c13 0 23 -3 23 -10c0 -5 -2 -11 -6 -16c-8 -7 -19 -19 -33 -34c-6 -13 -15 -28 -27 -45c-7 -5 -13 -4 -18 1c-3 8 -9 17 -18 28
c-6 3 -16 2 -30 -3c-26 -10 -63 -46 -72 -71c-2 -5 0 -9 5 -14c4 1 12 1 23 0c15 -2 50 -82 54 -96c4 -12 23 -82 23 -103c0 -9 -4 -14 -10 -14c-5 0 -20 1 -44 3c-5 0 -13 -1 -26 -2zM134 14c0 -14 -10 -15 -30 -15h-6c-8 0 -18 1 -30 1c-36 2 -55 5 -57 10
c-1 3 -1 7 -1 13c0 19 13 128 14 143c2 52 5 109 8 172c2 15 12 24 29 28c32 4 54 11 92 20h6c14 0 25 -11 25 -24c0 -16 -16 -31 -24 -42c-15 -22 -30 -110 -31 -144c-1 -24 -2 -46 -2 -66c0 -40 3 -72 7 -96zM372 752c21 0 42 -2 42 -20c0 -4 -1 -9 -3 -14
c-5 -13 -31 -53 -77 -119c-19 -28 -32 -47 -39 -56c-19 -25 -33 -42 -44 -51c-6 -5 -13 -8 -22 -8c-17 0 -35 14 -35 30c0 3 0 6 1 9c9 7 36 41 79 100c20 31 37 60 50 87c11 21 16 31 17 32c4 7 15 10 31 10z" />
    <glyph glyph-name="uni045B" unicode="&#x45b;" horiz-adv-x="576" 
d="M32 164c-22 0 -21 0 -32 11v7c0 30 2 153 6 168c3 19 10 29 21 29h1c57 -2 101 -2 133 -2s52 0 59 2c7 1 11 6 14 14c9 32 17 64 26 95c20 71 41 129 64 174c3 5 9 9 20 9h20h4h30h18h2c9 0 13 -2 13 -9c0 -5 -2 -14 -7 -23c-30 -55 -61 -140 -94 -251c-1 -9 2 -12 8 -14
c5 -2 25 -3 59 -3h29c17 0 29 0 37 1c5 0 64 9 72 9c10 0 15 -5 15 -15c0 -5 -2 -10 -5 -16s-12 -15 -25 -27c-17 -15 -26 -23 -29 -26l-26 -30c-11 -11 -19 -21 -28 -21c-8 0 -19 12 -19 21c0 18 0 28 -1 29c-3 17 -17 29 -41 39c-15 5 -25 8 -33 8c-11 0 -17 -5 -24 -14
c-10 -27 -20 -77 -29 -152c21 21 54 32 97 32c71 0 112 -37 123 -111c2 -21 3 -41 3 -60v-13c-5 -11 4 -17 -11 -22c-23 -2 -50 0 -74 -4c-3 -1 -6 -1 -8 -1c-4 0 -8 1 -10 2c-3 4 -3 8 0 13c6 10 8 28 8 45c0 50 -12 75 -66 75c-5 0 -10 0 -16 -1c-19 0 -37 -8 -54 -24
c-1 -13 -2 -27 -2 -40c0 -17 1 -33 1 -45c-1 -7 -6 -13 -17 -18c-26 -2 -45 -4 -58 -4c-5 0 -9 1 -12 1c-11 1 -24 13 -24 25c0 112 25 217 45 295v4c0 22 -25 22 -54 23h-12c-23 0 -22 -3 -35 -13c-11 -14 -14 -45 -14 -74s4 -47 4 -70c0 -16 -4 -24 -13 -25
c-26 -2 -46 -3 -59 -3z" />
    <glyph glyph-name="uni00A0" unicode="&#xa0;" horiz-adv-x="500" 
 />
    <glyph glyph-name="uni040E" unicode="&#x40e;" horiz-adv-x="720" 
d="M480 933c5 7 11 10 17 10c11 0 20 -10 20 -26c0 -15 -13 -41 -41 -76c-31 -39 -60 -64 -87 -74c-22 -9 -43 -13 -63 -13c-31 0 -51 8 -62 25c-6 9 -9 18 -9 28c0 15 7 34 21 57c19 31 45 55 77 73c7 3 12 5 16 5c9 0 13 -6 14 -17c-8 -15 -19 -29 -28 -43
c-6 -9 -9 -16 -9 -23c0 -15 10 -22 30 -22c5 0 11 0 17 1c14 2 31 16 51 42c12 18 24 36 36 53zM253 -515c-11 0 -26 10 -26 27c0 2 1 4 1 6c0 13 12 17 22 23c19 12 35 26 48 47c27 50 48 133 62 248c13 116 20 184 20 208c0 13 -12 19 -37 19h-61c-45 0 -69 21 -74 63
c-12 80 -59 326 -80 400c-13 41 -29 61 -47 61c-3 0 -6 0 -9 -1c-4 2 -10 2 -15 2h-7c-10 0 -18 1 -20 12c3 25 54 12 71 22l69 13c47 0 78 -15 93 -44l80 -402c4 -9 13 -14 28 -14h2c11 0 19 6 25 17c7 69 17 178 32 329c9 66 28 106 58 121c27 15 47 22 61 22
c45 0 90 -9 136 -28v-22c-20 -16 -42 -79 -49 -112h-14c-11 23 -26 34 -45 34c-18 0 -33 -10 -45 -30c-11 -17 -22 -77 -34 -179c-25 -207 -53 -394 -82 -559c-15 -82 -42 -168 -81 -223c-14 -17 -31 -35 -55 -51c-9 -6 -18 -9 -27 -9z" />
    <glyph glyph-name="uni045E" unicode="&#x45e;" horiz-adv-x="429" 
d="M187 -18c0 24 -4 32 -28 32c-5 0 -10 -1 -13 -3c-10 -7 -25 -11 -39 -11c-18 0 -35 7 -36 26c-2 27 -11 82 -26 167c-7 36 -17 73 -28 110c-7 20 -17 39 -17 63c0 3 -1 6 -1 7s0 2 1 2c10 9 70 15 90 15c16 0 24 -2 25 -7c6 -23 14 -59 25 -110c5 -36 11 -80 18 -131
c1 -9 5 -15 12 -16c1 0 7 1 18 2c7 1 11 6 14 17l6 75c5 51 14 89 25 116c16 39 63 60 142 64h1c9 0 13 -13 13 -40c0 -21 -3 -32 -9 -35c-83 -8 -106 -44 -112 -148c-4 -67 -10 -163 -19 -290c-5 -44 -13 -92 -25 -144c-11 -53 -20 -83 -27 -92c-8 -9 -18 -14 -29 -14
c-22 0 -42 14 -42 31c0 3 1 7 2 11c19 29 32 63 40 100l10 60c2 9 9 116 9 143zM187 486c-42 0 -71 15 -71 53c0 15 7 34 21 57c19 31 45 56 78 73c6 3 11 5 15 5c9 0 13 -3 14 -14c-6 -12 -14 -25 -28 -46c-6 -9 -9 -16 -9 -23c0 -15 10 -22 30 -22c5 0 11 0 17 1
c14 2 31 16 52 42c12 18 24 36 36 53c5 7 11 10 17 10c11 0 20 -10 20 -26c0 -15 -13 -40 -40 -75c-32 -40 -62 -65 -89 -76c-22 -8 -43 -12 -63 -12z" />
    <glyph glyph-name="uni0408" unicode="&#x408;" horiz-adv-x="504" 
d="M37 33c76 0 114 -5 114 -29c0 -10 -5 -14 -5 -24c0 -13 5 -28 15 -46c12 -23 26 -36 43 -39c2 0 4 -1 7 -1c23 0 44 26 63 78c18 53 31 123 40 211c5 247 8 373 8 378c0 9 -12 29 -35 56c-3 3 -4 6 -4 10c0 9 5 15 15 20c0 0 30 -1 91 -2c5 0 34 1 87 3h2
c12 0 18 -5 18 -14c0 -7 -3 -13 -8 -20c-12 -13 -35 -35 -35 -57c-4 -111 -5 -202 -5 -272v-56c0 -89 -24 -180 -71 -272c-50 -73 -104 -110 -163 -110c-53 0 -90 19 -124 55c-21 23 -34 45 -40 67c-1 2 -7 9 -18 22c-6 8 -10 16 -10 24c0 7 4 14 15 18z" />
    <glyph glyph-name="uni0490" unicode="&#x490;" horiz-adv-x="529" 
d="M239 583c-13 -6 -19 -15 -20 -28c-2 -53 -3 -149 -3 -287c5 -143 7 -261 7 -353c0 -9 6 -17 19 -26c16 -12 22 -13 22 -28c0 -11 -6 -17 -17 -18h-8c-14 0 -45 2 -93 4c-52 -5 -83 -9 -93 -9h-3c-16 1 -24 9 -24 23c0 13 5 15 21 24c12 8 19 17 20 30c4 37 6 140 6 307
c0 82 3 176 8 283c0 9 2 25 5 49c1 9 -5 15 -18 18c-5 -1 -11 -1 -18 -1c-10 0 -21 1 -33 2c-11 6 -17 18 -17 35c0 14 21 29 34 31h66c48 0 107 0 176 -1h9c27 0 41 5 41 17s1 29 4 51s8 36 17 43c9 6 16 9 22 9s10 -3 12 -9c13 -35 30 -65 51 -89c25 -24 44 -40 57 -48
c4 -6 6 -11 6 -16c0 -19 -31 -31 -48 -31c-5 0 -9 0 -14 1c-44 9 -109 14 -194 17z" />
    <glyph glyph-name="uni0401" unicode="&#x401;" horiz-adv-x="517" 
d="M462 410c0 -21 -29 -24 -76 -24c-37 0 -54 1 -54 30c1 9 2 19 2 30c0 27 -5 57 -15 85c-15 41 -35 62 -62 62c-57 0 -85 -80 -85 -239c0 -26 2 -55 2 -86c0 -10 4 -15 11 -15c-3 0 6 5 26 15c31 16 61 24 90 24c53 0 126 -30 156 -54c20 -17 35 -47 35 -82
c0 -6 -5 -11 -12 -10c-9 2 -19 2 -30 2c-30 0 -63 -5 -93 -8c-13 -2 -19 3 -19 15c0 3 1 7 3 10c3 6 5 15 5 27c0 38 -18 57 -54 58c-41 0 -71 -11 -92 -32c-13 -13 -20 -25 -20 -34c0 -85 23 -163 40 -212c19 -52 40 -78 63 -78c3 0 5 1 7 1c17 3 31 16 43 39
c10 18 15 33 15 46c0 10 -5 14 -5 24c0 24 38 28 114 29c11 -4 15 -10 15 -18c0 -17 -24 -40 -28 -46c-6 -22 -19 -44 -40 -67c-33 -36 -71 -55 -123 -55c-59 0 -114 40 -164 120c-60 95 -89 191 -89 320c0 178 63 316 197 354c15 4 30 6 44 6c57 0 104 -33 140 -98
c15 -27 27 -60 36 -99c11 -15 17 -29 17 -40zM299 767c0 36 24 56 52 56h4c26 -2 51 -24 51 -53v-6c-5 -31 -22 -46 -51 -46h-6c-26 2 -50 22 -50 49zM120 782c6 31 23 47 51 47h4c26 -1 52 -24 52 -51c0 -3 -1 -5 -1 -8c-5 -30 -22 -45 -51 -45h-6c-27 1 -49 22 -49 50v7z
" />
    <glyph glyph-name="uni0404" unicode="&#x404;" horiz-adv-x="517" 
d="M346 190c0 37 -17 60 -54 60c-42 0 -73 -13 -92 -32c-9 -9 -20 -23 -20 -35c7 -75 19 -153 40 -210c9 -27 20 -47 32 -61c9 -12 21 -17 32 -17s22 5 31 14c16 16 33 43 33 71c0 11 -6 13 -6 21c0 14 5 19 22 23c28 6 59 9 93 9c10 -3 15 -10 15 -19c0 -8 -4 -17 -10 -23
c-7 -6 -13 -13 -18 -22c-13 -43 -46 -79 -85 -102c-21 -12 -48 -20 -76 -20c-18 0 -36 4 -53 12c-75 33 -123 112 -155 189c-29 69 -47 148 -47 240c0 124 31 222 92 291c27 29 62 50 105 62c16 4 30 6 44 6c62 0 105 -39 131 -83c19 -32 34 -70 45 -114c6 -8 17 -23 17 -37
c0 -27 -34 -27 -69 -27h-27c-21 2 -35 7 -35 23c0 9 2 20 3 37c0 52 -17 106 -44 133c-10 10 -21 14 -32 14c-21 0 -42 -14 -52 -33c-28 -47 -35 -120 -35 -197c0 -32 2 -64 3 -95c0 -9 7 -19 16 -13c22 16 49 27 89 35c8 2 16 2 24 2c25 0 50 -6 71 -13
c59 -18 118 -46 118 -121c0 -10 -4 -12 -12 -12c-6 0 -14 1 -24 1c-2 1 -4 1 -6 1c-23 0 -43 -4 -66 -5c-10 -1 -20 -3 -29 -3s-17 5 -17 14c0 3 1 7 3 11c3 6 5 15 5 25z" />
    <glyph glyph-name="uni00AB" unicode="&#xab;" horiz-adv-x="476" 
d="M112 187c38 -43 76 -91 128 -170c-3 -10 -14 -19 -24 -19c-80 85 -130 134 -186 183v12c56 49 106 97 186 183c10 -2 21 -9 24 -19c-52 -79 -90 -128 -128 -170zM292 187c38 -43 76 -91 128 -170c-3 -10 -14 -19 -24 -19c-80 85 -130 134 -186 183v12
c56 49 106 97 186 183c10 -2 21 -9 24 -19c-52 -79 -90 -128 -128 -170z" />
    <glyph glyph-name="uni0407" unicode="&#x407;" horiz-adv-x="298" 
d="M53 241c0 101 11 217 11 318c0 20 -26 44 -35 55c-3 4 -5 8 -5 12c0 11 13 20 26 20c26 0 53 -3 79 -3h31c21 0 36 3 56 3c14 0 20 -7 20 -15c0 -6 -3 -13 -8 -19c-10 -12 -35 -35 -35 -57c0 -85 -5 -185 -5 -272v-36c1 -7 1 -18 1 -36v-128c0 -43 1 -89 1 -128
c0 -47 6 -61 28 -84c4 -4 6 -12 6 -19c0 -5 -1 -10 -5 -11c-7 -4 -13 -6 -19 -6c-7 0 -14 2 -26 4c-20 4 -56 6 -87 6h-59c-7 0 -12 6 -12 14c0 3 1 6 3 9c11 11 23 36 26 53c0 90 8 199 8 292v28zM208 725c-30 0 -57 19 -57 49c0 29 22 56 51 56c28 0 56 -21 56 -51
c0 -17 -7 -34 -18 -44c-9 -7 -21 -10 -32 -10zM63 732c-29 0 -57 20 -57 49c0 28 23 55 51 55c29 0 56 -21 56 -52c0 -29 -19 -52 -50 -52z" />
    <glyph glyph-name="uni0406" unicode="&#x406;" horiz-adv-x="266" 
d="M150 645c21 0 36 3 56 3c14 0 20 -7 20 -15c0 -6 -3 -13 -8 -19c-10 -12 -35 -35 -35 -57c0 -85 -5 -185 -5 -272v-36c1 -7 1 -18 1 -36v-128c0 -43 1 -89 1 -128c0 -47 6 -61 28 -84c4 -4 6 -12 6 -19c0 -5 -1 -10 -5 -11c-7 -4 -13 -6 -19 -6c-7 0 -14 2 -26 4
c-20 4 -56 6 -87 6c-9 0 -17 1 -25 0c-6 -1 -11 -1 -15 -1c-9 0 -16 1 -19 1c-7 0 -12 6 -12 14c0 3 1 6 3 9c11 11 23 36 26 53c0 90 8 199 8 292v28c0 72 6 158 8 231c1 31 3 63 3 87c0 20 -26 44 -35 55c-3 4 -5 8 -5 12c0 11 13 20 26 20c26 0 53 -3 79 -3h31z" />
    <glyph glyph-name="uni0456" unicode="&#x456;" horiz-adv-x="208" 
d="M30 4c-17 4 -20 8 -20 22v13c2 44 11 97 13 140c2 46 9 103 13 148c3 33 4 49 32 55c14 4 26 1 40 4c6 1 10 2 14 2c2 0 9 1 20 3h6c14 0 25 -8 25 -21c0 -19 -16 -32 -24 -43c-6 -9 -8 -33 -11 -49c-6 -40 -9 -88 -9 -135c0 -44 2 -88 7 -126c-2 -14 -12 -15 -30 -17
h-22c-19 0 -39 1 -54 4z" />
    <glyph glyph-name="uni0491" unicode="&#x491;" horiz-adv-x="393" 
d="M202 350c-12 0 -21 1 -29 1c-21 0 -32 -4 -34 -18c-4 -38 -8 -91 -12 -159v-12c0 -29 2 -77 6 -143c0 -6 -4 -12 -13 -17c-3 -1 -19 -2 -48 -2c-28 1 -44 1 -49 2c-9 2 -13 8 -13 18c0 157 9 214 27 343c5 14 15 24 29 26c39 -1 79 -3 122 -4c19 1 33 6 40 13
c13 13 21 34 24 65c1 10 4 15 10 15c3 0 5 -1 6 -4c26 -47 54 -78 85 -112c3 -2 4 -6 4 -9c0 -5 -3 -9 -9 -10c0 0 -47 7 -146 7z" />
    <glyph glyph-name="uni0451" unicode="&#x451;" horiz-adv-x="440" 
d="M389 310c0 -11 -12 -13 -26 -13c-11 0 -23 2 -29 2c0 0 -24 -4 -39 -4c-6 0 -10 0 -11 2c-11 25 -32 37 -63 37c-81 0 -124 -59 -124 -178c0 -4 2 -9 2 -14c0 -20 4 -30 11 -30c11 0 43 16 97 48s89 48 104 48c6 0 12 -5 17 -15c4 -7 32 -42 84 -107c0 -8 -4 -12 -13 -12
c-10 0 -45 6 -55 6c-8 0 -35 -4 -43 -4c-4 0 -12 10 -25 28c-12 20 -24 29 -37 29c-9 0 -29 -7 -59 -20c-29 -13 -46 -23 -50 -30s-6 -13 -6 -20c0 -35 28 -84 85 -149c4 -5 11 -7 22 -7c15 0 32 7 51 21s31 21 38 21c10 0 15 -5 15 -15c0 -13 -19 -30 -57 -51
s-65 -31 -80 -31c-55 1 -102 31 -141 94c-38 59 -57 125 -57 196c0 66 29 124 86 174c53 47 111 71 174 71c21 0 46 -8 77 -23c35 -17 52 -35 52 -54zM271 542c0 36 24 56 52 56h4c26 -2 51 -24 51 -53v-6c-5 -31 -22 -46 -51 -46h-6c-26 2 -50 22 -50 49zM97 557
c6 31 23 47 51 47h4c26 -1 52 -24 52 -51c0 -3 -1 -5 -1 -8c-5 -30 -22 -45 -51 -45h-6c-27 1 -49 22 -49 50v7z" />
    <glyph glyph-name="uni2116" unicode="&#x2116;" horiz-adv-x="962" 
d="M77 4c-18 0 -32 -4 -49 -4h-19c-7 0 -12 8 -12 16c0 3 1 6 3 9c11 11 23 35 26 52c1 2 1 11 2 27c4 91 13 195 13 289c0 89 11 192 17 281c0 15 1 25 1 28c0 19 -25 39 -34 50c-3 4 -4 7 -4 11c0 9 8 17 15 20s22 3 33 3c18 1 41 2 60 2c29 0 50 3 73 8c5 1 11 2 17 2
c14 0 19 -7 19 -15c0 -6 -2 -13 -7 -19c-10 -12 -24 -22 -33 -36c-2 -4 -4 -10 -4 -15c0 -34 -5 -88 -9 -130v-7c0 -17 6 -35 14 -44c9 -9 29 -17 42 -23c10 -5 21 -9 33 -14c21 -10 39 -18 61 -23h7c14 0 18 11 18 26c0 69 -10 147 -10 214c0 17 -16 33 -24 44
c-6 5 -15 13 -15 22c0 2 1 4 2 6c6 11 10 14 27 14c7 1 16 1 26 1c16 0 39 1 54 1c23 3 59 11 82 13c14 0 19 -9 19 -18c0 -6 -2 -13 -7 -19c-11 -12 -33 -31 -34 -53c0 -46 5 -101 8 -151c2 -42 5 -88 8 -128c1 -16 2 -28 2 -35c0 -51 9 -109 14 -161
c6 -53 11 -109 16 -158c2 -25 15 -41 26 -56c3 -4 6 -12 6 -19c0 -5 -1 -9 -4 -11c-7 -3 -13 -4 -19 -4c-7 0 -14 1 -25 3c-22 4 -57 7 -87 7c-16 0 -51 -3 -59 -3c-7 0 -12 8 -12 16c0 3 1 6 3 9c11 11 22 35 26 52c1 2 1 11 -1 27c-5 83 -9 181 -16 263c-1 16 -2 25 -2 28
v6c0 25 -23 27 -46 34c-21 5 -75 27 -92 36c-9 6 -17 11 -23 14c-5 3 -9 4 -12 4c-10 0 -14 -9 -13 -22c-1 -18 -4 -39 -4 -58c0 -6 0 -12 1 -17v-35c0 -79 -3 -170 -5 -249v-7c0 -41 8 -53 28 -76c3 -4 5 -12 5 -19c0 -5 -1 -11 -5 -13c-5 -3 -9 -3 -14 -3h-7
c-5 0 -12 2 -23 3c-19 3 -49 4 -77 4zM550 529c0 68 43 115 85 145c37 26 91 52 144 54h3c44 0 75 -34 95 -62c21 -30 41 -76 41 -121c0 -44 -24 -82 -46 -109c-34 -43 -85 -84 -144 -99c-9 -2 -18 -3 -25 -3c-24 0 -42 9 -62 20c-55 28 -91 89 -91 175zM719 638
c-3 1 -6 1 -8 1c-25 0 -45 -20 -55 -37c-6 -10 -9 -22 -9 -34c0 -30 16 -62 26 -80c17 -28 47 -54 81 -64c3 0 5 -1 8 -1c25 0 46 24 56 41c7 10 10 23 10 35c0 34 -19 70 -32 88c-16 22 -44 48 -77 51zM737 294c42 0 72 -22 72 -61c0 -23 -11 -46 -22 -58
c-12 -13 -30 -25 -55 -25h-4c-38 3 -65 29 -65 69c0 44 29 75 74 75z" />
    <glyph glyph-name="uni0454" unicode="&#x454;" horiz-adv-x="452" 
d="M99 142v-6c0 -10 1 -24 11 -24c9 0 22 4 40 14c35 20 79 48 116 66c19 10 34 16 45 16c10 0 13 -10 17 -16c8 -16 32 -42 45 -58c10 -14 19 -24 27 -34l12 -14c0 -8 -6 -12 -13 -12c-19 0 -36 6 -55 6c-15 0 -28 -4 -43 -4c-10 0 -20 20 -25 28c-8 12 -19 28 -37 28
c-17 0 -43 -12 -58 -20c-24 -10 -57 -20 -57 -50c0 -14 7 -36 22 -62s36 -56 63 -86c5 -6 13 -8 22 -8c31 0 52 22 71 36c6 4 12 6 18 6c10 0 15 -4 15 -14c0 -8 -6 -16 -17 -24c-23 -20 -57 -38 -86 -50c-16 -6 -27 -8 -34 -8c-66 0 -113 48 -142 94
c-31 48 -56 120 -56 196s42 136 86 174c41 36 104 70 174 70c24 0 57 -14 77 -22c20 -10 52 -30 52 -54c0 -12 -12 -14 -23 -14c-10 0 -24 2 -32 2c-14 0 -28 -4 -42 -4c-4 0 -7 0 -8 2c-11 24 -30 38 -63 38c-96 0 -122 -80 -122 -178v-14z" />
    <glyph glyph-name="uni00BB" unicode="&#xbb;" horiz-adv-x="510" 
d="M384 189c-37 42 -74 91 -126 170c2 10 13 17 24 19c79 -86 129 -134 184 -183v-12c-55 -49 -105 -98 -184 -183c-11 0 -22 9 -24 19c52 79 89 127 126 170zM204 189c-37 42 -74 91 -126 170c2 10 13 17 24 19c79 -86 129 -134 184 -183v-12c-55 -49 -105 -98 -184 -183
c-11 0 -22 9 -24 19c52 79 89 127 126 170z" />
    <glyph glyph-name="uni0458" unicode="&#x458;" horiz-adv-x="252" 
d="M8 -198c30 0 59 24 59 66c0 4 -1 6 -1 10c-2 54 -3 102 -3 148c0 58 2 110 5 156c5 70 8 108 9 114c9 62 24 92 45 92h1h25l43 2h11c10 -2 15 -6 14 -16c-27 -94 -32 -210 -38 -342c-2 -86 -4 -138 -5 -152c-1 -30 -8 -58 -20 -82c-21 -38 -52 -56 -95 -56h-15l-88 10
l-44 4h-11c-25 0 -39 -6 -44 -18c-9 -24 -16 -38 -21 -42l-32 -28l-26 24c15 94 53 142 113 142c14 0 25 -2 34 -6c16 -6 36 -14 59 -22c11 -2 19 -4 25 -4zM106 566c6 32 23 48 51 48h4c26 -2 52 -24 52 -52c0 -2 -1 -4 -1 -8c-5 -30 -22 -44 -51 -44h-6
c-27 0 -49 22 -49 50v6z" />
    <glyph glyph-name="uni0405" unicode="&#x405;" horiz-adv-x="797" 
d="M45 -239c-10 0 -14 20 -14 29c0 26 18 53 33 69c40 45 101 94 164 116c53 19 113 35 179 35c50 0 84 -16 115 -28c7 -3 13 -4 16 -4c7 0 9 4 12 14c8 20 16 63 16 93c0 11 1 22 1 33c0 32 -4 65 -16 84c1 -3 1 -2 -3 2c-17 24 -47 47 -90 47c-35 0 -65 -12 -90 -21
c-60 -20 -121 -57 -190 -57c-10 0 -20 -2 -29 -2c-63 0 -102 33 -127 78c-12 23 -22 63 -22 100c0 18 3 35 8 50c25 64 71 119 119 159c57 47 134 72 225 85c22 0 43 4 63 4c59 0 107 -14 153 -27c35 -10 75 -13 110 -23c21 -6 40 -11 55 -11c14 0 23 -8 23 -16
c0 -16 -25 -23 -45 -26c-31 -5 -72 -14 -98 -26c-18 -8 -37 -18 -54 -26c-6 -3 -15 -7 -22 -7c-4 0 -6 1 -8 3c-3 3 -7 9 -12 17c-20 39 -61 60 -122 60c-5 0 -12 -1 -18 -1c-104 0 -168 -44 -202 -123c-10 -24 -15 -47 -15 -68c0 -31 11 -57 34 -76c23 -17 52 -24 83 -24
c27 0 55 5 82 14c49 16 110 40 174 40h12c41 0 76 -12 103 -26c52 -25 80 -73 80 -146c0 -7 1 -14 1 -21c0 -52 -16 -103 -31 -140c-14 -34 -20 -42 -45 -67c-23 -22 -53 -46 -84 -61c-11 -5 -21 -8 -31 -8c-3 0 -6 0 -9 1c-56 15 -134 26 -203 26h-12
c-53 0 -95 -11 -132 -26c-45 -17 -64 -33 -97 -56c-13 -8 -22 -20 -27 -33c-3 -5 -8 -9 -13 -9z" />
    <glyph glyph-name="uni0455" unicode="&#x455;" horiz-adv-x="481" 
d="M34 -8c-12 0 -13 11 -13 22c0 6 5 13 14 21c32 27 96 43 147 53c12 2 24 3 36 3c28 0 53 -6 80 -12c5 -1 11 -2 16 -2c17 0 28 8 28 28c0 22 -7 38 -13 55c-13 28 -32 46 -70 46h-7c-19 -2 -42 -12 -71 -32c-29 -19 -53 -31 -74 -36c-11 -2 -21 -4 -30 -4
c-35 0 -61 17 -68 47c-4 15 -9 29 -9 47c0 27 8 45 20 67c27 52 100 72 161 87c17 4 43 7 63 8c10 1 24 5 36 5c14 0 26 -4 29 -13c0 -2 1 -3 1 -4c0 -11 -15 -19 -21 -22c-19 -10 -38 -38 -53 -51c-6 -4 -10 -6 -15 -6c-8 0 -14 6 -20 14c-8 12 -23 19 -38 19
c-7 0 -14 -2 -21 -5c-25 -13 -33 -38 -36 -71v-7c0 -30 14 -51 41 -51c7 0 15 2 24 5c28 11 61 33 89 48c24 12 55 29 87 29c50 0 72 -36 85 -82c6 -20 9 -39 9 -57c0 -30 -8 -56 -22 -83c-11 -22 -47 -41 -70 -51c-13 -5 -25 -7 -37 -7c-53 0 -89 19 -143 19
c-37 0 -73 -7 -97 -17c-5 -2 -25 -10 -38 -10z" />
    <glyph glyph-name="uni0457" unicode="&#x457;" horiz-adv-x="224" 
d="M188 512c-30 0 -57 19 -57 49c0 29 22 56 51 56c28 0 56 -21 56 -51c0 -17 -7 -34 -18 -44c-9 -7 -21 -10 -32 -10zM43 519c-29 0 -57 20 -57 49c0 28 23 55 51 55c29 0 56 -21 56 -52c0 -29 -19 -52 -50 -52zM142 386c14 0 25 -9 25 -22c0 -16 -18 -31 -24 -42
c-6 -9 -9 -29 -13 -45c-10 -54 -13 -120 -13 -185v-19c0 -20 0 -41 2 -55c0 -17 -23 -18 -43 -18h-4c-18 0 -36 2 -48 4c-15 4 -19 7 -19 21c0 4 1 9 1 15c2 44 11 95 13 139s6 99 9 142c3 33 5 49 33 54c12 2 29 0 40 3c8 2 26 8 41 8z" />
    <glyph glyph-name="uni0410" unicode="&#x410;" horiz-adv-x="579" 
d="M312 502c0 14 -4 45 -4 55c0 25 -28 40 -40 55c-3 4 -5 8 -5 12c0 7 7 12 14 16c4 2 12 3 24 3h10c18 -1 37 -1 57 -2h31c22 0 36 3 57 3c14 0 19 -7 19 -15c0 -6 -2 -13 -7 -19c-10 -13 -35 -35 -36 -57c0 -32 6 -74 11 -113c13 -124 20 -259 34 -383
c6 -45 12 -93 15 -131c2 -27 23 -39 38 -52c5 -4 9 -12 9 -19c0 -11 -17 -16 -25 -16c-7 0 -14 2 -26 4c-21 4 -56 7 -86 7c-16 0 -51 -3 -59 -3c-9 0 -15 17 -8 25c14 20 34 34 34 68v20c-3 46 -8 108 -8 153v6c0 14 -3 26 -14 26c-4 0 -9 -1 -14 -4
c-12 -6 -26 -18 -43 -34c-43 -45 -91 -111 -119 -172c-4 -10 -9 -22 -9 -33c0 -7 1 -12 5 -17c4 -3 13 -14 13 -23c0 -7 -9 -13 -17 -13c-19 0 -33 -2 -52 -2c-23 0 -46 -4 -66 -8c-2 -1 -5 -1 -7 -1c-5 0 -10 1 -15 1c-10 0 -20 2 -22 10c-1 1 -1 2 -1 4c0 3 1 6 1 11v8
c0 5 3 16 9 33c55 149 143 270 227 390c26 39 54 76 66 126c5 26 9 54 9 81zM194 85c0 -7 6 -14 12 -14s10 6 17 12c12 15 27 34 40 49c15 19 28 26 46 42c8 8 19 18 27 23c7 6 11 15 12 26v26v18c0 19 -1 40 -15 40c-12 0 -12 -3 -22 -13c-44 -52 -85 -112 -110 -182
c-4 -10 -6 -17 -6 -21c0 -2 -1 -4 -1 -6z" />
    <glyph glyph-name="uni0411" unicode="&#x411;" horiz-adv-x="552" 
d="M255 588c-35 0 -61 -5 -61 -37v-125c0 -44 2 -92 2 -131c5 -33 15 -42 44 -59c34 -19 83 -43 120 -57c21 -7 19 -16 27 -33c1 -2 3 -8 5 -19c12 -54 27 -119 40 -173c7 -28 12 -36 25 -53c11 -12 14 -14 29 -23c6 -3 9 -10 9 -16c0 -5 -3 -10 -10 -10h-2
c-49 0 -116 2 -169 2h-54c-75 0 -158 -8 -234 -8c-19 0 -23 1 -26 12c-1 3 0 5 0 7c0 16 17 15 30 21c8 4 9 10 9 24v21c4 127 10 266 12 396c1 78 5 157 5 229c0 14 -3 13 -11 16c-3 1 -8 2 -13 1h-3c-12 0 -22 8 -22 20c0 17 6 21 14 27c3 3 8 4 14 4c124 0 262 6 372 21
c29 4 57 9 81 11h5c14 0 20 -6 20 -18s-2 -14 -13 -24c-18 -17 -44 -36 -62 -54c-18 -22 -40 -55 -51 -83c-2 -6 -6 -8 -10 -8c-26 0 -28 32 -35 54c-5 16 -13 40 -23 50s-39 15 -64 15zM190 196c0 -46 -3 -109 -3 -156c0 -12 7 -136 7 -136c-1 3 -1 2 0 -3
c5 -12 24 -15 44 -15c16 0 34 2 45 2c24 1 36 7 36 31c-2 67 -15 140 -29 195c-9 32 -10 43 -32 62c-11 9 -25 20 -38 28c-6 5 -14 9 -19 9c-7 0 -11 -4 -11 -17z" />
    <glyph glyph-name="uni0412" unicode="&#x412;" horiz-adv-x="580" 
d="M45 -162c-27 0 -45 15 -45 46c0 3 -1 7 0 10c5 10 7 21 18 30c13 10 29 21 40 34c6 6 9 12 9 19c1 3 1 18 1 45c2 153 5 332 5 484c0 10 -9 17 -16 22l-14 10c-18 13 -28 26 -28 53v8c2 19 12 33 30 40c9 5 17 2 29 1c26 -4 52 -9 83 -9c8 0 17 1 27 1
c78 8 158 24 234 34c11 1 25 3 39 3c22 0 43 -4 45 -19c1 -9 6 -13 -2 -22c-14 -15 -36 -30 -47 -50c-14 -26 -24 -72 -29 -106c-3 -15 -2 -18 -2 -25c0 -11 -13 -17 -24 -19l-24 -4c-25 -4 -57 -10 -80 -16c-25 -7 -30 -11 -42 -30c-14 -22 -26 -53 -29 -84v-2
c0 -27 22 -39 39 -48c22 -12 55 -25 84 -38c38 -18 87 -40 122 -60c47 -27 72 -67 72 -136v-17c0 -47 -25 -86 -50 -111c-13 -13 -26 -18 -43 -26c-15 -8 -33 -9 -58 -9c-79 0 -162 30 -239 30c-26 -2 -43 -15 -59 -27c-12 -8 -29 -12 -46 -12zM335 554c0 27 -19 45 -45 45
c-38 0 -67 -17 -82 -41c-5 -8 -7 -16 -7 -25c-1 -16 -1 -33 -1 -51v-99l16 13c24 18 53 43 76 64c23 19 23 21 32 46c6 14 11 31 11 48zM199 -59c4 -34 48 -34 87 -34c37 0 71 2 87 24c16 23 28 61 28 97c0 38 -12 74 -38 90s-60 27 -86 40c-31 18 -60 38 -82 64
c0 -49 0 -93 1 -133c0 -49 3 -102 3 -148z" />
    <glyph glyph-name="uni0413" unicode="&#x413;" horiz-adv-x="530" 
d="M32 572c-23 0 -32 15 -32 36c0 14 21 29 34 31c11 2 29 2 48 2h48c33 0 82 1 109 1c60 0 139 10 194 18h4h9c19 0 35 -8 43 -18c5 -5 7 -10 7 -15c0 -14 -18 -24 -30 -32c-40 -27 -65 -72 -85 -119c-3 -7 -7 -9 -12 -9c-7 0 -16 6 -22 10c-20 13 -21 62 -21 93
c0 13 -12 16 -25 16c-8 0 -16 -1 -23 -1c-23 -3 -48 4 -57 -14c-3 -6 -3 -11 -2 -16c1 -2 1 -12 0 -30c-2 -57 -4 -125 -4 -190c0 -23 1 -45 1 -67c5 -111 7 -243 7 -353c0 -29 41 -26 41 -53c0 -17 -15 -20 -32 -20c-33 0 -54 3 -86 5c-32 -2 -59 -9 -90 -9h-6
c-11 0 -24 10 -24 23c0 16 11 19 22 25c19 12 20 26 21 61c3 75 4 166 4 243v32c0 65 4 142 5 209c1 26 3 54 3 74c1 19 5 36 5 54c0 11 -9 13 -22 13h-32z" />
    <glyph glyph-name="uni0414" unicode="&#x414;" horiz-adv-x="698" 
d="M149 -315c0 -23 -12 -35 -33 -35c-20 0 -30 33 -37 50c-13 32 -22 60 -37 89c-14 24 -30 53 -44 74c-1 1 0 3 0 4v9c0 14 9 26 22 28c41 0 99 -5 140 -5h1c16 0 35 22 40 33c3 8 7 23 11 46c13 65 47 165 72 216c1 2 1 5 1 8c0 9 -3 19 -5 28s-4 20 -7 31l-8 34
c-7 27 -14 57 -23 91c-19 61 -36 119 -53 178c-2 8 -3 15 -3 21c0 22 13 34 31 48c17 12 47 25 78 25c7 0 15 0 22 -2c34 -8 52 -18 56 -51c0 -20 6 -47 9 -75c25 -197 57 -433 104 -596c2 -9 8 -17 17 -23c2 -1 9 -2 22 0c33 2 76 10 108 10c14 -1 28 -7 28 -21
c0 -17 -5 -15 -15 -28c-24 -32 -52 -63 -70 -102c-10 -21 -22 -46 -30 -67c-8 -20 -11 -30 -31 -30c-2 0 -5 1 -9 1c-20 4 -24 15 -24 36v19c2 15 3 30 4 47v5c0 23 -5 77 -21 77c-2 0 -3 0 -4 -1c-40 -8 -120 -11 -180 -11h-58c-38 0 -47 -6 -55 -46
c-6 -26 -12 -60 -16 -87c-2 -14 -3 -23 -3 -28zM258 -84c-1 -2 -1 -4 -1 -5c0 -6 5 -7 15 -7c2 0 5 0 8 1c28 0 65 3 91 3c6 0 8 2 8 6c0 5 -4 13 -5 20c-3 9 -6 20 -9 31l-12 44l-12 50c-4 16 -9 43 -13 56c-1 5 -4 7 -7 7c-4 0 -7 -3 -9 -7c0 -1 -1 -4 -4 -11
c-15 -45 -36 -106 -44 -158c-4 -19 -5 -29 -6 -30z" />
    <glyph glyph-name="uni0415" unicode="&#x415;" horiz-adv-x="507" 
d="M314 189c0 37 -17 60 -54 60c-42 0 -73 -13 -92 -32c-9 -9 -20 -23 -20 -35c7 -75 19 -153 40 -210c9 -27 20 -47 32 -61c9 -12 21 -17 32 -17s22 5 31 14c16 16 33 43 33 71c0 11 -6 13 -6 21c0 14 5 19 22 23c28 6 59 9 93 9c10 -3 15 -10 15 -19c0 -8 -4 -17 -10 -23
c-7 -6 -13 -13 -18 -22c-13 -43 -46 -79 -85 -102c-21 -12 -48 -20 -76 -20c-18 0 -36 4 -53 12c-75 33 -123 112 -155 189c-29 69 -47 148 -47 240c0 124 31 222 92 291c27 29 62 50 105 62c16 4 30 6 44 6c62 0 105 -39 131 -83c19 -32 34 -70 45 -114c6 -8 17 -23 17 -37
c0 -27 -34 -27 -69 -27h-27c-21 2 -35 7 -35 23c0 9 2 20 3 37c0 52 -17 106 -44 133c-10 10 -21 14 -32 14c-21 0 -42 -14 -52 -33c-28 -47 -35 -120 -35 -197c0 -32 2 -64 3 -95c0 -9 7 -19 16 -13c22 16 49 27 89 35c8 2 16 2 24 2c25 0 50 -6 71 -13
c59 -18 118 -46 118 -121c0 -10 -4 -12 -12 -12c-6 0 -14 1 -24 1c-2 1 -4 1 -6 1c-23 0 -43 -4 -66 -5c-10 -1 -20 -3 -29 -3s-17 5 -17 14c0 3 1 7 3 11c3 6 5 15 5 25z" />
    <glyph glyph-name="uni0416" unicode="&#x416;" horiz-adv-x="697" 
d="M261 619c0 17 25 19 48 19h14h46c9 0 20 -6 20 -11c2 -5 0 -11 -1 -16l-2 -10l-5 -130c29 44 57 82 90 120c14 16 25 26 34 30c21 18 44 29 78 29c17 0 34 -4 45 -10c7 -3 14 -8 14 -14c0 -8 -3 -20 -12 -20c-12 -9 -23 -17 -34 -27c-10 -10 -14 -23 -22 -37
c-4 -8 -9 -19 -12 -26c0 -4 -10 -9 -15 -11c-6 1 -11 5 -17 6c-11 3 -18 26 -32 26h-2c-15 0 -22 -8 -31 -17c-37 -34 -79 -83 -79 -153v-35c0 -14 0 -29 1 -45c36 -47 57 -85 96 -132c31 -38 70 -85 103 -122c16 -19 27 -31 32 -38c19 -21 33 -58 39 -91c1 -4 2 -8 2 -14
c0 -11 -2 -24 -2 -35c0 -7 -3 -10 -10 -10c-4 -1 -9 -1 -14 -1c-15 0 -34 3 -47 3c-14 0 -31 -3 -46 -3c-31 0 -34 30 -34 62v20c0 10 0 19 -1 28c0 53 -28 92 -51 124c-22 30 -42 57 -64 89c-1 -35 -1 -67 -2 -97c0 -24 -1 -50 -1 -74c0 -16 1 -33 1 -47
c2 -25 9 -50 13 -72c1 -7 2 -12 1 -16c0 -7 -5 -14 -12 -14h-31c-17 0 -33 0 -47 -4c-4 -1 -8 -3 -13 -3c-16 0 -29 6 -31 20c0 32 3 64 4 97v227c-37 -47 -68 -94 -94 -152c-11 -27 -18 -52 -19 -76s-1 -42 -1 -54s1 -22 1 -31c0 -17 -9 -31 -28 -31c-12 0 -33 5 -46 5
c-10 0 -28 -5 -42 -5c-10 0 -18 3 -19 11c-3 13 -5 15 -5 31c0 41 17 70 33 97c18 33 48 65 74 97c51 63 100 119 134 195l-2 127l-14 28c-19 38 -48 78 -78 100c-15 11 -26 17 -34 17h-1c-10 0 -17 -8 -20 -14l-7 -20c-3 -9 -9 -19 -21 -13c-13 17 -18 46 -30 64
c-5 7 -13 15 -24 22c-14 11 -29 20 -29 37c0 12 28 32 37 34c11 2 20 4 29 4c21 0 38 -6 66 -20c21 -11 38 -36 54 -54c27 -31 49 -61 75 -97v133z" />
    <glyph glyph-name="uni0417" unicode="&#x417;" horiz-adv-x="903" 
d="M387 180c0 40 27 68 46 90c25 25 62 62 108 62c12 0 24 -2 37 -8c36 -15 66 -35 97 -57c30 28 53 59 53 117c0 55 -15 100 -46 129c-24 22 -54 37 -83 54c-13 7 -31 9 -50 9c-36 0 -75 -10 -96 -20c-36 -18 -47 -58 -47 -108c0 -10 3 -17 3 -25c0 -18 -14 -36 -31 -36
c-6 0 -11 0 -14 -1h-9c-20 0 -37 4 -55 4c-23 0 -43 -8 -70 -8c-28 0 -34 13 -34 42c0 24 11 46 22 63c34 53 82 89 140 120c53 28 121 51 203 51c81 0 152 -20 205 -50c45 -27 77 -80 91 -135c4 -16 6 -29 6 -40c0 -50 -9 -101 -35 -127c-16 -16 -48 -36 -70 -49
c-16 -9 -33 -19 -51 -29c37 -41 65 -84 92 -137c13 -27 22 -55 27 -85c-4 -39 -5 -55 -25 -96c-16 -32 -58 -62 -89 -83c-42 -26 -84 -55 -138 -55c-17 0 -36 3 -56 10c-53 18 -119 47 -175 63c-18 5 -32 6 -45 6c-14 0 -28 -2 -44 -6c-17 -5 -43 -28 -43 -52
c0 -21 19 -32 29 -42c3 -5 5 -9 5 -12c0 -20 -54 -17 -81 -18c-14 -1 -30 -4 -40 -4c-23 -4 -49 -3 -76 -7h-14c-3 0 -7 0 -10 1c-8 0 -24 15 -24 27c0 11 16 16 27 18l20 8c25 13 32 26 53 47c20 18 46 39 68 55c23 16 22 14 46 25c39 21 100 41 160 41c23 0 45 -3 66 -9
c43 -14 85 -35 120 -53c16 -8 28 -12 37 -12c47 2 75 27 91 58c9 9 12 23 12 39c0 25 -8 54 -14 70c-9 28 -18 34 -36 56c-16 20 -37 44 -56 60c-9 7 -15 10 -19 9c-28 -23 -60 -49 -112 -51c-47 0 -76 36 -76 81z" />
    <glyph glyph-name="uni0418" unicode="&#x418;" horiz-adv-x="607" 
d="M458 -146c-34 -2 -51 -7 -80 -7c-14 0 -24 4 -24 18c0 15 9 21 16 30c15 19 18 34 18 64v30c-1 78 -4 181 -4 258v32c0 14 0 28 1 43c1 12 -3 24 -13 24c-3 0 -6 -1 -9 -3c-18 -13 -46 -23 -66 -34c-42 -22 -87 -38 -102 -90c-4 -85 -13 -177 -15 -265c-1 -3 -1 -5 -1 -8
c0 -24 4 -44 13 -55c8 -8 17 -15 17 -25c0 -8 -5 -16 -12 -16c-19 0 -47 3 -74 3c-6 0 -13 -1 -19 -1c-21 -1 -39 -3 -54 -6c-9 -2 -19 -3 -28 -3c-13 0 -22 4 -22 17c0 15 10 23 16 33c22 28 21 82 26 132c6 62 12 135 17 196c1 18 2 29 2 36c9 88 21 186 28 274v28
c-2 29 -30 45 -39 66c-1 3 -1 6 -1 9c0 9 7 14 19 14c22 0 37 -6 58 -9c9 0 19 -2 30 -3c23 -1 42 -2 56 -2c8 0 20 1 31 1c14 0 25 -2 25 -12c0 -20 -22 -32 -32 -44c-7 -8 -16 -18 -16 -30c0 -19 -3 -45 -5 -69c-3 -37 -6 -82 -9 -120c-1 -4 -1 -8 -1 -12
c0 -17 6 -32 22 -32c2 0 4 1 7 1c21 5 42 17 60 27c39 19 80 32 89 82c4 19 5 50 5 75v63c0 33 -42 33 -42 66c0 7 4 13 15 13h4c7 0 15 -1 22 -1c43 0 85 6 125 7c8 1 20 3 29 3c13 0 25 -10 25 -23c0 -10 -8 -14 -14 -22c-11 -10 -27 -25 -27 -45c0 -31 -3 -73 -5 -114
c-2 -49 -3 -101 -3 -152c0 -111 5 -224 13 -323c2 -43 2 -71 25 -89c5 -4 10 -8 10 -16c0 -9 -5 -18 -12 -18c-25 0 -53 4 -81 4h-14z" />
    <glyph glyph-name="uni0419" unicode="&#x419;" horiz-adv-x="607" 
d="M297 855c0 -15 21 -21 32 -21c27 0 52 28 65 45c8 10 15 20 22 30c7 12 17 32 30 32c15 0 22 -14 22 -24c0 -39 -69 -109 -84 -122c-27 -27 -65 -43 -111 -43c-38 0 -68 18 -68 57c0 47 55 95 83 116c7 6 20 15 30 15c9 0 15 -7 15 -17c-2 -7 -8 -13 -13 -21
c-6 -8 -23 -30 -23 -47zM458 -146c-34 -2 -51 -7 -80 -7c-14 0 -24 4 -24 18c0 15 9 21 16 30c15 19 18 34 18 64v30c-1 78 -4 181 -4 258v32c0 14 0 28 1 43c1 12 -3 24 -13 24c-3 0 -6 -1 -9 -3c-18 -13 -46 -23 -66 -34c-42 -22 -87 -38 -102 -90
c-4 -85 -13 -177 -15 -265c-1 -3 -1 -5 -1 -8c0 -24 4 -44 13 -55c8 -8 17 -15 17 -25c0 -8 -5 -16 -12 -16c-19 0 -47 3 -74 3c-6 0 -13 -1 -19 -1c-21 -1 -39 -3 -54 -6c-9 -2 -19 -3 -28 -3c-13 0 -22 4 -22 17c0 15 10 23 16 33c22 28 21 82 26 132c6 62 12 135 17 196
c1 18 2 29 2 36c9 88 20 186 27 274c0 15 1 24 1 28c-2 29 -30 45 -39 66c-1 3 -1 6 -1 9c0 9 7 14 19 14c22 0 37 -6 58 -9c9 0 19 -2 30 -3c23 -1 42 -2 56 -2c8 0 20 1 31 1c14 0 25 -2 25 -12c0 -20 -22 -32 -32 -44c-7 -8 -16 -18 -16 -30c0 -19 -3 -45 -5 -69
c-3 -37 -6 -82 -9 -120c-1 -4 -1 -8 -1 -12c0 -17 6 -32 22 -32c2 0 4 1 7 1c21 5 42 17 60 27c39 19 80 32 89 82c4 19 5 50 5 75v63c0 33 -42 33 -42 66c0 7 4 13 15 13h4c7 0 15 -1 22 -1c43 0 85 6 125 7c8 1 20 3 29 3c13 0 25 -10 25 -23c0 -10 -8 -14 -14 -22
c-11 -10 -27 -25 -27 -45c0 -31 -3 -73 -5 -114c-2 -49 -3 -101 -3 -152c0 -111 5 -224 13 -323c2 -43 2 -71 25 -89c5 -4 10 -8 10 -16c0 -9 -5 -18 -12 -18c-25 0 -53 4 -81 4h-14z" />
    <glyph glyph-name="uni041A" unicode="&#x41a;" horiz-adv-x="534" 
d="M192 -140c0 -9 -12 -13 -28 -13h-26c-13 0 -32 1 -44 1c-25 0 -56 -5 -81 -5c-8 0 -14 5 -14 11c0 3 1 5 3 8c7 10 25 31 27 48c4 22 3 58 5 88c2 64 6 141 10 203c2 36 3 20 4 58c1 86 3 187 3 272v30c-1 19 -16 41 -30 47c-7 4 -10 9 -10 15c0 22 32 18 55 20h10
c14 0 32 -1 43 -1c31 0 68 5 98 5h2c8 0 12 -6 12 -13c0 -6 -2 -12 -6 -16c-7 -8 -7 -8 -17 -20c-20 -23 -20 -68 -22 -113c-3 -54 -6 -118 -6 -171v-21c1 -3 3 -5 4 -5c7 0 9 6 18 17c31 36 68 84 91 130c16 33 28 62 37 90c9 29 14 42 14 60c0 8 -1 18 -2 28
c-2 6 -5 16 -5 25c0 14 19 15 32 15h9c12 -1 20 -1 25 0c19 0 43 3 62 3c9 0 12 -5 12 -13c0 -12 -9 -31 -13 -40c-24 -52 -58 -111 -90 -159c-34 -51 -86 -102 -128 -142c-11 -10 -17 -16 -18 -17c-4 -5 -5 -9 -4 -13c0 -1 5 -3 16 -7c71 -24 140 -62 170 -130
c27 -62 40 -141 48 -220c1 -22 5 -25 16 -33c6 -5 21 -7 21 -18c0 -12 -17 -13 -32 -13h-13c-11 0 -30 1 -40 1c-4 0 -9 0 -16 -1h-18c-7 -1 -13 -1 -18 -1h-13c-9 0 -20 4 -20 13c0 15 16 15 18 28c1 2 1 5 1 8c0 8 -2 20 -2 27c0 14 1 29 1 43c0 53 -10 102 -29 143
c-20 43 -41 73 -62 89s-42 25 -62 27c-7 1 -14 -9 -13 -16c0 -43 -6 -96 -7 -144c-2 -42 -5 -87 -6 -125v-12c0 -23 3 -29 14 -44c6 -9 14 -19 14 -27z" />
    <glyph glyph-name="uni041B" unicode="&#x41b;" horiz-adv-x="520" 
d="M148 -94v-14c0 -12 3 -25 6 -31c1 -2 1 -4 1 -5c0 -14 -30 -16 -55 -16h-23c-16 0 -34 -2 -50 -4h-3c-18 0 -24 12 -24 28c0 29 21 74 27 88c45 106 102 203 166 308c33 55 52 103 65 161c4 15 5 37 5 57c0 41 -4 78 -11 111c-4 22 -15 25 -27 35c-5 5 -8 10 -8 14
c0 6 5 11 13 12h14c21 0 47 -2 68 -2c24 0 57 -2 82 -2h18c9 -1 12 -5 12 -11c0 -5 -2 -11 -7 -16c-8 -9 -19 -20 -19 -35v-4c0 -22 3 -50 5 -78c11 -175 32 -337 49 -506c4 -31 7 -65 11 -88s11 -19 17 -38c0 -2 1 -3 1 -4c0 -8 -8 -12 -17 -13c-18 0 -35 -2 -52 -2
c-9 0 -16 0 -22 -1c-1 0 -31 -6 -56 -6h-9c-21 1 -24 4 -24 20c0 10 7 17 10 28c1 4 2 11 2 19c2 28 3 58 3 89c0 92 -6 182 -15 261c-2 12 -3 21 -13 21c-6 0 -10 -4 -15 -12l-12 -24c-40 -81 -79 -175 -102 -272c-5 -22 -11 -45 -11 -68z" />
    <glyph glyph-name="uni041C" unicode="&#x41c;" horiz-adv-x="876" 
d="M515 638c0 16 14 17 29 17h12c12 0 28 1 38 1c22 0 45 8 68 8c8 -1 12 -5 12 -13c0 -25 -8 -51 -8 -80c0 -4 1 -9 1 -13c3 -37 14 -88 21 -132c32 -174 76 -328 121 -486c9 -32 20 -61 26 -85c2 -4 3 -8 3 -11c0 -4 -3 -7 -9 -7c-8 0 -19 2 -27 3c-10 1 -10 -1 -20 0
c-6 1 -11 3 -15 3c-22 0 -47 -4 -68 -4c-10 0 -17 10 -19 18c-14 42 -27 105 -38 152c-11 48 -13 59 -24 106l-14 68c-6 22 -10 42 -14 60c-3 18 -5 29 -5 33c0 7 -2 10 -6 10c-2 0 -4 -1 -7 -3c-46 -150 -81 -264 -128 -404c-6 -20 -5 -30 -19 -32c-8 -1 -17 0 -25 0
c-30 0 -27 10 -38 44c-32 107 -73 240 -103 348c-6 20 -9 32 -10 34c-1 7 -4 10 -7 10c-11 0 -10 -11 -14 -33c-2 -17 -6 -37 -10 -59l-12 -68c-16 -86 -33 -171 -50 -257c-2 -11 -4 -21 -16 -19h-67c-17 0 -44 -4 -61 -4c-11 0 -12 5 -12 11v16c0 1 2 9 5 24
c38 166 82 331 117 501c10 49 25 93 25 140v5c0 24 0 53 -8 68c-3 7 -7 17 -7 26c0 13 7 20 21 20c11 -1 21 -1 30 -1h42c24 0 54 7 78 7c10 1 12 -7 12 -16c-7 -37 -23 -79 -23 -124c-3 -18 -4 -37 -4 -57c0 -77 18 -164 33 -226c16 -61 33 -122 52 -172
c7 -19 12 -31 15 -35c5 -8 15 -13 25 -13c20 0 20 14 29 37c30 86 65 189 92 279c10 34 15 72 15 110c0 57 -13 109 -25 156c-2 9 -9 26 -9 39z" />
    <glyph glyph-name="uni041D" unicode="&#x41d;" horiz-adv-x="601" 
d="M77 -154c-18 0 -32 -4 -49 -4h-19c-7 0 -12 8 -12 16c0 3 1 6 3 9c11 11 23 35 26 52c1 2 1 11 2 27c4 91 13 195 13 289c0 89 11 192 17 281c0 15 1 25 1 28c0 19 -25 39 -34 50c-3 4 -4 7 -4 11c0 9 8 17 15 20s22 3 33 3c18 1 41 2 60 2c29 0 50 3 73 8c5 1 11 2 17 2
c14 0 19 -7 19 -15c0 -6 -2 -13 -7 -19c-10 -12 -24 -22 -33 -36c-2 -4 -4 -10 -4 -15c0 -34 -5 -88 -9 -130v-7c0 -17 6 -35 14 -44c9 -9 29 -17 42 -23c10 -5 21 -9 33 -14c21 -10 39 -18 61 -23h7c14 0 18 11 18 26c0 69 -10 147 -10 214c0 17 -16 33 -24 44
c-6 5 -15 13 -15 22c0 2 1 4 2 6c6 11 10 14 27 14c7 1 16 1 26 1c16 0 39 1 54 1c23 3 59 11 82 13c14 0 19 -9 19 -18c0 -6 -2 -13 -7 -19c-11 -12 -33 -31 -34 -53c0 -46 5 -101 8 -151c2 -42 5 -88 8 -128c1 -16 2 -28 2 -35c0 -51 9 -109 14 -161
c6 -53 11 -109 16 -158c2 -25 15 -41 26 -56c3 -4 6 -12 6 -19c0 -5 -1 -9 -4 -11c-7 -3 -13 -4 -19 -4c-7 0 -14 1 -25 3c-22 4 -57 7 -87 7c-16 0 -51 -3 -59 -3c-7 0 -12 8 -12 16c0 3 1 6 3 9c11 11 22 35 26 52c1 2 1 11 -1 27c-5 83 -9 181 -16 263c-1 16 -2 25 -2 28
v6c0 25 -23 27 -46 34c-21 5 -75 27 -92 36c-9 6 -17 11 -23 14c-5 3 -9 4 -12 4c-10 0 -14 -9 -13 -22c-1 -18 -4 -39 -4 -58c0 -6 0 -12 1 -17v-35c0 -79 -3 -170 -5 -249v-7c0 -41 8 -53 28 -76c3 -4 5 -12 5 -19c0 -5 -1 -11 -5 -13c-5 -3 -9 -3 -14 -3h-7
c-5 0 -12 2 -23 3c-19 3 -49 4 -77 4z" />
    <glyph glyph-name="uni041E" unicode="&#x41e;" horiz-adv-x="527" 
d="M466 407c14 -48 21 -104 21 -160c0 -60 -8 -120 -24 -170c-27 -88 -72 -164 -135 -209c-29 -21 -58 -33 -87 -33c-24 0 -48 7 -75 24c-64 41 -110 114 -138 198c-18 50 -28 109 -28 170c0 31 3 63 8 94c18 108 58 200 116 266c29 32 67 66 116 69h8c27 0 53 -9 80 -27
c67 -46 112 -129 138 -222zM356 253v18c0 86 -6 156 -24 222c-11 38 -26 73 -52 93c-10 8 -22 12 -35 12c-16 0 -33 -7 -45 -19c-37 -35 -51 -104 -59 -169c-5 -41 -8 -86 -8 -135c0 -15 1 -30 1 -45c4 -91 12 -164 33 -235c11 -36 27 -70 51 -91c11 -9 23 -13 36 -13
c15 0 30 6 41 17c36 36 48 101 56 166c4 36 6 76 6 119c0 20 0 39 -1 60z" />
    <glyph glyph-name="uni041F" unicode="&#x41f;" horiz-adv-x="642" 
d="M532 448c0 -66 5 -130 5 -190c0 -22 3 -57 5 -87c2 -67 7 -146 10 -211c3 -42 2 -58 32 -71c7 -3 16 -10 16 -18c0 -2 -1 -4 -2 -6c-7 -12 -12 -12 -30 -13c-22 -2 -52 -5 -74 -5c-32 0 -71 -4 -101 -4c-9 0 -14 15 -9 25c3 6 13 10 19 14c15 10 18 19 18 41v17
c-3 87 -10 188 -13 275c-1 18 -1 27 -1 30v30c0 95 -7 207 -7 302c0 21 -12 22 -39 22c-35 0 -81 -6 -113 -6c-12 0 -23 -7 -25 -17c0 -104 -6 -229 -6 -335v-30c0 -84 4 -179 7 -258c2 -36 2 -45 24 -59c10 -7 27 -12 27 -28c0 -1 -1 -3 -1 -5c-1 -7 -5 -10 -12 -11
c-25 0 -57 -3 -84 -3c-25 -1 -30 -2 -55 -4l-36 -4c-16 -1 -37 -2 -51 -2c-11 1 -15 9 -15 18c0 8 4 16 11 20c5 5 15 9 22 15c18 16 21 23 21 60c0 39 1 85 1 128s-1 89 -1 128c0 16 0 26 -1 29v28c0 58 4 127 6 186c1 27 4 59 4 80v5c0 19 -13 39 -25 44
c-22 11 -59 5 -59 38v7c1 10 14 20 22 24c1 1 8 1 21 2h107c39 0 81 -1 116 -1h32c63 0 138 7 202 9c24 1 48 3 67 3c10 -1 19 -12 19 -24c0 -5 -2 -10 -6 -14c-12 -10 -28 -14 -38 -27c-3 -3 -5 -14 -6 -31c-3 -35 -4 -75 -4 -116z" />
    <glyph glyph-name="uni0420" unicode="&#x420;" horiz-adv-x="567" 
d="M286 368c-67 0 -121 -43 -124 -107c0 -64 -3 -139 -3 -206v-45c0 -27 1 -52 9 -71c6 -18 14 -34 23 -48c4 -7 8 -15 8 -22c0 -8 -5 -14 -20 -14c-47 0 -112 -8 -158 -8c-11 0 -21 6 -21 15c0 2 -1 4 0 6c11 21 20 38 29 73c4 18 5 44 5 71v47c0 99 -5 207 -5 301
c0 81 20 128 53 181c32 51 94 85 160 100c19 4 43 6 68 6c28 0 57 -2 80 -6c31 -5 39 -12 64 -24c43 -19 70 -62 72 -126v-14c0 -55 -18 -91 -55 -110c-22 -10 -41 -21 -70 -21c-45 0 -73 22 -115 22zM279 422c24 0 48 -11 71 -11c13 0 25 5 32 18c7 15 14 34 14 55
c0 7 -1 15 -3 22c-8 32 -29 64 -65 68c-10 1 -19 2 -27 2c-44 0 -73 -18 -98 -48c-28 -33 -43 -85 -43 -143c0 -8 0 -15 1 -23c0 -1 -1 -2 -1 -3c0 -3 2 -6 4 -6c1 0 3 1 4 2c9 7 17 19 26 28c20 20 47 39 85 39z" />
    <glyph glyph-name="uni0421" unicode="&#x421;" horiz-adv-x="610" 
d="M468 326c-20 0 -38 -2 -57 -2c-7 0 -14 -1 -19 -1s-9 1 -10 6c-3 13 1 20 9 26c9 6 13 13 13 28v10c-7 68 -33 126 -74 160c-15 13 -35 24 -62 24c-7 0 -14 2 -22 0c-74 -17 -97 -100 -104 -191c0 -12 -1 -24 -1 -39c0 -86 16 -198 31 -258c18 -68 38 -126 81 -158
c13 -8 26 -13 39 -13c14 0 28 5 39 15c40 36 60 102 76 161c4 17 2 21 -8 26s-24 -2 -30 8c-4 6 -5 10 -5 14c0 17 31 18 53 21c30 3 66 6 99 6h18c18 -1 35 0 35 -17c0 -18 -13 -19 -25 -27c-8 -5 -11 -9 -11 -13c0 -1 -2 -9 -7 -21c-11 -36 -31 -74 -50 -108
c-25 -44 -59 -83 -100 -110c-23 -16 -51 -26 -81 -26c-19 0 -38 4 -57 12c-82 33 -141 111 -182 189c-35 68 -56 140 -56 238v25c7 180 79 309 241 335c12 2 23 3 33 3c65 0 111 -33 144 -69c47 -50 78 -113 99 -189c0 -14 14 -23 27 -28c13 -4 20 -11 20 -21
c0 -15 -11 -16 -29 -16h-67z" />
    <glyph glyph-name="uni0422" unicode="&#x422;" horiz-adv-x="703" 
d="M-3 618c0 18 8 32 27 32h118c51 -2 96 -4 148 -4c83 0 159 7 240 9c18 -1 35 -1 50 -1h38c9 0 16 1 23 1c14 0 23 -3 23 -18c0 -20 -19 -41 -30 -56c-8 -11 -17 -23 -27 -36c-11 -22 -24 -40 -39 -58c-9 -9 -11 -13 -22 -13c-17 0 -19 15 -22 35c-7 41 -12 101 -58 101
h-22c-12 0 -28 -1 -34 -5c-6 -6 -11 -14 -11 -26v-34c0 -44 -1 -97 -1 -146v-170c0 -48 5 -109 6 -162c1 -47 3 -97 6 -138c2 -28 3 -32 10 -44c6 -8 16 -10 15 -25c0 -7 -9 -15 -18 -15h-149c-8 0 -18 9 -14 20c4 9 5 12 14 20c5 5 9 11 10 16c0 21 1 52 1 82v202
c0 17 0 26 -1 29v170c0 60 3 128 3 181v6c0 30 -14 37 -47 39c-10 1 -18 1 -25 1c-59 0 -70 -60 -70 -119c0 -13 -4 -18 -14 -18c-2 0 -5 3 -10 8c-10 12 -23 27 -33 40c-11 16 -14 19 -29 31c-14 11 -29 25 -42 36c-8 8 -14 18 -14 29z" />
    <glyph glyph-name="uni0423" unicode="&#x423;" horiz-adv-x="720" 
d="M253 -517c-11 0 -26 10 -26 27c0 2 1 4 1 6c0 13 12 17 22 23c19 12 35 26 48 47c27 50 48 133 62 248c13 116 20 184 20 208c0 13 -12 19 -37 19h-61c-45 0 -69 21 -74 63c-12 80 -59 326 -80 400c-13 41 -29 61 -47 61c-3 0 -6 0 -9 -1c-4 2 -10 2 -15 2h-7
c-10 0 -18 1 -20 12c3 25 54 12 71 22l69 13c47 0 78 -15 93 -44l80 -402c4 -9 13 -14 28 -14h2c11 0 19 6 25 17c7 69 17 178 32 329c9 66 28 106 58 121c27 15 47 22 61 22c45 0 90 -9 136 -28v-22c-20 -16 -42 -79 -49 -112h-14c-11 23 -26 34 -45 34
c-18 0 -33 -10 -45 -30c-11 -17 -22 -77 -34 -179c-25 -207 -53 -394 -82 -559c-15 -82 -42 -168 -81 -223c-14 -17 -31 -35 -55 -51c-9 -6 -18 -9 -27 -9z" />
    <glyph glyph-name="uni0424" unicode="&#x424;" horiz-adv-x="830" 
d="M381 -335c-21 0 -44 -7 -62 -7h-4c-10 2 -14 4 -12 14c0 2 1 5 4 9c23 38 30 100 30 162v6c0 54 -1 76 -48 92c-15 5 -36 10 -64 16c-81 17 -160 50 -198 111c-16 24 -24 64 -24 100c0 37 11 65 30 92c53 77 133 120 237 144c23 5 37 14 43 21c12 13 15 21 15 38
c0 11 -1 25 -3 47c-2 23 -13 49 -22 69c-8 19 -19 42 -27 59c-4 8 -5 14 -5 19c0 12 10 16 30 16c24 0 56 -3 80 -3c13 0 32 1 48 1h50c10 0 15 -3 15 -10c0 -6 -3 -14 -10 -24c-16 -28 -30 -72 -30 -115c0 -12 -1 -24 -1 -35c0 -10 1 -20 4 -30c3 -14 7 -30 22 -38
c26 -13 63 -19 93 -29c70 -19 132 -48 174 -98c24 -28 43 -69 43 -113c0 -50 -23 -86 -54 -112c-32 -26 -54 -43 -89 -62c-42 -23 -96 -44 -145 -60c-21 -6 -32 -11 -47 -23c-8 -7 -12 -15 -12 -24v-51c0 -50 6 -120 26 -152c4 -7 11 -17 11 -24c0 -6 -4 -10 -16 -10
c-22 0 -54 4 -82 4zM450 171c0 -45 -2 -96 -2 -140v-24c1 -15 -1 -18 11 -20h2c6 0 15 2 29 6c15 6 34 14 56 25c28 16 58 48 75 79c13 24 20 49 20 76c0 22 -4 44 -15 67c-26 55 -87 99 -140 124c-14 7 -22 10 -25 10c-4 1 -6 1 -8 1c-4 0 -5 -2 -7 -9c0 -59 4 -135 4 -195
zM334 -6c0 45 -3 109 -3 154v112c0 29 0 62 1 98c-3 10 -8 14 -14 14c-8 0 -19 -6 -30 -13c-31 -20 -61 -51 -85 -82s-34 -65 -41 -108c-1 -6 -1 -12 -1 -18c0 -13 1 -29 5 -47c8 -43 40 -75 70 -95c15 -11 30 -19 45 -24c12 -5 21 -7 27 -7h2c15 1 26 4 24 16z" />
    <glyph glyph-name="uni0425" unicode="&#x425;" horiz-adv-x="629" 
d="M-50 -255c-16 0 -45 13 -45 30c0 5 2 10 6 16c1 1 5 9 14 25c94 170 172 316 269 499c5 5 7 13 7 21c0 11 -3 24 -5 36c-17 79 -49 176 -90 231c-3 4 -4 4 -4 4c1 -3 1 -2 -2 1c-4 7 -8 9 -19 9c-19 0 -43 1 -43 19c0 9 3 16 7 21c7 6 22 4 33 6c5 0 16 -3 32 -6
c26 -5 71 -8 98 -8c14 0 34 0 40 -8c7 -11 6 -17 11 -35c6 -23 14 -52 19 -75c4 -11 5 -19 5 -22c2 -10 11 -11 14 -3c8 16 30 44 44 63c11 15 23 29 33 42c21 24 32 32 67 32c25 0 54 -9 79 -12h6c20 0 28 12 42 17c11 4 20 2 20 -7c0 -13 -15 -24 -23 -33
c-25 -26 -49 -51 -71 -80c-7 -12 -17 -30 -32 -30c-11 0 -18 14 -24 22s-22 26 -37 26c-4 0 -8 -2 -11 -5c-7 -5 -13 -16 -20 -25c-17 -27 -40 -58 -47 -95c-3 -14 -4 -31 -4 -49v-11c0 -3 3 -15 9 -37c29 -116 66 -253 96 -368c9 -34 6 -30 14 -50c4 -13 11 -20 24 -28
c8 -4 20 -9 20 -19c0 -1 -1 -2 -1 -3c-1 -5 -3 -7 -6 -8h-32c-16 0 -37 -1 -53 -1c-24 0 -50 -3 -74 -3h-12c-9 2 -14 2 -12 15c3 13 16 17 16 32c0 9 -1 13 -6 33c-20 82 -43 180 -64 260c-5 19 -5 34 -16 34c-9 0 -16 -19 -26 -38c-66 -118 -143 -262 -206 -382
c-13 -22 -19 -35 -20 -37c-5 -8 -9 -16 -20 -16z" />
    <glyph glyph-name="uni0426" unicode="&#x426;" horiz-adv-x="744" 
d="M367 639c0 9 12 12 19 14c36 0 90 3 128 5c16 2 26 4 30 5h5c12 0 16 -9 16 -21c0 -19 -20 -25 -26 -38c-1 -3 -3 -5 -4 -7v-71c0 -215 0 -391 7 -600c1 -20 1 -31 2 -32c16 1 34 3 54 7l50 10c4 1 8 1 11 1c20 0 36 -8 45 -18c4 -5 6 -10 6 -14c0 -10 -9 -18 -17 -25
c-22 -19 -46 -40 -62 -67c-18 -30 -26 -66 -37 -102c-3 -11 -11 -27 -22 -27c-2 0 -3 0 -5 1c-15 6 -20 10 -25 26c-5 14 -7 19 -7 33v13c2 30 6 69 6 100c0 13 -11 15 -24 15c-8 0 -17 -1 -24 -1c-44 1 -86 1 -126 1h-103c-27 0 -54 3 -78 3h-36c-40 0 -80 -6 -117 -6h-4
c-15 0 -29 11 -29 26v6c0 20 41 13 58 17c9 2 11 5 11 16c0 4 -1 10 -1 18v5c1 21 1 47 1 80c0 72 1 161 1 237c1 100 1 214 1 341c-8 6 -18 15 -27 18c-8 3 -14 4 -13 18s7 16 16 21c2 1 11 3 25 3c39 3 93 5 132 5c17 -3 36 -6 36 -25c0 -13 -12 -18 -18 -25
c-7 -8 -18 -7 -21 -18c0 -48 -5 -109 -5 -161v-41c0 -31 2 -15 2 -59c1 -14 1 -30 1 -45c0 -98 -4 -206 -4 -304c0 -16 0 -32 1 -47c0 -23 0 -36 1 -38c3 -3 15 -6 36 -6c16 -1 32 -2 47 -2c40 0 79 2 123 4c0 87 0 166 1 237c0 54 1 116 1 167c0 32 -1 61 -1 85
c0 69 -7 151 -7 219c-1 7 -11 14 -16 18s-14 15 -14 25z" />
    <glyph glyph-name="uni0427" unicode="&#x427;" horiz-adv-x="505" 
d="M426 208c0 -48 -27 -77 -62 -87c-6 0 -9 -1 -10 -2c-8 -51 -12 -94 -12 -128c0 -55 5 -85 25 -109c3 -4 15 -17 15 -25c0 -2 -1 -4 -2 -4c-9 -5 -8 -6 -24 -6h-79c-23 0 -54 -3 -79 -3h-17c-6 1 -9 4 -9 9c0 9 10 22 13 28l8 14c12 22 11 32 25 77c10 33 21 85 32 154
c-22 15 -52 39 -52 77c0 46 34 75 69 86c6 42 11 77 16 115c2 13 5 21 5 27c0 8 -7 10 -15 10s-18 -3 -24 -4c-13 -4 -30 -7 -46 -7c-110 0 -164 60 -191 144c-6 19 -12 40 -12 58c1 9 8 13 17 13c8 0 21 -1 30 -1h36c19 0 42 2 61 2h15c11 0 16 -3 16 -8
c0 -17 -9 -26 -17 -39c-5 -7 -8 -24 -8 -41c0 -11 1 -22 4 -30c12 -28 39 -52 78 -52c47 3 61 35 78 67c11 19 14 43 17 71c1 15 -6 16 -6 27c0 7 3 9 9 9c14 0 45 -2 63 -2c23 0 42 1 60 3h3c7 0 10 -3 10 -9c0 -11 -12 -31 -20 -45c-39 -77 -60 -207 -73 -315
c27 -12 53 -36 53 -74z" />
    <glyph glyph-name="uni0428" unicode="&#x428;" horiz-adv-x="904" 
d="M842 -129c-88 0 -186 -17 -274 -17h-46c-49 0 -104 1 -152 1h-40c-24 -2 -24 -1 -48 -3c-25 -1 -55 -5 -77 -5h-160h-4c-19 0 -41 1 -41 21c0 13 5 19 12 26l8 8c7 7 8 23 8 40c0 7 -1 14 -1 21c0 2 0 4 1 7v48c0 29 -1 61 -1 88c0 35 -2 65 -2 102c0 4 0 9 1 13
c1 114 8 231 14 337c2 17 2 27 3 31c1 3 1 6 1 9c0 19 -12 23 -29 29c-7 2 -11 9 -11 17c0 22 24 23 47 23c27 0 42 -4 65 -4c17 0 34 3 52 3c23 0 45 -5 45 -26c0 -16 -18 -20 -29 -27c-6 -4 -9 -12 -10 -24c-6 -55 -10 -133 -13 -192c-1 -26 -2 -45 -2 -57
c0 -60 5 -131 5 -190c1 -7 1 -16 1 -28v-88c0 -28 1 -57 1 -82c1 -23 3 -34 12 -48c10 -14 17 -15 35 -15h88c26 0 48 0 52 21c1 2 1 10 1 23v51c0 46 -1 99 -1 147c-1 62 -2 132 -3 209c1 43 1 83 2 119c0 39 2 81 2 118v17c-2 24 -31 21 -31 46c0 19 14 21 34 21
c22 0 41 2 64 3c25 0 50 7 75 7c10 0 17 -2 17 -11c0 -17 -15 -22 -21 -32c-10 -18 -8 -33 -10 -66c-2 -61 -6 -142 -6 -205c0 -59 7 -119 7 -177c0 -61 -3 -145 -5 -206c0 -12 -1 -20 -1 -27c0 -17 2 -25 5 -42c2 -12 26 -14 45 -14c24 0 49 3 71 3h18c27 0 60 1 75 11
c3 2 4 11 4 29c0 100 -11 213 -19 310c-1 22 -2 38 -2 48c0 101 -9 209 -9 308v6c0 16 -1 19 -17 24c-10 3 -15 8 -15 13c0 16 24 19 43 19c20 0 44 -3 59 -3c22 0 49 6 74 6c13 0 28 -1 28 -12c0 -6 -5 -13 -11 -16c-10 -6 -21 -20 -21 -35v-226c0 -32 0 -70 3 -94
c5 -26 5 -59 8 -88c5 -49 7 -91 10 -145v-47c0 -25 4 -53 4 -74c2 -16 35 -17 35 -34c0 -11 -12 -23 -23 -23z" />
    <glyph glyph-name="uni0429" unicode="&#x429;" horiz-adv-x="941" 
d="M153 633c14 0 27 -5 27 -19c0 -12 -19 -18 -19 -31c0 -198 -6 -416 -6 -616v-34c0 -16 6 -54 21 -54h2c18 4 44 3 65 5c9 1 15 1 20 1c14 0 34 -1 49 -1c17 0 38 1 47 7c1 1 1 8 1 22c1 14 1 32 1 54c0 65 -1 143 -3 207c0 18 0 30 -1 36c0 59 -4 126 -4 189
c-1 49 -1 102 -2 161v7c0 17 -8 31 -19 38c-5 4 -7 7 -7 11c0 7 10 14 21 14c9 0 24 1 36 1s28 1 39 1c28 0 58 7 86 7c9 -1 17 -6 17 -12c0 -3 -1 -6 -6 -10c-14 -11 -25 -19 -25 -44c0 -30 1 -69 1 -110v-457c0 -44 -1 -83 -1 -115c5 -7 19 -9 34 -9c21 0 46 4 60 4
c29 0 68 3 95 6c10 1 18 3 21 4c1 3 2 15 3 36c1 27 1 56 1 85c0 96 -4 198 -6 287c-2 86 -11 191 -11 284c0 13 -15 30 -23 33c-3 2 -5 9 -5 14c0 7 5 11 13 11h21c22 0 41 2 64 2h91c10 0 17 -4 20 -11c3 -8 2 -14 -3 -17c-11 -8 -28 -17 -30 -36c-1 -3 -1 -11 -1 -24v-76
c0 -61 0 -126 4 -182c8 -116 4 -254 12 -367c3 -34 4 -46 29 -51c8 -2 19 -10 19 -17c0 -2 0 -3 -1 -4c-6 -11 -14 -12 -29 -12h-17c-32 0 -74 2 -106 2c-4 1 -6 1 -9 1c-49 0 -85 -8 -135 -8c-7 -1 -15 -1 -22 -1c-30 0 -60 5 -88 7c1 -27 3 -49 3 -75v-24
c0 -31 18 -46 39 -55c8 -3 19 -10 19 -21c0 -13 -10 -20 -27 -20c-22 0 -43 3 -64 3c-11 0 -21 -1 -32 -3c-24 -5 -46 -8 -76 -8c-20 0 -41 4 -41 21c0 2 0 3 1 5c3 15 6 16 22 23c22 10 29 28 29 60c0 9 -7 18 -8 27v70c-54 -4 -112 -6 -166 -10c-28 0 -71 -8 -99 -13
c-22 -3 -46 -7 -72 -12c-15 0 -22 8 -22 18c0 9 6 20 12 26c11 11 14 26 14 46c0 15 -2 33 -2 54c0 53 -1 116 -1 175c0 57 -1 119 -1 172v37c0 72 8 155 8 227c0 12 -11 17 -18 22c-2 2 -2 4 -2 6c0 18 13 22 29 22h21c25 0 57 3 74 6c6 1 13 2 19 2z" />
    <glyph glyph-name="uni042A" unicode="&#x42a;" horiz-adv-x="556" 
d="M252 580c0 29 -32 28 -62 31c-9 0 -12 -1 -16 -6c-3 -2 -7 -5 -13 -10c-20 -16 -33 -54 -41 -81c-5 -19 -3 -38 -23 -38c-7 0 -17 20 -21 27c-12 18 -19 37 -34 52c-11 11 -24 25 -34 36c-6 7 -8 12 -8 20c0 22 11 38 32 38h114c43 -1 84 -2 121 -3c31 0 66 -1 97 -1
c24 0 49 1 70 1h4c12 0 18 -7 18 -19v-5c0 -14 -15 -26 -29 -26c-3 0 -6 1 -8 1c-23 0 -26 -30 -32 -52c-20 -77 -51 -160 -67 -239c-1 -8 -2 -13 -2 -18c0 -9 3 -14 11 -25c10 -14 37 -32 55 -43c17 -12 42 -28 60 -35c22 -8 23 -36 23 -67v-15c0 -48 2 -104 3 -150
c2 -43 13 -62 39 -79c5 -3 7 -8 7 -13c0 -7 -6 -14 -14 -14h-232c-79 0 -165 -9 -244 -9c-20 0 -26 2 -26 17c0 21 22 21 39 27c10 3 10 14 16 29c69 191 134 416 187 626c4 16 10 31 10 43zM210 -101c0 -16 15 -18 32 -18h19c27 0 57 5 66 9c14 7 15 7 18 26
c8 49 13 104 13 158c0 23 -1 46 -3 69c-2 27 -15 52 -29 68c-6 6 -13 10 -19 10c-7 0 -13 -5 -16 -18c-7 -37 -29 -81 -37 -117c-9 -58 -45 -109 -45 -180c0 -2 0 -5 1 -7z" />
    <glyph glyph-name="uni042B" unicode="&#x42b;" horiz-adv-x="809" 
d="M581 649c25 0 52 -3 80 -3h15c26 0 48 3 73 3c14 0 19 -7 19 -15c0 -6 -3 -14 -8 -20c-10 -13 -34 -35 -35 -57c0 -85 -5 -184 -5 -271v-35c1 -7 1 -18 1 -36v-129c0 -43 1 -90 1 -129c0 -48 6 -62 28 -86c4 -3 6 -11 6 -18c0 -5 -1 -10 -5 -12c-7 -3 -12 -5 -19 -5
c-6 0 -13 2 -25 4c-21 4 -57 7 -88 7c-9 0 -18 1 -25 0c-18 -1 -30 -3 -35 -3c-7 0 -12 8 -12 16c0 3 1 6 3 9c11 11 23 36 27 54c0 47 4 106 5 159c0 45 2 93 2 134v29c0 90 6 197 10 287c1 16 1 26 1 29c0 20 -26 44 -35 55c-3 4 -4 8 -4 11c0 14 10 22 25 22zM58 573
c0 35 -51 0 -51 40c0 8 3 16 6 19c7 5 11 12 24 12c26 0 62 -3 89 -3c33 0 71 2 101 5h4c14 0 22 -9 22 -24c0 -2 1 -3 1 -5c0 -12 -12 -21 -25 -21c-1 0 -2 0 -3 1h-4c-15 0 -20 -14 -20 -30v-188c0 -26 1 -53 1 -73c5 -35 15 -45 45 -62c28 -15 65 -33 94 -46
c15 -7 25 -11 31 -13c22 -7 21 -16 28 -34l5 -20c14 -55 27 -123 42 -178c10 -43 24 -61 56 -79c7 -4 10 -9 10 -15c0 -8 -5 -13 -13 -12h-232c-78 0 -164 -9 -243 -9c-22 0 -26 6 -26 22c0 7 0 12 8 15c9 3 28 4 30 15c1 3 2 16 2 39c8 166 10 349 16 518c1 46 2 91 2 126z
M197 203c0 -48 -4 -112 -4 -161c0 -11 8 -142 8 -142s-1 2 1 -3c4 -14 33 -15 53 -15c25 0 65 1 74 17c1 1 1 4 1 9v8c-1 49 -11 105 -19 147c-8 44 -12 84 -33 110c-13 13 -34 28 -50 39c-6 5 -13 9 -20 9c-6 0 -11 -5 -11 -18z" />
    <glyph glyph-name="uni042C" unicode="&#x42c;" horiz-adv-x="554" 
d="M58 573c0 35 -51 0 -51 40c0 8 3 16 6 19c7 5 11 12 24 12c26 0 62 -3 89 -3c33 0 71 2 101 5h4c14 0 22 -9 22 -24c0 -2 1 -3 1 -5c0 -12 -12 -21 -25 -21c-1 0 -2 0 -3 1h-4c-15 0 -20 -14 -20 -30v-188c0 -26 1 -53 1 -73c5 -35 15 -45 45 -62c28 -15 65 -33 94 -46
c15 -7 25 -11 31 -13c22 -7 21 -16 28 -34l5 -20c14 -55 27 -123 42 -178c10 -43 24 -61 56 -79c7 -4 10 -9 10 -15c0 -8 -5 -13 -13 -12h-232c-78 0 -164 -9 -243 -9c-22 0 -26 6 -26 22c0 7 0 12 8 15c9 3 28 4 30 15c1 3 2 16 2 39c8 166 10 349 16 518c1 46 2 91 2 126z
M197 203c0 -48 -4 -112 -4 -161c0 -11 8 -142 8 -142s-1 2 1 -3c4 -14 33 -15 53 -15c25 0 65 1 74 17c1 1 1 4 1 9v8c-1 49 -11 105 -19 147c-8 44 -12 84 -33 110c-13 13 -34 28 -50 39c-6 5 -13 9 -20 9c-6 0 -11 -5 -11 -18z" />
    <glyph glyph-name="uni042D" unicode="&#x42d;" horiz-adv-x="622" 
d="M52 -19c0 28 12 44 33 58c13 0 32 -18 57 -52c24 -36 48 -53 71 -53c15 0 33 9 49 14c57 35 95 95 116 182c3 12 4 23 4 33c0 47 -28 79 -74 80h-26c-14 0 -19 0 -17 -1c-45 -5 -87 -39 -91 -79l-6 -8h-152c58 107 150 175 275 175h2c44 0 79 -12 105 -37
c8 -13 16 -19 23 -19c25 0 31 69 31 104v4c0 80 -27 172 -94 172c-65 0 -122 -43 -169 -130l-146 39c20 41 56 83 109 126c51 42 97 63 139 63h4c69 0 122 -5 162 -31c51 -34 80 -76 98 -154c13 -44 18 -85 18 -125s-5 -79 -13 -120c-31 -109 -73 -200 -128 -273
c-54 -74 -118 -113 -193 -116c-43 3 -86 23 -128 58c-39 30 -59 61 -59 90z" />
    <glyph glyph-name="uni042E" unicode="&#x42e;" horiz-adv-x="815" 
d="M43 243c0 101 11 217 11 318c0 20 -26 44 -35 55c-3 4 -5 8 -5 12c0 11 13 20 26 20c26 0 53 -3 79 -3h31c21 0 36 3 56 3c14 0 20 -7 20 -15c0 -6 -3 -13 -8 -19c-10 -12 -35 -35 -35 -57c0 -81 -6 -184 -6 -268c0 -15 18 -17 36 -17h30c23 0 50 1 50 18
c9 97 44 187 87 251c21 34 45 60 71 80c28 22 57 33 86 33c26 0 53 -9 81 -27c66 -46 110 -128 136 -220c14 -48 21 -104 21 -160c0 -60 -8 -120 -24 -170c-27 -86 -71 -162 -133 -207c-30 -21 -59 -33 -89 -33c-23 0 -47 6 -73 22c-64 37 -110 107 -138 187
c-17 45 -26 96 -28 152c0 14 -23 17 -43 17h-33c-19 0 -34 -2 -36 -19c0 -46 1 -109 1 -157v-42c0 -27 0 -54 2 -74c2 -23 15 -38 27 -50c4 -4 6 -12 6 -19c0 -5 -1 -10 -5 -11c-7 -4 -13 -6 -19 -6c-7 0 -14 2 -26 4c-20 4 -56 6 -87 6h-40h-19c-7 0 -12 6 -12 14
c0 3 1 6 3 9c11 11 23 36 26 53c0 90 8 199 8 292v28zM508 -95c10 -9 22 -13 34 -13c15 0 31 7 42 18c35 35 47 102 55 165c4 36 6 76 6 119c0 19 0 38 -1 59c0 93 -6 168 -24 239c-10 38 -25 72 -50 92c-11 8 -23 12 -36 12c-16 0 -33 -7 -45 -19
c-36 -35 -51 -104 -59 -168c-5 -40 -7 -84 -7 -130c0 -102 12 -210 33 -282c11 -37 27 -71 52 -92z" />
    <glyph glyph-name="uni042F" unicode="&#x42f;" horiz-adv-x="654" 
d="M584 609c-9 -88 -22 -294 -22 -423c0 -54 1 -109 4 -165v-84c2 -39 6 -60 14 -64c8 -2 10 -8 8 -16c-4 -8 -10 -10 -20 -10l-184 -7c-11 7 -12 15 -3 26c15 7 23 20 25 39c3 37 5 61 6 100c0 17 0 30 1 37c0 76 2 143 6 202h-2c-47 0 -91 -41 -133 -122
c-25 -51 -52 -112 -68 -171c-6 -20 -10 -39 -12 -56v-10c0 -10 24 -16 24 -26c0 -2 -2 -5 -8 -9c-3 -1 -19 -3 -48 -3h-77h-33h-18c-8 1 -12 4 -12 13v6c7 47 33 100 79 159l147 186c37 42 55 66 55 73c0 5 -3 8 -8 11c-63 25 -105 86 -124 181c-5 23 -8 43 -8 59
c0 5 1 10 1 14c5 64 29 97 72 99c113 2 206 5 322 5c18 0 41 0 41 -11c0 -3 -1 -7 -6 -12c-11 -6 -16 -6 -19 -21zM438 570c1 4 2 7 2 10c0 14 -15 21 -44 21c-17 0 -35 -11 -52 -32c-18 -22 -27 -48 -27 -79c0 -36 12 -69 36 -99s47 -45 68 -45c6 0 10 31 12 93z" />
    <glyph glyph-name="uni0430" unicode="&#x430;" horiz-adv-x="345" 
d="M178 380c11 0 31 6 46 6c13 0 22 -4 22 -16c0 -78 6 -165 21 -229c7 -30 16 -62 24 -88c4 -12 7 -19 9 -22s3 -6 3 -8c0 -8 -7 -15 -12 -17c-10 -6 -29 -4 -45 -6c-5 -1 -10 -1 -15 -1h-29c-21 0 -18 90 -27 107c-2 9 -10 14 -18 14c-6 0 -12 -3 -17 -9
c-16 -19 -29 -52 -40 -79c-10 -28 -29 -41 -64 -41c-24 0 -35 21 -35 44c0 24 5 33 18 62c21 45 57 88 81 134c9 16 20 37 25 52c2 5 3 11 3 17c0 20 -9 46 -12 59c0 2 -1 4 -1 5c0 14 19 15 36 15c8 0 20 1 27 1zM161 175c0 19 -1 58 -20 58c-8 0 -12 -9 -20 -18
c-11 -16 -24 -38 -33 -57c-4 -8 -8 -21 -8 -32c0 -9 3 -17 14 -17c2 0 5 1 9 2c23 6 41 29 52 48c4 7 6 12 6 16z" />
    <glyph glyph-name="uni0431" unicode="&#x431;" horiz-adv-x="392" 
d="M123 185c1 -4 -4 -17 8 -17c10 0 25 10 31 14c11 5 28 16 43 16h3c12 -2 24 -19 32 -29c25 -37 46 -83 53 -139c1 -5 1 -9 1 -10c0 -14 -7 -15 -16 -18c-1 -1 -8 0 -20 0c-18 0 -18 -1 -40 -1c-20 0 -53 1 -71 1c-28 0 -65 -3 -94 -3h-19c-11 1 -24 12 -24 25v18
c0 104 13 218 35 304c5 19 7 27 26 27h89c54 0 111 0 151 10c10 2 19 4 27 4c10 0 14 -7 14 -15c0 -5 -2 -11 -4 -16c-8 -14 -33 -37 -42 -50s-17 -31 -27 -43c-3 -4 -7 -6 -10 -6h-2c-13 0 -30 34 -30 47c-3 30 -10 43 -44 43c-26 0 -44 -3 -47 -19
c-8 -29 -16 -76 -20 -112c-2 -13 -3 -24 -3 -31zM134 120c-18 0 -22 -30 -22 -53c0 -18 5 -34 20 -34c26 0 42 5 42 30c0 32 -8 57 -40 57z" />
    <glyph glyph-name="uni0432" unicode="&#x432;" horiz-adv-x="367" 
d="M80 375c31 0 65 -3 99 -3c32 3 60 7 91 9c3 1 6 1 8 1c14 0 20 -4 20 -14c0 -24 -27 -36 -42 -47l-12 -9c-12 -12 -26 -29 -35 -44c-3 -5 -5 -10 -5 -13c0 -5 3 -13 7 -13c13 4 24 7 37 11c3 1 6 1 9 1c9 0 15 -4 21 -10c12 -24 19 -60 27 -91c7 -27 14 -58 19 -86
c2 -12 3 -21 3 -28c-1 -24 -6 -35 -27 -38h-62c-21 0 -53 -1 -71 -1c-38 0 -83 -12 -120 -12c-16 2 -18 1 -28 13c-6 9 -9 22 -9 37c4 71 11 135 20 205c4 35 10 68 17 99c3 14 7 34 21 34c1 0 1 0 2 -1h10zM157 305c0 -10 3 -25 12 -25s20 18 25 25c6 9 8 17 8 25
c0 5 -1 10 -2 16c0 3 -3 4 -7 4c-27 0 -36 -16 -36 -45zM161 211c-10 -5 -14 -6 -19 -19c-9 -25 -14 -61 -16 -93c-1 -9 -2 -19 -2 -28c0 -15 3 -26 16 -26h2c11 1 23 1 38 1h1c21 0 28 0 31 14c3 10 4 23 4 35v14c0 28 -13 66 -22 87c-5 9 -10 14 -15 14c-6 0 -11 2 -14 2
c-2 0 -3 0 -4 -1z" />
    <glyph glyph-name="uni0433" unicode="&#x433;" horiz-adv-x="393" 
d="M133 19c0 -16 -16 -19 -35 -19h-26c-15 1 -37 2 -49 2c-7 2 -13 10 -13 18c0 57 1 137 8 190c1 11 3 24 4 40l6 46c4 40 2 88 38 93c2 1 9 0 22 0c26 -1 58 -3 86 -3h28c36 0 85 5 121 7c7 0 13 1 18 1c10 0 16 -2 16 -12c0 -7 -6 -11 -12 -16c-26 -29 -51 -59 -71 -93
c-4 -7 -6 -17 -14 -15c-4 2 -7 6 -8 15c-5 32 -12 65 -42 75c-10 3 -22 4 -34 4h-11c-15 -1 -25 -7 -26 -19c0 -17 -4 -45 -6 -67c-2 -27 -6 -65 -6 -92c0 -41 1 -93 5 -132c0 -12 1 -20 1 -23z" />
    <glyph glyph-name="uni0435" unicode="&#x435;" horiz-adv-x="236" 
d="M160 114c13 0 20 -6 20 -17c0 -21 -22 -54 -26 -60c-15 -20 -55 -37 -89 -37c-4 0 -8 0 -12 1c-50 19 -29 92 -45 142c-5 17 -8 39 -8 62c0 78 31 126 80 153c27 16 44 27 88 27c22 0 29 -4 29 -22c0 -15 -6 -30 -10 -41c-5 -11 -30 -15 -45 -19c-16 -5 -40 -12 -43 -28
c-2 -7 -4 -19 -4 -30c0 -13 3 -25 11 -26c9 -3 11 0 18 4c7 5 29 20 44 20c13 0 15 -18 15 -33c0 -7 -1 -15 -2 -21c-3 -14 -40 -18 -52 -22c-9 -2 -19 -14 -19 -26v-28c0 -8 1 -16 9 -15c14 2 25 16 41 16z" />
    <glyph glyph-name="uni0436" unicode="&#x436;" horiz-adv-x="563" 
d="M448 -3c-17 0 -38 6 -38 24l-1 29l-14 32l-69 84c-2 -25 -6 -50 -6 -77c0 -13 1 -32 1 -46c0 -12 -1 -31 -7 -36c-8 -6 -29 -7 -43 -7c-5 -1 -11 -2 -17 -2c-11 0 -21 1 -30 4c-8 4 -9 23 -9 39v15c1 15 2 31 3 48l15 131c-24 -20 -45 -40 -67 -60
c-21 -20 -29 -36 -42 -63c-6 -12 -13 -28 -15 -41c0 -8 -1 -19 -1 -28c0 -5 0 -11 -1 -16l2 -22l-14 -8l-41 -3l-28 4l-20 12c0 48 15 68 40 97c28 32 57 60 89 90l-8 11c-12 -2 -33 -6 -51 -6c-37 0 -41 16 -41 56c0 12 0 25 1 35c0 18 0 53 11 58c25 13 71 14 107 14
c24 0 44 -13 59 -23c10 -7 19 -15 28 -23c0 13 2 25 3 37c0 14 8 19 22 19c17 0 32 2 48 2c7 0 13 0 18 -1c7 -6 7 -22 7 -35c0 -8 -1 -17 -2 -26c23 23 51 44 83 59c10 5 35 8 58 8c24 0 45 -4 45 -18c0 -3 -1 -7 -3 -11c-10 -16 -20 -29 -31 -45l-36 -40
c-15 2 -29 9 -38 18c-6 8 -15 14 -25 14c-6 0 -11 -2 -16 -6c-9 -7 -16 -10 -22 -18l-16 -16l40 -40c15 -15 40 -37 51 -52c32 -38 75 -79 90 -135c2 -5 3 -9 3 -13c0 -10 -7 -14 -18 -16c-15 -2 -36 -7 -54 -7zM152 213l9 9c7 7 15 11 22 18l9 9c3 3 7 7 10 11l-19 25
c-6 5 -16 17 -25 17h-3c-9 0 -18 -10 -21 -15v-50z" />
    <glyph glyph-name="uni0437" unicode="&#x437;" horiz-adv-x="488" 
d="M-52 -91c0 5 -1 7 -1 11s4 6 8 9c11 11 44 19 63 24c21 6 52 14 71 16h6c25 0 46 -18 62 -31c23 -15 54 -35 86 -40c2 -1 4 -1 6 -1c20 0 37 17 41 27c4 14 9 27 9 47v7c-2 32 -20 65 -34 87c-3 6 -6 8 -10 8c-7 0 -14 -5 -21 -9c-13 -5 -34 -14 -51 -14s-47 9 -55 18
c-6 7 -9 23 -9 37v9c0 15 14 30 23 39c7 8 21 22 31 24c7 4 35 14 51 14c26 0 49 -14 67 -24c7 -4 14 -9 20 -14c16 12 30 30 32 57v12c0 28 -8 41 -19 60c-10 17 -32 30 -52 38c-11 5 -25 7 -40 7c-27 0 -57 -7 -72 -16c-14 -8 -38 -29 -43 -42c-3 -7 -6 -27 -10 -33
c-5 -8 -32 -12 -43 -14c-13 -4 -26 -6 -41 -6c-14 2 -18 15 -18 29c0 4 1 9 1 13c0 1 2 5 5 13s11 18 21 29c46 48 133 83 229 86h7c51 0 80 -14 112 -34c34 -20 68 -47 68 -98c0 -18 -5 -34 -7 -51c-8 -27 -34 -48 -57 -62c-14 -8 -29 -15 -46 -21c15 -27 46 -59 62 -84
c11 -18 12 -41 12 -65v-22c0 -14 -4 -25 -12 -33c-36 -34 -89 -62 -136 -83c-25 -11 -49 -21 -72 -24h-11c-16 0 -23 6 -37 17c-18 14 -42 31 -61 45c-10 7 -18 12 -24 15c-6 1 -13 2 -19 2c-20 0 -41 -5 -56 -10c-7 -1 -11 -2 -14 -2c-10 5 -19 22 -22 33z" />
    <glyph glyph-name="uni0438" unicode="&#x438;" horiz-adv-x="441" 
d="M252 75c0 36 5 100 5 121c0 11 -4 14 -10 14c-7 0 -16 -4 -24 -6c-26 -9 -61 -16 -93 -21c-4 -32 -6 -69 -6 -103c0 -22 1 -47 3 -64c0 -10 -6 -14 -15 -14c-4 0 -7 1 -11 2c-10 1 -21 2 -32 2h-11c-7 0 -20 -2 -30 -2c-8 0 -15 1 -16 6c-2 4 -2 11 -2 20c0 10 0 21 2 36
c6 53 22 180 33 229c7 29 11 47 12 55c4 22 12 32 32 32h12c11 0 25 3 33 4c5 0 19 5 31 5s16 -7 16 -17c0 -15 -15 -33 -20 -42c-13 -23 -20 -61 -23 -92c32 0 70 9 95 14c15 4 23 3 26 14c1 3 1 5 0 7c3 23 6 45 11 67c4 17 4 28 19 32s28 3 48 5c22 4 37 10 56 10
c7 0 11 -6 11 -12c0 -3 -1 -6 -3 -9c-18 -26 -22 -60 -29 -98c-5 -32 -9 -67 -9 -103c0 -47 7 -94 13 -133c1 -10 4 -19 4 -26s-3 -11 -12 -11c-13 0 -33 3 -50 3c-20 0 -35 -2 -53 -2c-13 0 -10 6 -12 17c-1 22 -1 42 -1 60z" />
    <glyph glyph-name="uni0439" unicode="&#x439;" horiz-adv-x="450" 
d="M215 491c-36 0 -70 18 -70 55c0 20 11 39 22 56c10 18 26 33 41 47c11 10 25 20 37 26c6 3 11 5 16 5c8 0 13 -3 13 -14c-8 -16 -11 -19 -28 -46c-6 -9 -8 -17 -8 -23c0 -15 14 -22 32 -22c33 0 50 23 66 44c12 15 26 38 36 52c6 7 11 11 17 11c2 0 4 -1 5 -1
c11 -5 16 -13 16 -22c0 -40 -71 -112 -84 -124c-29 -27 -64 -44 -111 -44zM252 76c0 36 5 100 5 121c0 11 -4 14 -10 14c-7 0 -16 -4 -24 -6c-26 -9 -61 -16 -93 -21c-4 -32 -6 -69 -6 -103c0 -22 1 -47 3 -64c0 -10 -6 -14 -15 -14c-4 0 -7 1 -11 2c-10 1 -21 2 -32 2h-11
c-7 0 -20 -2 -30 -2c-8 0 -15 1 -16 6c-2 4 -2 11 -2 20c0 10 0 21 2 36c6 53 22 180 33 229c7 29 11 47 12 55c4 22 12 32 32 32h12c11 0 25 3 33 4c5 0 19 5 31 5s16 -7 16 -17c0 -15 -15 -33 -20 -42c-13 -23 -20 -61 -23 -92c32 0 70 9 95 14c15 4 23 3 26 14
c1 3 1 5 0 7c3 23 6 45 11 67c4 17 4 28 19 32s28 3 48 5c22 4 37 12 56 12c7 0 11 -8 11 -14c0 -3 -1 -6 -3 -9c-18 -26 -22 -60 -29 -98c-5 -32 -9 -67 -9 -103c0 -47 7 -94 13 -133c1 -10 4 -19 4 -26s-3 -11 -12 -11c-13 0 -33 3 -50 3c-20 0 -35 -2 -53 -2
c-13 0 -10 6 -12 17c-1 22 -1 42 -1 60z" />
    <glyph glyph-name="uni043A" unicode="&#x43a;" horiz-adv-x="469" 
d="M296 6c-15 0 -31 -4 -45 -4c-9 0 -14 10 -14 22c0 53 -17 102 -37 138c-9 16 -16 23 -16 36c0 4 1 10 3 17c20 39 45 77 77 109c14 16 31 28 49 36c26 14 79 19 116 19c12 0 21 -2 21 -9c0 -3 -1 -6 -4 -10c-6 -11 -28 -28 -36 -40c-7 -9 -19 -49 -35 -49
c-9 0 -13 7 -17 19c-5 11 -13 16 -23 16c-27 0 -65 -38 -75 -50c-2 -3 -17 -23 -17 -32c0 -6 9 -11 15 -8c4 1 6 2 9 2c7 0 12 -6 18 -14c32 -47 51 -108 63 -176c1 -5 2 -9 2 -13c0 -7 -2 -12 -10 -12c-13 0 -30 3 -44 3zM159 387c13 0 25 -12 25 -24
c0 -16 -18 -30 -24 -41c-7 -11 -12 -35 -16 -52c-11 -41 -16 -86 -16 -138c0 -40 2 -83 6 -117c0 -15 -17 -15 -35 -15h-1c-11 0 -23 1 -30 1c-15 1 -53 2 -57 10c-1 2 -1 6 -1 11v13c4 41 12 90 14 132c2 44 4 101 6 145c2 33 3 50 31 55c21 4 47 6 65 12c8 2 21 8 33 8z
" />
    <glyph glyph-name="uni043B" unicode="&#x43b;" horiz-adv-x="369" 
d="M269 0c-5 -1 -10 -1 -16 -1c-10 0 -21 1 -30 1c-14 0 -15 14 -17 29c-7 48 -14 105 -18 154c-2 10 -2 17 -2 20c-1 12 -3 16 -7 16c-5 0 -12 -10 -17 -18c-16 -23 -33 -53 -43 -81c-7 -25 -14 -55 -19 -82c-1 -9 3 -24 -2 -27c-6 -5 -8 -9 -22 -10c-15 0 -33 -1 -48 -1
h-18c-8 0 -10 8 -10 18s1 21 4 28c17 39 45 87 70 118c23 29 54 69 75 101c13 20 19 32 19 57v24v10c0 29 31 23 57 25c12 2 32 7 44 8c3 1 7 1 10 1c7 0 13 -3 13 -11c0 -24 -9 -51 -9 -79v-9c3 -58 8 -120 20 -168c6 -24 13 -49 19 -70c6 -15 11 -18 11 -32
c0 -16 -17 -15 -31 -18c-10 -1 -23 -3 -33 -3z" />
    <glyph glyph-name="uni043C" unicode="&#x43c;" horiz-adv-x="660" 
d="M282 378c15 0 15 -5 19 -16c0 -3 -1 -10 -5 -19c-2 -9 -4 -20 -4 -32c0 -24 7 -65 12 -90c2 -20 6 -37 9 -53c4 -21 8 -38 22 -38s17 6 27 21c12 22 27 52 38 77c14 34 10 74 20 113c2 7 5 13 8 16c17 11 49 9 69 16l16 4c8 3 19 5 27 5c10 -1 6 -4 6 -12
c0 -86 25 -230 54 -307c7 -18 12 -24 18 -37c1 -3 2 -5 2 -8c0 -8 -9 -13 -12 -18c-1 -1 -3 -2 -8 -2c-14 0 -32 2 -46 2s-31 -4 -44 -6c-2 0 -4 -1 -6 -1c-9 0 -12 5 -14 15c-13 65 -30 149 -35 224c-3 9 -6 12 -9 12c-7 0 -13 -16 -18 -27c-27 -63 -60 -120 -60 -207
c1 -7 -8 -15 -15 -15c-14 0 -40 3 -56 4c-15 0 -36 -6 -50 -6c-2 0 -3 1 -4 1c-6 6 -10 -3 -11 13c-4 27 -7 75 -11 108c-4 35 -12 97 -28 116c-3 3 -7 5 -10 5c-21 0 -40 -63 -47 -81c-14 -36 -24 -81 -30 -125c0 -9 -1 -14 -1 -16c0 -14 -9 -14 -24 -15
c-13 -2 -30 -4 -46 -4h-7c-22 1 -25 7 -28 25v7c0 9 3 16 6 25c5 21 23 46 36 67c19 28 44 62 64 87c26 31 43 77 54 121c2 10 3 16 3 18c0 9 5 11 10 17c1 1 7 3 19 5c26 6 60 11 90 11z" />
    <glyph glyph-name="uni043D" unicode="&#x43d;" horiz-adv-x="431" 
d="M84 377h11c11 0 24 3 32 3c7 1 19 4 29 4s17 -2 17 -11c0 -12 -6 -22 -13 -31c-3 -4 -4 -8 -4 -11c0 -9 8 -16 16 -21c17 -14 47 -34 70 -40h1c13 0 13 38 15 52c2 17 6 43 23 47c15 4 28 3 47 6c23 3 36 9 56 9c7 0 10 -6 10 -12c0 -3 -1 -7 -3 -9
c-5 -6 -17 -37 -19 -46c-3 -13 -4 -35 -6 -53c-5 -31 -7 -65 -7 -100c0 -13 0 -27 1 -40c3 -38 4 -82 12 -113c2 -9 -3 -14 -10 -14c-13 0 -33 3 -50 3c-21 0 -34 -2 -52 -2c-13 0 -10 6 -12 17c-1 20 -1 38 -1 56c0 36 1 70 4 106c1 11 1 20 1 27c-4 18 -14 20 -30 28
c-11 5 -22 11 -34 17l-14 8c-5 2 -17 11 -21 9c-6 -4 -7 1 -11 -7c-13 -53 -20 -124 -20 -190v-18c1 -18 1 -30 2 -35c-1 -10 -6 -14 -15 -14c-3 0 -7 1 -11 2c-9 1 -20 2 -31 2c-8 0 -26 -2 -39 -2c-10 0 -17 1 -18 5c-2 5 -3 14 -3 28c0 9 1 20 1 33c6 78 20 192 40 258
c7 27 6 49 36 49z" />
    <glyph glyph-name="uni043E" unicode="&#x43e;" horiz-adv-x="408" 
d="M0 195c0 68 43 115 85 145c37 26 91 52 144 54h3c44 0 75 -34 95 -62c21 -30 41 -76 41 -121c0 -44 -24 -82 -46 -109c-34 -43 -85 -84 -144 -99c-9 -2 -18 -3 -25 -3c-24 0 -42 9 -62 20c-55 28 -91 89 -91 175zM169 304c-3 1 -6 1 -8 1c-25 0 -45 -20 -55 -37
c-6 -10 -9 -22 -9 -34c0 -30 16 -62 26 -80c17 -28 47 -54 81 -64c3 0 5 -1 8 -1c25 0 46 24 56 41c7 10 10 23 10 35c0 34 -19 70 -32 88c-16 22 -44 48 -77 51z" />
    <glyph glyph-name="uni043F" unicode="&#x43f;" horiz-adv-x="437" 
d="M64 4c-14 0 -36 -1 -47 -1c-5 0 -6 7 -7 11c0 17 -1 40 -1 63c0 82 5 160 19 226c5 30 7 78 34 78h16c12 -1 27 -1 44 -1c84 0 167 3 244 8h9h9c6 0 13 -4 13 -10c0 -1 -1 -2 -1 -3c0 -2 -2 -9 -4 -21c-16 -62 -30 -134 -30 -212v-10c1 -43 3 -78 4 -119
c2 -6 -2 -11 -6 -12c-12 0 -34 -1 -50 -1s-38 1 -51 1c-9 1 -10 4 -12 11c0 15 -1 35 -1 55c0 94 6 186 20 263c1 2 2 4 2 7c0 12 -6 11 -22 10h-32c-13 0 -28 0 -44 -1c-16 0 -19 -14 -24 -30c-16 -67 -23 -147 -23 -233v-65c2 -7 -3 -12 -8 -12c-7 -2 -21 -2 -34 -2h-17z
" />
    <glyph glyph-name="uni0440" unicode="&#x440;" horiz-adv-x="269" 
d="M42 -352c-16 0 -22 4 -22 18s3 22 16 25c1 10 0 19 0 29c0 55 -9 107 -14 165c-5 69 -12 149 -12 220c0 58 16 114 34 156c18 41 45 68 78 94c15 11 39 28 59 28c16 0 27 -13 27 -27c6 -55 10 -103 10 -163c1 -1 1 -3 1 -5c0 -43 -7 -68 -15 -102c-6 -25 -14 -51 -26 -69
c-9 -14 -21 -17 -40 -17c-11 0 -20 2 -30 3c-5 1 -10 -6 -12 -10v-24c0 -64 8 -133 15 -189c5 -34 9 -48 9 -77c0 -20 -5 -33 -16 -44c-8 -11 -44 -11 -62 -11zM86 137c0 -21 9 -33 30 -33c0 0 1 0 2 1c28 0 36 39 36 71v9c-1 15 -11 21 -23 21c-37 0 -45 -29 -45 -69z" />
    <glyph glyph-name="uni0441" unicode="&#x441;" horiz-adv-x="249" 
d="M181 140c14 0 17 -18 17 -36c0 -26 -8 -54 -19 -67c-16 -21 -57 -37 -92 -37c-3 0 -6 0 -9 1c-27 17 -43 76 -52 117c-10 39 -16 78 -16 121c0 27 4 48 16 68c19 32 45 56 75 74c9 6 25 9 41 9c22 0 45 -6 51 -17c5 -11 9 -31 9 -49c0 -9 -1 -17 -3 -24
c-3 -12 -29 -20 -41 -25c-16 -6 -39 -15 -42 -32c-4 -13 -6 -31 -6 -50c0 -24 3 -73 20 -73c6 0 12 4 18 7c8 5 22 13 33 13z" />
    <glyph glyph-name="uni0442" unicode="&#x442;" horiz-adv-x="522" 
d="M31 119c-20 0 -21 41 -21 68v8v31c0 39 9 80 18 111c9 32 19 37 61 37c17 1 37 1 59 1h67c88 0 159 9 236 16c4 1 7 1 10 1c6 0 11 -1 15 -1c11 0 16 -6 16 -15s-3 -20 -6 -25c-7 -15 -27 -38 -40 -53c-9 -12 -18 -23 -27 -32c-9 -10 -15 -15 -18 -16c-7 -1 -10 -1 -10 0
c0 2 -1 4 -3 7c-3 6 -3 24 -4 34c-1 12 -3 32 -8 39c-4 6 -15 19 -25 19c-1 0 -2 -1 -3 -1c-18 -11 -20 -15 -24 -44c-4 -27 -9 -64 -13 -93c-2 -16 -3 -28 -3 -37c0 -47 -6 -108 -6 -153c0 -9 3 -16 -7 -17c-9 -3 -29 -3 -41 -4c-14 -1 -34 -2 -45 -2c-12 1 -10 10 -13 20
c-2 7 -2 18 -2 30v28c0 93 14 173 22 259c0 11 -15 14 -32 14c-21 0 -47 -6 -52 -13c-17 -28 -18 -71 -18 -114v-22c1 -19 10 -24 10 -42c0 -17 -13 -16 -30 -20c-17 -2 -22 -3 -34 -8c-5 -3 -19 -11 -29 -11z" />
    <glyph glyph-name="uni0443" unicode="&#x443;" horiz-adv-x="428" 
d="M174 125c4 0 11 2 14 2c15 1 15 19 16 43c3 56 11 122 29 165c20 47 78 64 142 64c10 0 15 -21 15 -40c0 -17 -4 -32 -10 -35c-37 -6 -70 -11 -87 -42c-32 -58 -27 -149 -33 -235c-4 -81 -8 -161 -21 -233c-8 -46 -18 -95 -29 -133c-9 -29 -16 -45 -43 -45
c-17 0 -41 11 -41 32c0 3 1 6 2 10c25 38 40 86 47 138c6 49 12 110 12 168c0 19 -2 24 -18 28c-9 3 -17 2 -23 -2c-8 -6 -25 -10 -40 -10c-18 0 -35 6 -35 25c-5 56 -13 114 -26 167c-12 59 -32 121 -45 161c-2 5 -3 9 -3 12c0 10 8 13 26 17c8 1 43 8 68 8
c13 0 23 -2 24 -8c0 -13 7 -31 11 -45c14 -52 23 -114 30 -172c1 -11 2 -19 2 -24c0 -11 6 -16 16 -16z" />
    <glyph glyph-name="uni0444" unicode="&#x444;" horiz-adv-x="574" 
d="M296 -362c-6 -1 -13 -2 -19 -2c-19 0 -34 9 -39 26c-9 35 -10 91 -13 139c-2 36 -4 88 -4 120v3c0 29 -15 57 -31 67c-18 11 -48 19 -72 27c-53 19 -107 41 -118 104v7v15c0 36 18 60 39 83c35 37 81 74 119 106c25 21 43 55 43 92c0 48 -5 117 -7 166c-2 14 -3 24 -3 31
c0 11 4 16 17 22c5 2 15 2 25 2h17c25 0 58 -1 65 -15l6 -12c1 -2 1 -11 -1 -29c-2 -35 -6 -82 -7 -120v-11c0 -25 3 -38 7 -57c6 -28 27 -42 50 -58c44 -32 97 -69 132 -111c16 -19 28 -46 28 -73c0 -14 -3 -29 -12 -42c-20 -34 -48 -63 -88 -81c-29 -13 -64 -26 -93 -38
s-43 -25 -43 -56c0 -4 1 -9 1 -13c0 -65 6 -144 10 -210c2 -29 3 -38 13 -60c2 -10 -5 -18 -12 -19c-2 0 -5 -1 -10 -3zM295 275c0 -37 3 -66 3 -109c0 -33 -2 -53 -2 -74c0 -8 0 -16 1 -25c0 -15 -2 -20 11 -20c25 0 52 11 72 19c25 12 44 31 44 66v6c-2 33 -15 58 -33 80
c-30 39 -51 59 -81 77c-3 2 -5 2 -7 2c-7 0 -8 -9 -8 -22zM217 57c0 33 -4 76 -4 109c0 30 2 75 3 106c0 20 1 20 -7 28c-3 4 -7 5 -14 5c-3 0 -8 -3 -15 -9c-16 -13 -34 -32 -48 -47c-17 -20 -28 -43 -28 -79v-11c2 -44 30 -79 56 -99c10 -7 18 -12 26 -14
c5 -3 10 -4 15 -4c9 0 16 5 16 15z" />
    <glyph glyph-name="uni0445" unicode="&#x445;" horiz-adv-x="469" 
d="M19 359c0 27 36 27 64 27h29c36 -2 46 -12 56 -40c7 -23 15 -52 22 -73c2 -5 9 -12 12 -4c19 38 41 91 80 108c20 8 34 12 62 12c21 0 47 -2 66 -5c13 -2 20 -8 20 -16c0 -11 -10 -20 -16 -27l-12 -12c-10 -11 -13 -17 -24 -29c-7 -8 -11 -14 -12 -17c-2 -4 -4 -5 -7 -5
c-9 0 -20 15 -25 22c-10 15 -16 19 -26 26c-2 1 -3 0 -4 0c-9 0 -23 -19 -30 -26c-23 -30 -41 -85 -41 -138c0 -5 2 -14 5 -29c14 -63 38 -134 58 -195c15 -45 29 -83 42 -112c13 -30 21 -48 24 -53c5 -7 10 -19 8 -29c-9 -18 -35 -18 -62 -20c-5 0 -11 -1 -16 -1
c-21 0 -36 5 -44 21c-23 40 -37 101 -52 152c-9 32 -18 66 -27 95c-4 12 -6 26 -11 26c-8 0 -10 -11 -18 -31c-41 -91 -89 -200 -131 -290c-12 -25 -11 -36 -29 -39c-1 0 -2 -1 -4 -1c-1 0 -3 0 -4 1c-12 4 -34 13 -34 27c0 3 1 6 3 11c48 97 100 216 145 315
c17 36 18 39 30 69c3 8 4 17 4 27c0 18 -4 37 -8 54c-14 67 -38 140 -82 176c-7 6 -11 14 -11 23z" />
    <glyph glyph-name="uni0446" unicode="&#x446;" horiz-adv-x="463" 
d="M370 42c48 0 55 -44 55 -92c0 -56 -13 -115 -25 -163c-11 -42 -23 -91 -38 -127c-5 -10 -14 -16 -26 -16c-28 0 -60 6 -60 29c0 4 1 9 4 15c6 8 14 26 24 54c13 42 24 145 24 210c0 13 -1 18 -3 27c-3 13 2 16 -9 22c-6 3 -16 2 -28 2h-26c-24 0 -56 -2 -79 -2
c-40 0 -92 -2 -131 -4c-12 -1 -19 -1 -22 -2c-5 -1 -9 -1 -10 0c-12 12 -15 39 -15 68c0 26 2 53 4 72c5 62 15 123 26 181c5 25 4 30 17 42c12 12 33 13 58 13c6 0 40 5 47 5h3c10 0 16 -8 16 -18c0 -2 0 -4 -1 -6c-9 -7 -18 -30 -24 -45c-24 -57 -32 -134 -32 -218
c0 -4 0 -8 1 -12c0 -34 4 -38 32 -42c13 -1 27 -2 42 -2c17 0 36 1 56 3v163c0 37 6 88 10 124c4 32 4 39 23 53c2 1 7 2 16 2c18 0 39 -2 57 -2c13 0 18 3 26 3c6 0 8 -4 8 -10c0 -7 -3 -17 -7 -22c-12 -16 -25 -42 -29 -65s-5 -51 -5 -79c0 -60 4 -109 10 -162
c4 0 7 1 11 1z" />
    <glyph glyph-name="uni0447" unicode="&#x447;" horiz-adv-x="370" 
d="M162 219c0 13 -15 17 -27 17s-20 -8 -29 -12s-19 -11 -29 -11c-6 0 -11 2 -16 6c-12 10 -26 41 -35 58c-9 18 -26 46 -26 66v7c0 15 6 24 24 24c9 -1 23 -2 36 -2c15 0 30 1 41 2h1c10 0 10 -17 13 -27c5 -19 14 -48 26 -60c5 -3 15 -12 23 -12c4 0 7 2 9 10
c9 26 15 67 37 80c21 14 66 19 103 19c9 -1 18 -11 18 -21c0 -8 -2 -10 -9 -18c-31 -43 -50 -95 -56 -164c-3 -36 -6 -81 -6 -119v-15c1 -17 1 -28 2 -31c2 -6 -2 -14 -7 -16c-7 1 -15 1 -22 1h-66c-9 0 -16 -2 -22 -2s-10 2 -10 12c0 2 1 5 1 8c1 3 2 13 2 29
c0 54 12 116 23 161c1 4 1 7 1 10z" />
    <glyph glyph-name="uni0448" unicode="&#x448;" horiz-adv-x="669" 
d="M619 26c0 -26 -23 -27 -49 -27h-26c-33 0 -73 3 -108 3h-137h-29c-82 0 -167 -8 -235 -19h-6c-20 0 -22 22 -23 46v24v49c0 93 10 189 39 243c11 21 67 27 93 32c5 1 10 2 14 2c14 0 23 -6 23 -16c0 -4 -1 -9 -5 -14c-10 -15 -22 -30 -28 -51c-18 -48 -23 -130 -23 -192
c1 -23 1 -35 8 -52c6 -13 40 -14 61 -14h15c21 0 49 1 51 13c1 3 -1 7 0 11c0 35 -4 80 -4 117c0 43 5 98 12 137c5 28 7 41 28 51s54 16 85 16c2 0 5 1 7 1c10 0 15 -6 15 -14c0 -7 -4 -15 -10 -21c-12 -13 -13 -30 -16 -49c-7 -43 -8 -93 -8 -144v-64c4 -16 -1 -31 7 -44
c4 -7 20 -9 38 -9c19 0 39 2 50 3s34 0 34 9c0 1 0 2 -1 3c-2 51 -3 97 -4 138v52c0 30 2 60 5 83c1 10 3 16 6 18c22 26 67 38 113 38c14 0 18 -4 18 -10c0 -9 -14 -24 -17 -30c-7 -13 -6 -17 -8 -42c-4 -33 -6 -78 -7 -114v-22c0 -30 2 -57 5 -80c1 -13 4 -24 8 -31
c5 -7 9 -19 9 -30z" />
    <glyph glyph-name="uni0449" unicode="&#x449;" horiz-adv-x="678" 
d="M46 -10c-29 0 -37 24 -37 57c0 23 4 49 6 67c3 22 6 45 9 69c10 49 17 87 28 131c3 11 5 23 9 30c12 14 21 20 43 22c23 2 53 4 76 4c8 -2 15 -6 15 -11c0 -3 -2 -6 -6 -10c-12 -10 -12 -20 -21 -29c-1 -2 -4 -10 -8 -25c-15 -61 -29 -140 -34 -212c4 -36 6 -48 40 -48
h75c23 0 25 20 25 44v106c0 52 10 100 18 141c3 13 7 28 20 31c22 5 58 8 82 16h4c11 0 17 -7 17 -15c0 -5 -3 -11 -10 -15c-5 -3 -10 -10 -15 -21s-10 -39 -15 -83s-8 -98 -9 -163c6 -28 10 -52 44 -52h37c30 0 64 0 64 28v6c-4 22 -4 64 -5 94v25c0 57 3 119 14 157
c6 21 17 33 38 34c26 1 50 7 72 11h3c7 0 13 -7 13 -13s-8 -13 -11 -13c-1 0 -4 -5 -9 -14c-5 -10 -10 -36 -13 -77s-5 -102 -6 -182c3 -16 5 -30 10 -43c2 -4 3 -9 3 -14c0 -15 -8 -29 -20 -29c-9 -2 -19 -3 -30 -3c-46 0 -89 9 -137 9c-16 0 -24 -2 -35 -2h-8
c-7 1 -12 0 -15 -2c-5 -1 -6 -10 -8 -16c-3 -61 -6 -124 -11 -182c-2 -38 -13 -80 -24 -110c-6 -19 -7 -17 -20 -29c-5 -5 -11 -7 -18 -7h-3c-3 0 -5 -1 -7 -1c-18 0 -40 9 -40 26c0 10 5 22 8 29c11 20 12 35 20 64c12 50 12 130 12 189c0 18 -2 30 -7 42
c-30 2 -58 4 -89 5h-8c-36 0 -67 -6 -100 -12c-6 0 -10 -1 -12 -1c-4 -2 -9 -3 -14 -3z" />
    <glyph glyph-name="uni044A" unicode="&#x44a;" horiz-adv-x="459" 
d="M224 320c0 24 -22 25 -49 25c-9 0 -18 0 -25 -1c-15 -1 -16 -7 -24 -11c-3 -2 -4 -5 -4 -10c0 -27 -12 -62 -12 -90c-1 -7 -6 -12 -10 -18c-7 -7 -29 -15 -41 -20c-6 -3 -29 -13 -44 -13c-6 0 -11 2 -12 7c-1 4 -3 10 -3 18v6c2 19 7 42 7 62c0 13 1 33 1 48v18
c0 13 1 24 10 29c11 7 12 7 28 7h60c24 0 60 -1 79 -1c46 0 111 3 158 3c15 -1 31 -7 31 -18c0 -4 -2 -8 -5 -12c-1 -2 -5 -7 -13 -16c-18 -21 -36 -50 -52 -78c-8 -17 -15 -34 -19 -51c-1 -3 -1 -5 -1 -6c0 -4 2 -5 6 -5c6 0 15 4 22 5c11 1 11 -1 22 0c7 1 14 1 20 1
c30 0 30 -10 38 -35c12 -38 27 -90 27 -140c0 -19 0 -26 -22 -27h-15c-33 0 -70 3 -100 3c-33 0 -73 -4 -106 -5c-1 -1 -3 -1 -4 -1c-13 0 -25 3 -26 11v11c-1 3 -1 11 -1 23c0 31 15 84 27 120c13 41 30 88 43 127c7 20 9 25 9 34zM281 38c21 0 33 4 33 24c0 3 -1 6 -1 10
c-3 23 -10 40 -28 48c-4 2 -7 3 -10 3c-16 0 -22 -23 -22 -45c0 -5 1 -9 1 -13c2 -20 11 -27 27 -27z" />
    <glyph glyph-name="uni044B" unicode="&#x44b;" horiz-adv-x="509" 
d="M458 22c0 -22 -42 -22 -66 -22c-4 -1 -8 -1 -12 -1c-18 0 -40 2 -44 10c-2 4 -3 12 -3 25c0 43 3 95 3 138c0 42 -3 90 -3 130v24c3 39 55 29 79 46c7 5 22 13 35 13s22 -11 22 -23c0 -15 -17 -30 -23 -40c-8 -23 -8 -58 -9 -88c0 -7 -1 -15 -1 -22c0 -8 1 -15 1 -23
c0 -56 9 -121 21 -167zM150 192h3c16 0 37 10 51 10c17 0 24 -19 32 -32c22 -38 38 -77 45 -132c1 -4 1 -8 1 -11c0 -21 -10 -29 -33 -29h-3c-22 1 -51 2 -74 2h-27c-6 0 -13 0 -21 -1c-13 -1 -13 1 -26 0c-12 -1 -26 -5 -37 -5c-4 0 -8 -1 -12 -1c-23 0 -37 9 -39 31
c0 44 9 95 14 140c6 56 13 120 27 167c8 17 13 23 33 25c16 3 35 7 48 13c7 3 14 5 19 6c11 0 22 -15 22 -28s-12 -18 -20 -26c-8 -5 -12 -32 -15 -45c-4 -19 -10 -46 -10 -65c0 -13 9 -19 22 -19zM139 130c-5 2 -9 4 -13 4c-16 0 -17 -26 -18 -47v-8c0 -22 5 -45 23 -45
c2 -1 4 -1 6 -1c21 0 34 6 34 28v7c-3 23 -14 54 -32 62z" />
    <glyph glyph-name="uni044C" unicode="&#x44c;" horiz-adv-x="337" 
d="M297 31c0 -24 -13 -31 -39 -31c-23 1 -53 2 -78 2h-28c-29 0 -61 -7 -89 -7c-31 0 -51 3 -53 32c0 22 4 50 8 77c10 79 19 172 39 241c9 17 14 24 37 27c27 4 52 16 78 20c12 0 24 -16 24 -29c0 -14 -14 -19 -22 -27c-2 -1 -5 -7 -10 -16c-9 -20 -18 -47 -24 -70
c-4 -13 -6 -23 -6 -31c0 -12 9 -19 20 -19c5 0 10 2 15 4c10 5 30 17 46 17c3 0 6 -1 9 -2c8 -3 18 -26 23 -35c13 -26 25 -43 34 -72c7 -24 16 -54 16 -81zM160 136c-7 9 -16 15 -28 15c-18 0 -18 -28 -18 -53c0 -26 1 -60 24 -62h5c24 0 45 8 45 32c0 27 -16 52 -28 68z
" />
    <glyph glyph-name="uni044D" unicode="&#x44d;" horiz-adv-x="500" 
d="M362 212c0 54 -21 112 -69 112c-47 0 -86 -28 -118 -83l-125 25c16 41 44 73 85 96c29 16 54 22 75 22c48 0 157 -21 180 -41c40 -17 70 -106 70 -168c0 -75 -26 -145 -79 -212c-53 -66 -107 -99 -162 -99c-26 0 -54 9 -84 27c-33 20 -49 41 -50 63v5c0 24 9 36 27 36
c6 0 22 -8 50 -26c26 -16 48 -25 65 -25c25 0 48 14 71 43c23 28 34 53 34 81c0 33 -24 57 -57 58h-2c-20 0 -46 -10 -80 -31c-35 -22 -56 -33 -64 -33c-62 0 -93 6 -93 18c0 6 7 11 23 18c25 12 52 30 81 54c21 17 57 27 110 29h6c26 0 49 -8 69 -23c7 -8 12 -12 17 -12
c13 0 20 22 20 66z" />
    <glyph glyph-name="uni044E" unicode="&#x44e;" horiz-adv-x="453" 
d="M142 385c13 0 20 -10 20 -22c0 -17 -16 -31 -23 -42c-6 -7 -9 -30 -10 -44c0 -17 13 -20 31 -20c7 0 15 1 23 1c34 3 59 11 74 28c7 7 11 15 12 22c14 33 42 80 82 80h6c46 -5 56 -70 56 -130c0 -79 -17 -134 -47 -188c-12 -19 -24 -36 -38 -50c-12 -11 -24 -17 -36 -17
c-15 0 -29 9 -38 26c-15 28 -24 74 -24 118c0 15 1 30 3 44c0 3 1 5 1 7c0 19 -13 28 -31 28c-4 0 -7 0 -11 -1c-21 -2 -23 -2 -42 -10c-13 -4 -26 -12 -26 -27c-1 -13 -1 -29 -1 -46v-20c0 -36 0 -74 4 -104c0 -14 -22 -18 -46 -18c-20 0 -42 3 -51 6c-17 3 -20 7 -20 21
v13c2 44 11 96 13 139c3 55 13 118 21 168c3 19 21 30 43 30c2 0 3 0 5 -1h1c13 0 34 9 49 9zM332 237c-5 5 -11 7 -17 7c-11 0 -19 -9 -21 -23v-10c0 -20 6 -32 17 -45c5 -5 11 -8 16 -8c12 0 22 12 24 26c0 4 1 8 1 12c0 19 -7 30 -20 41z" />
    <glyph glyph-name="uni044F" unicode="&#x44f;" horiz-adv-x="432" 
d="M253 185c-72 0 -111 -110 -121 -186h-111c1 27 17 50 50 83l88 87c20 20 30 32 30 35c0 2 -2 3 -5 4c-35 12 -60 42 -75 91c-3 9 -4 18 -4 27c0 25 13 41 40 48h249l7 -11c-35 -65 -59 -184 -59 -285c0 -27 2 -53 5 -78h-101c-7 2 -12 -3 -13 0c5 53 7 83 7 92
c4 35 8 66 13 93zM249 232c23 0 31 50 31 81v5c0 23 -13 34 -40 34c-25 0 -37 -26 -37 -52c0 -28 20 -68 46 -68z" />
    <glyph glyph-name="uni040A" unicode="&#x40a;" horiz-adv-x="843" 
d="M562 -154h-78h-119c-10 0 -14 16 -8 24c15 17 23 34 26 52c-1 0 -7 109 -19 326v4c0 15 -5 24 -16 27c-13 3 -38 12 -77 25c-18 7 -41 19 -68 34c-5 3 -9 5 -12 5c-9 0 -14 -8 -13 -23c-2 -32 -3 -54 -3 -67v-8c-3 -93 -4 -199 -4 -317c1 -13 7 -26 17 -38
c10 -13 15 -21 15 -25c0 -2 1 -4 1 -5c0 -10 -7 -15 -20 -17c-19 0 -67 6 -83 7h-4c-22 0 -75 -3 -88 -4c-7 0 -12 8 -12 16c0 3 1 7 3 9c15 17 23 34 26 52c4 18 15 285 15 314v7c0 31 18 273 18 304c0 10 -7 21 -19 34c-14 13 -20 22 -20 27c0 9 5 15 15 19c9 4 33 6 74 6
h24c27 0 68 7 86 10c13 1 20 -4 20 -15c0 -7 -3 -13 -8 -19l-22 -22c-9 -10 -14 -20 -15 -29c-1 -23 -4 -66 -9 -130v-6c0 -20 5 -35 14 -45c7 -8 32 -20 75 -37c33 -15 56 -23 69 -23c12 0 18 8 18 23c0 5 -1 11 -2 18l-9 199c0 9 -11 27 -34 54c-3 4 -5 8 -5 11
c0 9 5 15 15 20c24 1 55 2 94 3c19 3 46 7 82 11c13 0 20 -5 20 -15c0 -7 -7 -18 -20 -34c-14 -14 -21 -27 -22 -38c1 -1 7 -88 17 -262c10 -31 5 -26 22 -46c7 -8 32 -22 74 -42c37 -19 63 -31 78 -36c18 -6 23 -18 28 -34c15 -67 33 -141 53 -221c11 -26 25 -43 50 -56
c7 -4 10 -9 10 -15c0 -9 -4 -13 -13 -12c-31 2 -64 3 -102 3c-18 0 -38 -3 -59 -3h-29h-47zM528 -64c1 -20 13 -46 32 -55c4 -1 9 -1 14 -1c12 0 28 2 45 6c6 6 9 15 9 26c0 54 -22 187 -38 231c-4 12 -9 22 -14 29c-6 6 -57 48 -69 48c-2 0 -4 -1 -6 -2
c8 -85 17 -179 27 -282z" />
    <glyph glyph-name="uni045A" unicode="&#x45a;" horiz-adv-x="587" 
d="M84 372h11c11 0 24 3 32 3c7 1 19 4 29 4s17 -2 17 -11c0 -12 -6 -22 -13 -31c-3 -4 -4 -8 -4 -11c0 -9 8 -16 16 -21c17 -14 47 -34 70 -40h1c13 0 13 38 15 52c2 17 6 43 23 47c15 4 28 3 47 6c23 3 36 9 56 9c10 0 13 -14 7 -21c-5 -6 -17 -37 -19 -46
c-7 -30 -6 -53 -7 -100c-2 -12 9 -18 21 -18c5 0 10 1 14 3c15 7 38 16 54 21c4 1 7 2 10 2c17 0 25 -23 33 -37c13 -26 25 -43 34 -72c7 -24 16 -54 16 -82c0 -24 -13 -30 -41 -30h-40c-23 0 -55 -1 -74 -1h-15c-21 0 -32 2 -58 2c-20 0 -43 -2 -60 -2c-13 0 -12 6 -12 17
c0 9 -1 19 -1 28c0 53 6 105 6 156c-4 18 -14 20 -30 28c-11 5 -22 11 -34 17l-14 8c-5 2 -17 11 -21 9c-6 -4 -7 1 -11 -7c-13 -53 -20 -124 -20 -190v-18c1 -18 1 -30 2 -35c-1 -10 -6 -14 -15 -14c-3 0 -7 1 -11 2c-9 1 -20 2 -31 2c-8 0 -26 -2 -39 -2
c-10 0 -17 1 -18 5c-2 5 -3 14 -3 28c0 9 1 20 1 33c6 78 20 192 40 258c7 27 6 49 36 49zM410 135c-7 9 -16 15 -28 15c-18 0 -18 -28 -18 -53c0 -26 1 -60 24 -62h5c24 0 45 8 45 32c0 27 -16 52 -28 68z" />
    <glyph glyph-name="uni0409" unicode="&#x409;" horiz-adv-x="768" 
d="M148 -95v-17c0 -10 2 -19 6 -28c1 -2 2 -5 2 -7c0 -15 -34 -13 -79 -14h-60c-13 5 -17 13 -17 27c0 17 6 37 14 55c57 135 97 203 179 338c28 45 50 99 65 161c3 11 4 29 4 49c0 39 -4 88 -10 119c-3 19 -14 25 -27 35c-5 5 -8 9 -8 14c0 7 4 11 13 12h9
c44 0 117 -2 173 -4c8 -1 12 -5 12 -12c0 -5 -2 -10 -7 -15c-13 -14 -19 -26 -19 -37c0 -124 14 -224 21 -292l12 -12c7 -8 38 -28 92 -60c37 -19 63 -31 78 -36c18 -6 23 -18 28 -34c15 -67 33 -141 53 -221c11 -26 25 -43 50 -56c7 -4 10 -9 10 -15c0 -9 -4 -13 -13 -12
c-46 3 -123 4 -232 4c-24 -1 -117 -4 -158 -4h-14c-19 0 -22 0 -24 17c-1 2 1 7 5 16s6 19 7 31c1 26 2 56 2 88c0 102 -7 221 -18 279c-1 5 -3 7 -8 7c-6 0 -11 -4 -16 -12c-23 -39 -49 -100 -79 -182c-31 -84 -46 -145 -46 -182zM463 -93c2 -14 7 -29 23 -29h4
c15 1 33 3 56 8c8 4 12 12 12 23c0 55 -22 187 -38 231c-4 12 -9 22 -14 29c-3 3 -13 12 -30 25c-12 10 -28 24 -39 24c-3 0 -7 -2 -9 -6c10 -96 22 -198 35 -305z" />
    <glyph glyph-name="uni0459" unicode="&#x459;" horiz-adv-x="537" 
d="M292 377c0 -40 -10 -52 -10 -82c0 -25 4 -68 12 -128c11 7 31 17 58 31c21 9 38 16 52 19c8 3 15 3 20 0c3 -1 19 -29 48 -83c7 -15 25 -84 25 -107c0 -16 -10 -25 -21 -28c-33 1 -75 1 -124 1c-25 -2 -55 -4 -89 -7h-7c-16 0 -27 2 -33 6c-5 1 -10 5 -14 14
c-2 4 -6 34 -13 91c-6 54 -9 87 -10 98c0 11 -2 17 -7 17c-2 0 -5 -2 -8 -6c-25 -31 -42 -62 -52 -94c-13 -43 -20 -72 -20 -89c0 -3 1 -6 1 -8c1 -7 -2 -14 -10 -19c-3 -2 -16 -3 -38 -3c-13 -1 -26 -1 -39 -1h-2c-9 0 -11 8 -11 19c0 9 1 19 4 27c8 19 57 103 70 118
c24 31 41 53 50 65c23 31 36 52 39 62c1 4 2 26 5 65c1 12 6 19 15 20s23 3 42 5c11 3 26 5 44 8c3 1 6 1 8 1c9 0 15 -3 15 -12zM347 35c27 0 41 14 41 34c0 30 -26 70 -43 77c-6 2 -10 4 -14 4c-17 0 -17 -25 -17 -54v-9c0 -35 2 -52 33 -52z" />
    <glyph glyph-name="uni045F" unicode="&#x45f;" horiz-adv-x="537" 
d="M268 1c8 -11 9 -32 9 -53v-13c0 -13 0 -27 -1 -42c-2 -29 -14 -114 -35 -255l-33 10c4 48 6 116 6 204c0 47 -7 96 -21 149h-156c-3 17 -5 42 -5 78v18c1 96 13 191 35 272h104c13 0 24 -6 24 -17c-6 -22 -15 -68 -28 -139l-6 -58c-3 -29 -5 -69 -5 -119l5 -1h132
c-4 58 -6 105 -6 140l1 19v65c1 41 5 77 13 107l113 15c8 0 12 -4 12 -12c0 -3 -1 -7 -2 -12c-15 -51 -23 -102 -23 -153c0 -10 0 -19 1 -29v-130c0 -6 1 -12 1 -17c0 -25 -8 -27 -34 -27h-16h-85z" />
    <glyph glyph-name="uni0453" unicode="&#x453;" horiz-adv-x="393" 
d="M23 2c-9 2 -13 8 -13 18c0 157 9 214 27 343c5 14 15 24 29 26c39 -1 84 -3 136 -3c99 5 146 7 146 7c10 -1 12 -13 5 -19c-31 -33 -59 -66 -85 -112c-1 -3 -3 -4 -6 -4c-6 0 -9 5 -10 15c-3 31 -11 52 -24 65c-7 7 -21 12 -40 13c-6 0 -11 1 -16 1c-19 0 -32 -4 -33 -19
c-4 -38 -8 -91 -12 -159v-12c0 -29 2 -77 6 -143c0 -6 -4 -12 -13 -17c-3 -1 -19 -2 -48 -2c-28 1 -44 1 -49 2zM322 755c21 0 42 -2 42 -20c0 -4 -1 -9 -3 -14c-5 -13 -31 -53 -77 -119c-19 -28 -32 -47 -39 -56c-19 -25 -33 -42 -44 -51c-6 -5 -13 -8 -22 -8
c-17 0 -35 14 -35 30c0 3 0 6 1 9c9 7 36 41 79 100c20 31 37 60 50 87c11 21 16 31 17 32c4 7 15 10 31 10z" />
    <glyph glyph-name="uni0402" unicode="&#x402;" horiz-adv-x="713" 
d="M222 619c0 18 14 28 28 28h90c38 0 62 4 92 4h6c12 0 20 -7 22 -23c0 -18 -8 -27 -28 -27s-24 -9 -24 -28v-27c0 -26 6 -31 32 -31h6c14 0 62 2 108 2c30 0 38 2 58 2c18 0 30 0 34 1h2c12 0 18 -7 18 -18c0 -2 0 -5 -2 -8c0 -9 -18 -36 -54 -81c-12 -20 -40 -65 -50 -68
c-12 -3 -20 1 -24 10c-2 3 -6 26 -14 69c-8 40 -20 52 -56 52h-10c-36 0 -48 -6 -48 -43v-123c0 -25 6 -29 20 -43c6 -8 32 -22 74 -43c44 -25 82 -57 114 -98c32 -55 50 -127 50 -216v-20c0 -61 -18 -116 -54 -163c-20 -22 -52 -49 -76 -64c-12 -6 -20 -10 -26 -10h-2
c-2 1 -4 3 -4 6c0 11 14 35 16 42c8 12 16 30 18 53v89c-2 91 -6 159 -14 199c-4 37 -10 67 -20 89c-8 24 -14 35 -18 35c-4 11 -16 23 -32 35c-12 10 -30 23 -40 23c-8 0 -12 -4 -12 -17v-148c0 -11 4 -125 4 -157c2 -3 4 -7 12 -12c16 -7 32 -6 32 -25v-5
c-2 -9 -6 -13 -14 -13c-26 -3 -180 -7 -192 -7c-14 0 -20 2 -22 3c-6 5 -10 10 -10 17c0 14 4 16 22 20c10 3 18 6 18 11c0 0 16 399 16 542c0 31 -14 39 -46 40c-10 1 -18 1 -26 1c-16 0 -22 -4 -38 -18c-16 -15 -24 -47 -24 -97c0 -13 -4 -19 -14 -19c-2 0 -10 9 -24 27
l-30 36c-20 17 -44 37 -66 62c-2 5 -4 11 -4 16c0 18 4 29 26 31h116c48 -1 82 -1 98 -1c24 1 36 12 36 33v35c0 8 -4 13 -12 16h-2c-6 0 -16 2 -30 6c-4 3 -6 11 -6 18z" />
    <glyph glyph-name="uni2013" unicode="&#x2013;" horiz-adv-x="465" 
d="M25 165v70h411v-70h-411z" />
    <glyph glyph-name="uni2014" unicode="&#x2014;" horiz-adv-x="641" 
d="M30 165v70h588v-70h-588z" />
    <glyph glyph-name="uni2018" unicode="&#x2018;" horiz-adv-x="225" 
d="M91 672v-6c0 -31 10 -64 40 -64c22 0 38 20 45 36c3 7 9 11 15 11c7 0 14 -5 14 -17c0 -45 -36 -82 -66 -100c-12 -6 -24 -10 -35 -10c-56 0 -81 57 -81 113c0 74 45 128 88 160c4 3 9 7 15 7c3 0 5 -1 8 -3c8 -7 3 -20 -2 -26c-19 -29 -41 -59 -41 -101z" />
    <glyph glyph-name="uni2019" unicode="&#x2019;" horiz-adv-x="225" 
d="M139 650v6c0 31 -10 64 -40 64c-22 0 -38 -20 -45 -36c-3 -7 -9 -11 -15 -11c-7 0 -14 5 -14 17c0 45 36 82 66 100c12 6 24 10 35 10c56 0 81 -57 81 -113c0 -55 -27 -98 -54 -129c-11 -12 -22 -22 -34 -31c-4 -3 -9 -7 -15 -7c-3 0 -5 1 -8 3c-8 7 -3 20 2 26
c19 29 41 59 41 101z" />
    <glyph glyph-name="uni201C" unicode="&#x201c;" horiz-adv-x="436" 
d="M91 672v-6c0 -31 10 -64 40 -64c22 0 38 20 45 36c3 7 9 11 15 11c7 0 14 -5 14 -17c0 -45 -36 -82 -66 -100c-12 -6 -24 -10 -35 -10c-56 0 -81 57 -81 113c0 74 45 128 88 160c4 3 9 7 15 7c3 0 5 -1 8 -3c8 -7 3 -20 -2 -26c-19 -29 -41 -59 -41 -101zM301 672v-6
c0 -31 10 -64 40 -64c22 0 38 20 45 36c3 7 9 11 15 11c7 0 14 -5 14 -17c0 -45 -36 -82 -66 -100c-12 -6 -24 -10 -35 -10c-56 0 -81 57 -81 113c0 74 45 128 88 160c4 3 9 7 15 7c3 0 5 -1 8 -3c8 -7 3 -20 -2 -26c-19 -29 -41 -59 -41 -101z" />
    <glyph glyph-name="uni201D" unicode="&#x201d;" horiz-adv-x="436" 
d="M344 647v6c0 31 -10 64 -40 64c-22 0 -38 -20 -45 -36c-3 -7 -9 -11 -15 -11c-7 0 -14 5 -14 17c0 45 36 82 66 99c12 8 24 11 35 11c56 0 81 -57 81 -113c0 -55 -27 -98 -54 -129c-11 -12 -22 -22 -34 -31c-4 -3 -9 -7 -15 -7c-3 0 -5 1 -8 3c-8 7 -3 20 2 26
c19 29 41 59 41 101zM134 647v6c0 31 -10 64 -40 64c-22 0 -38 -20 -45 -36c-3 -7 -9 -11 -15 -11c-7 0 -14 5 -14 17c0 45 36 82 66 99c12 8 24 11 35 11c56 0 81 -57 81 -113c0 -55 -27 -98 -54 -129c-11 -12 -22 -22 -34 -31c-4 -3 -9 -7 -15 -7c-3 0 -5 1 -8 3
c-8 7 -3 20 2 26c19 29 41 59 41 101z" />
    <glyph glyph-name="uniA67F" unicode="&#xa67f;" horiz-adv-x="191" 
d="M9 785c8 0 17 -1 25 -1s16 1 24 1c10 0 -1 -32 22 -55c3 -2 6 -3 8 -3s5 2 8 6c17 40 20 50 67 56c11 1 19 1 25 1h6c5 0 9 -5 9 -10c0 -2 -1 -4 -1 -6l-20 -24c-34 -42 -41 -65 -57 -134c-9 -32 -14 -51 -14 -58l1 -1c0 -4 -2 -8 -6 -11h-38h-25h-7s-3 -1 -3 -1
c-5 0 -3 8 -1 13c9 34 28 94 44 129c-34 6 -57 18 -69 38c-12 18 -18 31 -18 36c0 14 6 24 20 24z" />
    <glyph glyph-name="uniA67D" unicode="&#xa67d;" 
d="M-234 797c10 -1 18 -1 26 -1s16 0 24 1c9 0 0 -33 22 -55c2 -2 6 -3 8 -3s4 2 8 6c16 39 20 50 68 55c10 2 18 2 24 2h6c6 0 8 -5 8 -10v-6l-20 -24c-34 -42 -40 -65 -58 -134c-8 -32 -12 -52 -12 -58v-1c0 -5 -2 -8 -6 -11h-38h-25h-7s-2 -1 -4 -1c-4 0 -2 8 0 13
c10 34 28 94 44 129c-34 5 -58 18 -70 37c-10 19 -16 31 -16 37c0 14 6 24 18 24z" />
    <glyph glyph-name="uni0301" unicode="&#x301;" 
d="M-21 850c-35 -54 -67 -106 -107 -154c-12 -12 -22 -29 -42 -29c-16 0 -37 12 -37 30c0 3 1 6 2 9c15 20 30 32 47 54c23 30 73 111 82 132c8 19 14 30 17 33c5 8 19 12 33 12c19 0 39 -8 39 -24c0 -21 -22 -44 -34 -63z" />
    <glyph glyph-name="uni0311" unicode="&#x311;" 
d="M-192 789c-24 0 -42 -21 -42 -47c0 -11 4 -19 4 -32c0 -8 -7 -16 -13 -18c-18 0 -35 -3 -52 -3c-3 0 -6 0 -9 1c-17 0 -21 1 -28 12c-4 11 -9 30 -9 45c0 36 19 61 43 79c32 24 59 32 112 32c46 0 74 -9 102 -26c24 -15 44 -46 44 -87c0 -20 -5 -50 -21 -53
c-4 -1 -10 -1 -17 -1h-23c-9 0 -18 0 -29 1c-7 -2 -13 8 -15 13c-1 7 -1 15 1 23v8c0 33 -17 53 -48 53z" />
    <glyph glyph-name="uni030F" unicode="&#x30f;" 
d="M-283 911c-4 4 -6 8 -6 12c0 18 43 39 74 39c6 0 11 -1 15 -2c39 -10 76 -32 112 -45c40 -13 80 -36 127 -36c15 0 55 -2 55 -17c0 -20 -13 -42 -23 -53c-5 -4 -9 -6 -14 -6c-9 1 -27 8 -54 20c-39 20 -101 45 -154 56c-35 8 -70 15 -102 22c-13 4 -23 7 -30 10z
M-380 770c-4 4 -6 8 -6 12c0 18 43 39 74 39c6 0 11 -1 15 -2c39 -10 76 -32 112 -45c40 -13 80 -36 127 -36c15 0 55 -2 55 -17c0 -20 -13 -42 -23 -53c-5 -4 -9 -6 -14 -6c-9 1 -27 8 -54 20c-39 20 -101 45 -154 56c-35 8 -70 15 -102 22c-13 4 -23 7 -30 10z" />
    <glyph glyph-name="uni0300" unicode="&#x300;" 
d="M-380 852c-4 4 -6 8 -6 12c0 18 43 39 74 39c6 0 11 -1 15 -2c39 -10 76 -32 112 -45c40 -13 80 -36 127 -36c15 0 55 -2 55 -17c0 -20 -13 -42 -23 -53c-5 -4 -9 -6 -14 -6c-9 1 -27 8 -54 20c-39 20 -101 45 -154 56c-35 8 -70 15 -102 22c-13 4 -23 7 -30 10z" />
    <glyph glyph-name="uni0306" unicode="&#x306;" 
d="M-226 638c-39 0 -75 18 -75 52c0 4 -1 9 0 14c9 36 38 69 63 92c11 10 25 20 37 26c6 3 12 5 17 5c7 0 13 -4 13 -16c-9 -14 -13 -18 -29 -44c-6 -9 -8 -17 -8 -23c0 -15 14 -22 33 -22c33 0 49 23 65 44c12 15 26 38 36 52c6 7 11 11 17 11c2 0 4 -1 5 -1
c11 -5 16 -13 16 -23c0 -39 -70 -111 -84 -123c-26 -24 -66 -44 -106 -44z" />
    <glyph glyph-name="uni2DF5" unicode="&#x2df5;" 
d="M-443 458c-4 -1 -9 -2 -15 -2c-35 0 -80 16 -80 51c0 34 21 64 37 85c12 13 22 24 33 31c4 3 10 5 16 5c13 0 26 -7 24 -20c-5 -21 -29 -38 -36 -59c0 -1 -1 -2 -1 -4c0 -14 25 -22 35 -22c5 0 10 1 15 3c46 23 68 87 112 112c2 2 5 2 8 2c10 0 23 -8 23 -17
c0 -1 0 -3 -1 -4c-17 -51 -57 -102 -98 -131c-22 -16 -46 -26 -72 -30zM-631 609c-21 0 -28 31 -28 52c0 35 19 69 42 83c53 31 115 54 189 54c13 0 25 2 37 2c67 0 118 -18 167 -47c58 -34 116 -43 197 -45c11 0 18 -6 18 -16c0 -7 -3 -17 -6 -21
c-25 -50 -53 -102 -53 -175v-36h-96c10 33 21 62 34 95c10 25 23 45 37 67c4 7 9 15 14 22c-19 -5 -37 -7 -54 -7c-71 0 -133 33 -184 57c-42 19 -89 43 -147 43h-10c-25 0 -55 -6 -55 -30c0 -11 4 -26 4 -35c0 -25 -12 -34 -37 -38c-16 -3 -36 -15 -51 -21
c-6 -3 -13 -4 -18 -4z" />
    <glyph glyph-name="uni2DEE" unicode="&#x2dee;" 
d="M-230 610c-13 0 -29 7 -29 21c0 13 21 22 30 29c19 15 41 33 56 52c5 6 8 17 0 23c-3 2 -7 1 -14 0c-72 -16 -144 -23 -242 -28c-6 -1 -14 -4 -17 -8c-6 -14 -9 -42 -9 -63c0 -13 1 -26 2 -34c0 -15 -46 -18 -62 -18c-7 -1 -16 -2 -25 -2c-13 0 -25 2 -25 11
c0 26 6 61 9 86c1 10 2 16 2 17c-4 0 -8 1 -12 1c-16 0 -34 -3 -46 -3c-14 0 -20 13 -20 27c0 10 3 21 9 27c169 4 329 12 479 35c21 3 39 7 53 12c9 3 17 5 25 5c18 0 36 -12 36 -31c0 -8 -3 -15 -10 -20c-31 -21 -64 -50 -95 -71c-21 -14 -40 -40 -60 -56
c-8 -7 -22 -12 -35 -12z" />
    <glyph glyph-name="uni0483" unicode="&#x483;" 
d="M-248 620c0 -13 -34 -19 -65 -19c-22 0 -42 3 -48 9c-7 8 -9 26 -9 44c0 20 2 42 4 56c2 20 6 25 14 36c3 3 8 5 15 5c63 0 134 -9 196 -9c9 -1 16 6 19 12c1 3 1 10 0 20c-2 9 -6 21 -11 36c2 11 7 10 27 12c20 4 49 9 72 10h4c43 0 47 -40 48 -85v-9
c0 -20 -3 -53 -22 -53h-3c-21 0 -49 4 -77 6c-42 3 -98 5 -145 5c-11 -3 -23 -1 -26 -12c-1 -5 -1 -9 -1 -14c0 -16 5 -31 8 -50z" />
    <glyph glyph-name="uniA656" unicode="&#xa656;" horiz-adv-x="847" 
d="M581 504c0 14 -4 47 -4 57c0 25 -28 40 -40 55c-3 4 -5 8 -5 12c0 7 7 12 14 16c4 2 12 3 24 3h10c18 -1 37 -1 57 -2h31c22 0 36 3 57 3c14 0 19 -7 19 -15c0 -6 -2 -13 -7 -19c-10 -13 -35 -35 -36 -57c0 -32 6 -74 11 -113c13 -124 20 -259 34 -383
c6 -45 12 -93 15 -131c2 -27 23 -39 38 -52c5 -4 9 -12 9 -19c0 -11 -17 -16 -25 -16c-7 0 -14 2 -26 4c-21 4 -56 7 -86 7c-16 0 -51 -3 -59 -3c-9 0 -15 17 -8 25c14 20 34 34 34 68v20c-3 46 -8 108 -8 153v6c0 14 -3 26 -14 26c-4 0 -9 -1 -14 -4
c-12 -6 -26 -18 -43 -34c-43 -45 -91 -111 -119 -172c-4 -10 -9 -22 -9 -33c0 -7 1 -12 5 -17c4 -3 13 -14 13 -23c0 -7 -9 -13 -17 -13c-19 0 -33 -2 -52 -2c-23 0 -46 -4 -66 -8c-7 -2 -15 0 -22 0c-17 0 -22 7 -22 23v10c0 5 3 16 9 33c38 102 94 197 151 280
c5 8 14 21 -3 23c-11 2 -25 3 -42 3c-33 0 -69 0 -99 -2c-14 -2 -24 -2 -29 -2h-25c-22 0 -52 -1 -54 -19c0 -46 1 -109 1 -157v-42c0 -27 0 -54 2 -74c2 -23 15 -38 27 -50c4 -4 6 -12 6 -19c0 -5 -1 -10 -5 -11c-7 -4 -13 -6 -19 -6c-7 0 -14 2 -26 4c-20 4 -56 6 -87 6
h-40h-19c-7 0 -12 6 -12 14c0 3 1 6 3 9c11 11 23 36 26 53c0 90 8 199 8 292v28c0 101 11 217 11 318c0 20 -26 44 -35 55c-3 4 -5 8 -5 12c0 11 13 20 26 20c26 0 53 -3 79 -3h31c21 0 36 3 56 3c14 0 20 -7 20 -15c0 -6 -3 -13 -8 -19c-10 -12 -35 -35 -35 -57
c0 -81 -6 -184 -6 -268c0 -15 18 -17 41 -17h24c73 0 160 0 225 9c42 6 60 56 79 85c22 36 35 87 35 142zM463 89c0 -7 6 -14 12 -14s10 6 17 12c12 15 27 34 40 49c15 19 28 26 46 42c8 8 19 18 27 23c7 6 11 15 12 26v26v18c0 19 -1 40 -15 40c-12 0 -12 -3 -22 -13
c-44 -52 -85 -112 -110 -182c-4 -10 -6 -17 -6 -21c0 -2 -1 -4 -1 -6z" />
    <glyph glyph-name="uni2DE1" unicode="&#x2de1;" 
d="M-78 801c10 0 22 -4 22 -12c0 -5 -3 -10 -7 -15c-6 -5 -8 -11 -8 -18v-33c0 -7 0 -14 -1 -21c3 -13 8 -22 18 -31c2 -3 3 -6 3 -9c0 -7 -8 -10 -17 -10c-3 0 -7 0 -10 1h-186c-3 -1 -8 -1 -12 -1c-12 0 -23 3 -20 13c0 6 2 11 7 15c8 8 8 29 8 44v27c0 14 -7 18 -12 25
c-2 2 -3 5 -3 8c0 11 13 17 24 17h194zM-219 748c0 -15 -1 -30 -1 -46c0 -23 15 -28 42 -28c25 0 38 7 38 26c0 10 -1 42 -1 51c0 20 -10 26 -37 26c-26 0 -41 -8 -41 -29z" />
    <glyph glyph-name="uni2DF1" unicode="&#x2df1;" 
d="M-54 791c14 0 32 -4 32 -19c0 -5 -2 -15 -8 -29c-12 -32 -32 -70 -52 -96c-12 -18 -12 -20 -34 -22c-6 -1 -12 -1 -18 -1c-10 0 -24 2 -24 11c-2 7 0 14 4 20c6 7 10 15 14 24c2 3 2 6 2 8c0 11 -12 13 -30 13c-8 0 -18 -1 -28 -1s-18 1 -24 3c-16 6 -26 6 -26 24v7
c5 34 27 69 64 69c12 0 20 -4 24 -12c1 -2 2 -4 2 -7c0 -10 -14 -23 -14 -34c0 -3 1 -5 4 -8c6 -6 18 -10 28 -10c32 0 42 23 52 41c8 13 16 19 32 19z" />
    <glyph glyph-name="uni2DE4" unicode="&#x2de4;" 
d="M-326 604c-41 -23 -74 -49 -98 -82h-44c30 36 66 72 108 100c-30 16 -58 34 -84 50c-12 6 -26 12 -42 12h-6c-16 0 -28 -10 -34 -18c-2 -4 -2 -8 -2 -10c0 -12 4 -16 8 -30c0 -2 2 -4 2 -8c0 -6 4 -14 0 -20c-8 -10 -14 -16 -24 -24c-6 -6 -16 -16 -28 -16
c-2 0 -4 2 -8 2c-22 18 -30 40 -30 78c0 12 4 28 16 46c18 28 66 56 118 56c10 0 20 -2 30 -4c14 -4 22 -4 34 -10c26 -14 42 -26 70 -46c0 14 -4 38 -4 58c0 6 2 12 2 18c0 8 6 16 10 20l14 8c8 4 40 16 58 16c13 0 20 -7 20 -18c0 -8 -6 -20 -6 -30v-20
c0 -12 -2 -28 -2 -48c52 26 108 44 172 60c12 2 22 4 32 4c12 0 20 -4 28 -14l-2 -14l-22 -24l-20 -16l-24 -8l-16 4l-34 10h-28c-32 -8 -56 -22 -88 -38v-10c47 -19 99 -37 148 -54c6 -2 18 0 8 -10c-4 -10 -12 -16 -18 -26c-4 -4 -12 -12 -18 -14h-12c-4 0 -6 0 -8 2
c-62 18 -122 42 -176 68z" />
    <glyph glyph-name="uni2DF4" unicode="&#x2df4;" 
d="M-275 550v-11c0 -22 -5 -51 -5 -71c0 -10 -7 -10 -21 -10c-16 0 -38 1 -53 3c-8 0 -13 1 -14 2c-3 3 -4 4 -5 4v5c0 20 11 43 11 63c2 14 -2 18 -17 18c-11 0 -16 0 -16 8c0 13 3 20 16 22c8 1 14 0 17 0c3 1 10 2 19 0c20 -5 56 -9 78 -9h6c16 0 25 0 25 10
c0 18 -6 35 -6 55c0 51 16 105 33 135c9 18 24 30 41 30c52 0 54 -77 54 -128c0 -16 -3 -38 -5 -53l-4 -32c-1 -2 -1 -3 -1 -4c0 -9 15 -13 23 -13c26 0 47 9 70 9c10 0 15 -4 15 -15c0 0 1 -1 1 -5c0 -5 -1 -13 -5 -22c-8 -18 -23 -40 -36 -55c-7 -8 -14 -12 -21 -13
c-9 0 -13 5 -13 12v8c0 14 0 36 -4 47c-2 7 -3 10 -4 10c-6 0 -15 4 -25 4c-7 0 -12 -3 -13 -9c-5 -41 -28 -95 -41 -129c-2 -5 -6 -7 -11 -7c-4 0 -9 3 -12 10c-9 28 -18 69 -23 101c-5 25 -7 34 -29 34c-3 0 -7 0 -11 -1c-6 0 -11 -3 -14 -3zM-178 654
c-17 0 -23 -19 -23 -35s3 -41 20 -41c18 0 25 22 25 40c0 17 -4 36 -22 36z" />
    <glyph glyph-name="uni2DFD" unicode="&#x2dfd;" 
d="M-287 595c0 -8 4 -16 -4 -16h-31c-11 0 -17 1 -17 13c0 3 1 5 1 8c16 49 60 80 93 114c8 9 29 33 29 46s-25 24 -32 31c-3 4 -3 8 0 11c2 5 8 7 15 7c12 0 27 -4 35 -4h7c15 0 33 0 40 -6c2 -1 3 -5 4 -11v-12c0 -9 3 -12 10 -21c17 -19 38 -44 54 -64
c21 -28 49 -51 54 -89c0 -6 2 -13 2 -17s-1 -7 -5 -7c-6 0 -23 1 -30 1c-6 0 -15 -2 -23 -2c-7 0 -13 2 -14 8c-2 7 2 8 0 18c-5 19 -19 38 -34 50c-7 7 -13 13 -22 11c-3 -1 -4 -2 -4 -5c0 -17 3 -40 3 -58c1 -7 4 -17 0 -21c-4 -2 -28 -3 -34 -3c-3 0 -6 -1 -10 -1
c-12 0 -27 2 -27 9v8c0 21 9 51 9 74c1 7 -11 11 -18 8c-12 -5 -32 -25 -39 -37c-6 -8 -12 -28 -12 -43zM-217 699c4 -2 19 -3 26 -3c8 0 29 3 29 10c0 1 -1 3 -2 4c-5 4 -20 20 -23 27c-2 3 -4 3 -6 3c-5 0 -9 -11 -13 -17c-5 -7 -8 -11 -11 -13c-2 -2 -3 -3 -3 -5
s1 -4 3 -6z" />
    <glyph glyph-name="uni2DF2" unicode="&#x2df2;" 
d="M-342 686c0 -22 0 -30 22 -30c18 0 42 6 44 10c2 2 2 5 2 9v34v8v28c2 18 0 26 10 33c16 10 40 15 62 19c4 1 8 2 12 2c8 0 12 -4 12 -12c0 -10 -10 -18 -10 -29v-6c0 -15 -2 -36 -2 -54c0 -6 2 -11 2 -16c0 -19 10 -21 22 -21h16c12 0 30 0 36 6c4 6 4 20 4 31
c0 24 -4 45 -8 65c0 4 -2 8 -2 11c0 19 14 22 32 26c4 2 8 2 10 2s6 1 8 1c12 0 26 -4 34 -5c6 -2 8 -6 8 -13c0 -14 6 -34 8 -52c2 -19 4 -40 4 -61c0 -8 0 -16 -2 -24c0 -14 -6 -25 -18 -25h-2c-44 0 -82 4 -130 4c-58 0 -114 -6 -174 -6c-24 0 -50 1 -68 1
c-16 1 -16 6 -16 20s-2 37 -2 54v13c0 29 2 58 18 69s40 18 66 18h2c10 0 16 -3 16 -11c0 -13 -12 -17 -14 -30c0 -11 -2 -35 -2 -49v-20z" />
    <glyph glyph-name="uni2DF3" unicode="&#x2df3;" 
d="M-130 629c18 0 39 1 39 17c0 1 0 3 -1 4c0 20 -2 43 -2 66c0 8 0 16 2 23c4 30 4 55 30 56c4 1 10 1 14 1c6 1 20 5 28 5c4 0 10 -1 10 -5c0 -5 -4 -9 -6 -9c-6 0 -12 -27 -14 -35c-4 -27 -4 -51 -4 -89c2 -9 4 -18 6 -26c4 -9 2 -21 -6 -24c0 -1 -2 -1 -4 -2
c-6 0 -18 -2 -28 -2c-4 0 -8 1 -10 1c-6 1 -13 2 -20 2c-4 0 -8 -1 -11 -1c-4 0 -7 1 -11 1c-6 1 -14 3 -20 3h-14c-4 -2 -18 1 -20 -2c-2 -1 -6 -6 -6 -10v-22c0 -36 -10 -69 -28 -90c-2 -3 -4 -5 -8 -5h-2c-6 0 -14 2 -22 6c-2 3 -2 8 -2 14c0 12 2 26 4 32
c2 19 6 40 6 62c0 5 0 11 -2 16c-18 0 -34 2 -52 2c-20 0 -34 -2 -54 -4c-10 -1 -18 -2 -18 -3v-1h-2c-8 0 -24 3 -28 15c-2 6 -2 13 -2 20c0 21 6 43 10 60c6 22 10 41 16 62c6 19 10 19 22 27c16 0 38 3 54 3c8 -1 14 -6 6 -13c-6 -6 -6 -11 -12 -17
c-13 -24 -21 -57 -26 -102c2 -20 4 -29 24 -29h46c12 0 14 6 14 24v46c0 31 6 47 12 65c2 17 10 19 30 22c10 0 20 3 30 6h2c14 0 14 -12 4 -18c-14 -12 -18 -46 -20 -72c-2 -13 -2 -29 -2 -48c2 -16 4 -13 8 -24c2 -5 10 -8 18 -8h22z" />
    <glyph glyph-name="uni047A" unicode="&#x47a;" horiz-adv-x="965" 
d="M457 -163c-25 0 -47 18 -51 36c-1 15 0 9 -11 16c-2 1 -13 4 -34 9c-58 12 -118 34 -172 61c-70 34 -129 88 -165 159c-16 32 -24 72 -24 112c0 48 12 96 32 133c56 98 152 163 255 210c28 13 51 22 71 29c29 9 28 7 38 18c3 2 4 6 5 12s6 14 15 23s24 14 44 15
c25 0 43 -11 51 -28c2 -4 3 -7 3 -10c0 -10 5 -16 11 -19c1 -1 11 -4 32 -9c58 -15 118 -42 173 -72c70 -39 131 -95 168 -166c18 -34 27 -76 27 -117c0 -47 -11 -94 -33 -131c-66 -114 -195 -182 -338 -216c-19 -5 -29 -8 -30 -9c-7 -9 -8 -3 -11 -19
c-3 -20 -31 -37 -56 -37zM401 -54c0 31 22 51 55 51h3c23 0 35 -12 45 -24c5 -7 9 -16 11 -25c2 -6 5 -8 9 -8c7 0 16 5 26 10c89 38 166 106 201 202c11 30 18 67 18 104c0 31 -5 62 -16 87c-33 75 -93 128 -158 167c-18 12 -33 20 -46 26c-13 5 -20 8 -21 8
c-2 1 -5 1 -7 1c-6 0 -11 -3 -12 -8c-1 -4 -5 -10 -12 -19c-7 -8 -20 -12 -39 -12c-28 0 -42 12 -49 32c-1 3 -4 4 -7 4c-20 0 -68 -31 -79 -38c-61 -41 -117 -98 -143 -175c-9 -25 -13 -53 -13 -82c0 -37 7 -74 18 -103c29 -75 79 -131 139 -172c15 -10 28 -18 39 -23
l18 -9c4 -1 8 -2 13 -2s7 3 7 8z" />
    <glyph glyph-name="uni0470" unicode="&#x470;" horiz-adv-x="748" 
d="M387 359c0 -68 -4 -125 -4 -194c0 -15 0 -29 1 -41c3 17 7 38 12 62l12 74c7 38 17 85 22 120c12 59 15 105 35 152c11 27 32 67 51 86c14 16 38 33 72 38c11 1 23 2 36 2c33 0 67 -6 84 -20c-4 -24 -17 -56 -24 -80c-3 -9 -4 -16 -4 -20c0 -26 -5 -57 -12 -77
c-4 -8 -9 -13 -14 -13c-4 0 -8 3 -12 10c-13 21 -24 59 -59 59c-17 0 -31 -3 -40 -9s-20 -15 -33 -26c-4 -3 -8 -12 -13 -26c-26 -81 -39 -181 -57 -268c-17 -106 -35 -232 -56 -333c-1 -7 -9 -9 -19 -9s-20 4 -27 4c-10 0 -25 -4 -35 -4h-7c-3 0 -6 4 -6 7
c-36 130 -72 240 -109 359c-22 72 -39 135 -64 205c-17 47 -33 102 -50 145c-5 18 -3 44 -26 44c-12 0 -11 -3 -23 -3c-10 0 -18 14 -18 24c0 9 9 28 18 28c31 -3 49 -4 82 -4c40 0 76 4 115 4c8 0 17 -1 26 -1c8 0 11 -9 11 -17c0 -22 -12 -32 -33 -32
c-12 0 -18 -7 -18 -18c0 -73 43 -144 63 -203c27 -81 53 -176 80 -256c0 70 -3 165 -6 234c-2 22 -2 35 -2 38v52c-18 8 -42 30 -42 55c0 3 1 5 1 7c3 23 22 44 41 52c1 18 2 35 2 51c0 34 -1 85 -28 92c-45 13 -90 37 -107 77c-5 11 -7 23 -7 36c0 94 75 132 168 132h15
c47 -2 68 -18 99 -34c4 -2 8 -3 11 -3c15 0 23 14 33 21c2 3 5 4 7 4c7 0 12 -8 12 -17c0 -21 -19 -36 -32 -43c-4 -2 -8 -3 -12 -3c-19 0 -38 22 -50 31c-16 11 -36 20 -64 20c-53 0 -82 -43 -85 -100v-9c0 -41 21 -69 52 -84c18 -9 35 -37 35 -65c0 -3 -1 -6 -1 -9
c-1 -5 -1 -13 0 -27v-72c16 -9 38 -30 38 -54c0 -2 -1 -5 -1 -7c-3 -22 -19 -40 -36 -49c0 -20 1 -42 1 -58c1 -11 1 -23 1 -37z" />
    <glyph glyph-name="uni2DEB" unicode="&#x2deb;" 
d="M-178 661c-2 -13 -10 -15 -26 -15h-62c0 -1 -2 -1 -2 -1c-4 0 -8 6 -8 10c2 40 12 82 20 115c6 16 6 21 20 24c62 0 138 7 200 7h4c8 0 12 -12 12 -28c0 -17 -4 -38 -6 -49c-2 -21 1 -75 -18 -75c-12 -1 -22 -1 -32 -1h-22c-16 0 -22 0 -22 12c0 23 10 54 10 77
c0 8 4 18 -8 18c-6 0 -14 1 -22 1c-12 0 -24 -2 -24 -13c0 -7 -6 -21 -8 -31c-2 -14 -6 -35 -6 -51z" />
    <glyph glyph-name="uni2DED" unicode="&#x2ded;" 
d="M-25 739c7 0 11 -6 11 -13c0 -9 -8 -16 -14 -23c-25 -32 -76 -56 -135 -56c-29 0 -51 9 -51 38c0 33 25 61 43 79c15 15 37 33 57 39c14 0 19 -3 19 -8s-5 -11 -10 -18c-11 -14 -22 -23 -29 -41c-2 -4 -2 -8 -2 -11c0 -12 12 -24 26 -24s27 8 36 14c6 3 33 24 49 24z" />
    <glyph glyph-name="uniA64C" unicode="&#xa64c;" horiz-adv-x="1056" 
d="M589 574c0 57 52 89 110 89c23 0 48 -6 71 -14c58 -18 107 -58 146 -101c60 -68 98 -167 100 -295v-7c0 -119 -30 -208 -78 -274c-33 -47 -77 -83 -125 -104c-30 -13 -74 -21 -115 -21c-40 0 -81 8 -103 25c-34 26 -60 63 -80 103c-45 -73 -103 -139 -220 -139h-3
c-33 1 -67 7 -102 18c-50 17 -89 58 -118 107c-44 71 -68 166 -72 284v19c0 108 30 192 74 254c36 51 85 92 139 114c22 9 44 13 66 13c36 0 69 -12 89 -35c11 -13 22 -32 22 -56c0 -27 -27 -56 -45 -64c-9 -5 -18 -7 -27 -7c-32 0 -60 21 -60 52c0 14 10 27 10 42
c0 12 -13 24 -25 24c-11 0 -21 -8 -31 -19c-60 -63 -81 -188 -81 -314c0 -109 21 -215 59 -288c23 -45 64 -92 128 -92c40 0 69 20 96 38c26 17 53 50 53 94v5c0 35 -4 61 -21 77c-6 5 -12 14 -12 22c0 5 3 9 11 10c3 0 7 1 11 1c17 0 41 -3 55 -3c10 0 39 5 61 5
c14 0 25 -2 26 -9c0 -5 -3 -9 -8 -14c-16 -21 -31 -40 -31 -78v-8c3 -53 35 -97 72 -118c16 -8 34 -12 52 -12c34 0 69 13 92 31c50 37 74 105 87 185c4 32 7 79 7 125c0 50 -3 101 -7 136c-7 71 -17 124 -43 169c-9 15 -19 29 -29 42c-11 14 -21 21 -38 21
c-12 0 -21 -6 -21 -17s6 -22 6 -33c0 -5 -1 -10 -3 -16c-8 -20 -17 -24 -37 -36c-9 -5 -19 -8 -29 -8c-49 0 -79 32 -79 77z" />
    <glyph glyph-name="uniA64D" unicode="&#xa64d;" horiz-adv-x="978" 
d="M763 78c29 0 61 11 61 40c0 62 -13 125 -49 153c-20 16 -40 29 -66 32h-8c-13 0 -25 -4 -33 -9c-4 -3 -7 -4 -10 -4c-6 0 -9 5 -9 12c0 9 3 11 10 20c19 23 49 50 79 62c10 4 22 6 33 6c34 0 70 -15 91 -27c29 -16 41 -31 55 -65c12 -28 20 -65 20 -102
c0 -27 -5 -54 -16 -76c-36 -69 -116 -113 -211 -120h-12c-49 0 -103 17 -142 29c-25 9 -48 16 -68 24c-21 6 -35 10 -44 10s-24 -4 -45 -10c-45 -15 -101 -33 -153 -44c-23 -6 -44 -8 -65 -8s-42 2 -64 6c-53 9 -80 35 -100 79c-11 24 -17 54 -17 85c0 53 16 107 38 136
c38 48 86 70 164 77c7 1 14 1 22 1c45 0 88 -15 110 -38c7 -7 10 -15 9 -22c-23 -12 -46 -28 -58 -49c-23 17 -45 30 -74 41c-10 4 -20 5 -29 5c-48 0 -70 -36 -70 -84c0 -34 17 -77 32 -105c17 -33 46 -71 91 -74h4c48 0 95 26 130 44c23 12 44 23 65 34c23 12 38 20 59 20
c9 0 19 -2 31 -4c71 -18 138 -54 208 -72c10 -2 20 -3 31 -3z" />
    <glyph glyph-name="uni046E" unicode="&#x46e;" horiz-adv-x="531" 
d="M48 173c-17 0 -25 12 -25 29c0 12 6 18 13 26c13 17 41 39 62 56c24 20 58 49 83 63c37 21 87 40 121 64c20 13 26 25 34 42c3 8 4 13 4 22c-1 5 -1 5 -2 15c-4 33 -27 51 -58 51c-23 0 -48 -11 -62 -20c-24 -22 -31 -35 -35 -71c-3 -24 -24 -34 -44 -43
c-13 -7 -34 -15 -48 -19c-6 -2 -12 -4 -18 -4c-10 0 -19 4 -25 10c-6 11 -8 23 -8 35c0 39 25 77 45 95c7 6 16 13 27 19l30 22c16 10 38 24 47 38s16 21 16 34c0 35 -36 52 -59 67c-16 10 -44 23 -53 35c-8 10 -14 15 -14 25c0 5 2 11 4 19c7 23 26 26 53 29h9
c47 0 82 -18 108 -38c15 -12 28 -26 38 -43c23 22 51 45 79 61c24 13 49 17 79 17c18 0 38 -29 41 -44v-6c0 -11 -3 -13 -10 -20c-5 -8 -25 -13 -36 -18c-35 -13 -67 -28 -90 -54c-20 -23 -36 -45 -50 -72c40 -1 73 -7 107 -16c44 -10 78 -41 78 -87c0 -42 -33 -63 -63 -83
c-16 -11 -39 -23 -52 -32c-6 -4 -14 -14 -14 -24s4 -23 14 -23c15 0 36 -7 51 -11c38 -13 65 -31 65 -79v-15c-3 -28 -11 -53 -29 -66c-56 -43 -144 -59 -234 -68c-41 -4 -61 -33 -61 -77c0 -32 10 -61 42 -61c42 4 88 24 124 38c14 6 27 12 38 17c10 5 21 7 32 7
c38 0 74 -28 76 -62v-6c0 -24 -7 -45 -18 -59c-14 -16 -24 -30 -48 -37c-10 -2 -23 -6 -35 -6c-13 0 -25 4 -35 7c-23 7 -45 19 -64 29c-8 3 -16 5 -22 5c-18 0 -31 -12 -45 -21c-23 -14 -47 -21 -87 -23c-15 -1 -27 -1 -37 -1c-32 0 -45 11 -59 29c-19 20 -28 44 -28 74v12
c0 37 14 58 37 82c27 28 71 58 115 75c45 17 98 28 146 42c32 10 53 17 53 55c0 40 -23 68 -57 81c-14 6 -25 9 -35 9c-25 0 -48 -18 -61 -33c-13 -12 -16 -23 -16 -44c0 -9 -23 -17 -32 -21s-20 -8 -33 -12l-21 -7c-9 -3 -32 -10 -48 -10z" />
    <glyph glyph-name="uniA640" unicode="&#xa640;" horiz-adv-x="571" 
d="M244 573c2 -8 4 -14 4 -24c0 -9 -3 -12 -13 -12c-12 0 -28 -3 -41 -4c-22 -1 -37 -8 -58 -10c-10 -1 -22 -1 -24 6l-8 40c-1 5 -1 9 -1 13c0 18 8 32 25 34c42 0 101 -3 145 -3c4 -1 9 -1 13 -1c57 0 116 7 176 10c10 0 21 -7 15 -18c-2 -11 -1 -16 -9 -23
c-68 -68 -146 -158 -207 -238c-21 -28 -38 -53 -52 -76c-18 -31 -26 -46 -26 -75c0 -3 0 -6 1 -9c0 -14 2 -24 7 -32c16 1 33 2 51 2c66 0 137 -5 180 -31c46 -28 84 -65 102 -117c5 -16 7 -33 7 -50c0 -20 -3 -40 -7 -60c-10 -50 -54 -95 -88 -123c-19 -16 -37 -29 -52 -39
c-27 -17 -23 -11 -39 -24c-3 -2 -6 -3 -9 -3c-11 0 -19 13 -26 18c-1 2 -1 4 -1 7c0 14 4 14 15 24c14 14 30 32 44 48c22 28 35 78 35 117c0 71 -38 119 -85 147c-31 18 -71 29 -115 29c-14 0 -28 -1 -43 -3c-40 -6 -81 -14 -118 -19c-4 -1 -8 -1 -12 -1
c-15 0 -21 6 -27 18c-3 5 -4 10 -3 14c0 36 8 72 23 94c19 31 45 60 69 88c53 61 118 129 170 192c20 23 41 48 60 70c5 4 7 8 8 9c4 4 9 11 7 18c-17 1 -31 2 -44 2h-14c-14 0 -31 -1 -35 -5z" />
    <glyph glyph-name="uniA67C" unicode="&#xa67c;" 
d="M-76 725c-26 -28 -69 -40 -123 -40c-47 0 -73 9 -101 27c-24 15 -45 46 -45 87c0 5 0 8 1 14c2 15 7 37 20 39c3 1 7 1 12 1c9 0 21 -1 28 -1h29c11 0 16 -12 16 -25c0 -4 0 -8 -1 -11s-1 -6 -1 -9c0 -18 11 -40 21 -46c7 -5 17 -7 28 -6c21 0 43 22 43 46
c0 4 -1 9 -2 12c-2 8 -3 14 -3 21c0 9 6 15 13 17c22 1 41 3 61 3c25 0 32 -10 36 -32c1 -6 2 -10 2 -16c0 -33 -16 -61 -34 -81z" />
    <glyph glyph-name="uni0486" unicode="&#x486;" 
d="M-88 905c39 0 73 -17 73 -51c0 -5 -1 -9 -2 -14c-10 -45 -49 -86 -82 -109c-8 -5 -21 -15 -31 -15c-9 0 -15 7 -15 17c2 7 8 13 14 21s23 30 23 47c0 14 -20 21 -32 21c-15 0 -30 -6 -40 -16c-18 -16 -35 -38 -48 -58c-7 -13 -17 -33 -30 -33c-15 0 -22 14 -22 24
c0 39 70 110 84 123c26 24 67 43 108 43z" />
    <glyph glyph-name="uniA657" unicode="&#xa657;" horiz-adv-x="535" 
d="M269 204c0 14 -14 22 -28 22c-3 0 -8 0 -12 -1c-40 0 -99 -4 -105 -38c-1 -13 -1 -29 -1 -46v-20c0 -36 0 -74 4 -104c0 -14 -22 -18 -46 -18c-20 0 -42 3 -51 6c-17 3 -20 7 -20 21v13c2 44 11 96 13 139c3 55 13 118 21 168c3 19 21 30 43 30c2 0 3 0 5 -1h1
c13 0 34 9 49 9c13 0 20 -10 20 -22c0 -17 -16 -31 -23 -42c-7 -10 -8 -25 -10 -44c0 -14 6 -23 19 -23h5c26 0 46 3 80 4c36 2 62 11 77 30c10 11 14 28 14 46c0 10 -3 21 -3 31c0 17 15 17 33 17h1c8 0 20 1 27 1c7 1 33 8 43 8h3c8 -2 12 -2 11 -11c0 -15 -1 -41 -1 -61
c0 -99 22 -177 44 -255c5 -14 8 -23 10 -26s2 -5 2 -8c0 -24 -32 -20 -55 -23c-10 0 -22 -1 -32 -1h-16c-16 0 -16 20 -19 36c-2 15 -6 33 -8 47c-2 12 -7 31 -21 31c-2 0 -5 -1 -9 -3c-19 -10 -25 -27 -35 -53c-11 -27 -38 -66 -73 -66c-21 0 -29 16 -29 36
c0 30 9 51 19 74c13 26 29 54 46 76c4 6 7 14 7 21zM274 132c0 -11 8 -19 20 -19c11 0 19 8 26 15c10 12 31 31 31 51v6c0 19 -1 52 -16 52c-7 0 -13 -10 -19 -20c-11 -15 -24 -36 -33 -55c-4 -8 -9 -20 -9 -30z" />
    <glyph glyph-name="uni2DE0" unicode="&#x2de0;" 
d="M-150 780c-22 0 -25 -4 -30 -19c0 -8 -4 -23 -6 -34c-2 -12 -6 -32 -6 -44c0 -6 0 -13 10 -8c12 4 26 16 42 16c16 -4 30 -35 38 -52c6 -17 12 -38 12 -55c0 -8 -4 -8 -10 -11h-78c-10 0 -26 -1 -36 -1h-32c-12 0 -14 8 -14 20c0 5 2 12 2 18c0 3 -2 5 -2 8
c0 35 10 108 16 138c4 22 8 33 8 34c4 4 8 6 12 6h54c32 0 66 1 90 6c6 1 12 2 18 2s8 -3 8 -7c0 -8 -12 -23 -14 -26c-12 -12 -18 -17 -24 -33c-4 -7 -8 -11 -12 -12c-8 0 -20 22 -20 30c-2 17 -6 24 -26 24zM-184 645c-12 0 -14 -16 -14 -31c0 -12 2 -22 12 -22
c15 0 25 2 25 17c0 1 0 2 -1 4c0 20 -6 26 -16 30c-2 1 -4 2 -6 2z" />
    <glyph glyph-name="uni2DF0" unicode="&#x2df0;" 
d="M-78 527c0 24 10 45 10 71c0 6 -2 11 -2 16c-2 11 0 13 -16 13c-6 1 -14 1 -22 1c-14 0 -34 -1 -48 -1c-28 0 -62 -4 -90 -4h-2c-10 0 -12 14 -12 33c0 44 16 117 20 124c4 17 20 18 42 18c4 0 22 4 26 4c10 1 14 -6 12 -15c-22 -15 -34 -68 -34 -109c0 -5 0 -9 2 -13
c0 -13 4 -16 18 -18c6 0 14 -1 22 -1c10 0 20 1 32 2c-2 7 -2 15 -2 23v25c0 9 0 19 2 30c0 19 8 44 14 60c2 11 8 17 20 17c10 0 24 -1 34 -1c4 0 10 1 14 1s8 -1 8 -6c0 -2 0 -4 -2 -7s-6 -17 -6 -24c-8 -27 -12 -65 -12 -97v-18h10c22 0 28 -19 28 -43
c0 -23 -6 -51 -10 -67c-4 -15 -6 -28 -20 -28c-2 -1 -4 -1 -4 -1c-16 0 -32 4 -32 15z" />
    <glyph glyph-name="uni2DE3" unicode="&#x2de3;" 
d="M-572 798c-19 0 -44 5 -44 24c2 31 32 55 54 69c30 18 82 28 128 28c38 0 52 -4 68 -31c22 -34 42 -68 62 -107c20 -45 42 -85 62 -126c8 -10 8 -11 22 -14c16 0 46 -1 66 -1c36 0 76 1 102 6c8 1 14 2 16 2c10 0 16 -6 16 -13c0 -19 -29 -33 -40 -43
c-6 -6 -26 -34 -32 -38c-8 -3 -12 -7 -18 -7c-4 0 -6 2 -12 8c-8 14 0 37 -18 44s-60 6 -88 7c-82 1 -156 4 -238 4c-26 0 -60 -1 -82 -1c-10 0 -24 -1 -24 -10c0 -18 0 -41 -16 -41c-4 0 -8 0 -12 2c-20 8 -54 49 -66 64c-8 9 -10 15 -10 20c0 9 6 11 13 11
c11 0 25 -5 33 -7c22 -5 48 -8 74 -8c12 0 26 1 40 2c40 4 54 0 68 30c12 22 24 44 34 68c2 6 4 14 4 22c0 5 -2 9 -4 13c-12 17 -26 44 -38 61c-8 13 -14 17 -24 23c0 1 -2 2 -4 2c-14 0 -26 -31 -30 -39c-10 -13 -36 -24 -62 -24zM-360 650c12 0 16 5 16 11
c0 9 -10 22 -14 29s-10 27 -20 27c-2 0 -4 -1 -6 -1c-12 -8 -16 -35 -22 -48v-4c0 -13 15 -15 32 -15c4 0 10 0 14 1z" />
    <glyph glyph-name="uni2DE2" unicode="&#x2de2;" 
d="M-262 620c-15 0 -25 3 -25 16v4c0 43 3 105 3 148c4 14 10 19 28 19c2 0 4 0 6 -1c24 0 56 -2 79 -2c31 0 76 5 109 5c7 -1 13 -8 13 -17s-5 -12 -13 -18c-15 -11 -25 -26 -32 -43c-5 -10 -8 -21 -18 -21c-9 0 -20 6 -20 11c0 9 -1 24 -3 32c0 10 -30 11 -41 11
c-13 0 -23 -4 -23 -14c0 -13 1 -41 1 -59s1 -45 1 -59v-2c0 -9 -16 -10 -30 -10h-35z" />
    <glyph glyph-name="uni2DEF" unicode="&#x2def;" 
d="M-510 637c-18 0 -28 43 -28 62c0 32 22 55 42 71c34 27 80 47 134 52c8 1 14 2 22 2c30 0 46 -10 62 -30c10 -13 22 -28 36 -45c6 -7 10 -9 16 -9s10 4 18 10c12 12 28 24 44 35c10 8 24 15 42 15h4c12 -1 26 -4 40 -4c20 0 24 30 28 45c4 7 10 10 18 10
c16 0 28 -8 28 -21c0 -30 -18 -49 -32 -69c-10 -12 -28 -32 -44 -34c-18 0 -24 19 -38 22c-6 1 -14 2 -22 2c-16 0 -32 -22 -40 -31c-8 -8 -12 -16 -12 -24c0 -5 4 -9 8 -17c12 -17 28 -36 40 -51c8 -10 18 -16 12 -24c-12 -18 -38 -22 -50 -40c-4 -6 -10 -9 -18 -8
c-10 0 -24 20 -32 28c-8 11 -20 27 -26 36c-4 5 -8 7 -12 7c-8 0 -18 -12 -26 -19c-18 -18 -42 -41 -62 -58c-10 -8 -16 -13 -18 -14s-4 -2 -6 -2c-8 0 -14 8 -10 16c0 3 4 8 12 17c16 17 36 38 54 55c10 13 22 24 22 38c0 5 -2 11 -6 17c-8 8 -20 28 -30 40
c-14 18 -26 42 -50 45h-4c-20 0 -34 -22 -34 -46c0 -4 0 -8 2 -12v-8c0 -20 -24 -21 -36 -30c-14 -8 -28 -27 -46 -28z" />
    <glyph glyph-name="uni2DE6" unicode="&#x2de6;" 
d="M-112 574c-4 1 -25 -2 -28 -2c-5 0 -8 5 -7 13c0 38 -17 78 -32 101c-3 5 -1 13 1 17c18 36 46 85 93 93c14 2 32 5 47 5h13c3 -1 5 -3 5 -5c0 -9 -21 -26 -24 -30c-4 -6 -10 -29 -19 -29c-3 0 -9 1 -12 9c-3 7 -8 12 -14 12c-16 0 -40 -23 -46 -31c-1 -1 -12 -19 -8 -20
c2 -1 4 -6 8 -3c3 1 6 1 9 0c5 0 13 -18 16 -23c14 -25 25 -58 29 -92c1 -5 1 -9 1 -10c-1 -4 -3 -6 -6 -6s-22 1 -26 1zM-195 805c9 0 15 -5 15 -13c0 -10 -11 -18 -14 -25c-11 -22 -17 -56 -19 -86v-28c0 -18 2 -40 2 -57c1 -8 1 -14 2 -17c0 -10 -17 -11 -31 -11h-9
c-10 0 -31 1 -33 8c-1 3 -2 7 -2 11c0 10 3 22 3 30c2 17 5 41 6 57c0 33 4 72 4 104c3 19 28 16 46 20c5 2 19 7 30 7z" />
    <glyph glyph-name="uni2DE7" unicode="&#x2de7;" 
d="M-57 586c-11 0 -27 1 -36 1c-7 0 -11 9 -12 16l-5 15c-3 8 -4 46 -15 46c-15 0 -46 -33 -51 -39c-9 -10 -20 -20 -23 -34c-2 -14 -18 -9 -32 -11c-4 -1 -8 -1 -13 -1c-15 0 -20 6 -20 14c0 20 30 54 36 60c4 5 9 9 14 12c18 10 45 38 58 54c13 14 23 27 23 51
c0 6 -1 10 -1 13c0 16 43 17 65 17h8c10 0 8 -5 10 -13c0 -2 0 -6 1 -12v-22c6 -51 21 -96 38 -135c2 -5 6 -13 6 -19c0 -12 -23 -13 -40 -13h-11z" />
    <glyph glyph-name="uni2DE8" unicode="&#x2de8;" 
d="M-582 504c-26 0 -38 12 -38 32c0 15 8 32 18 42c10 13 28 32 46 35c16 3 14 -9 26 -12c2 -1 6 -1 8 -1c10 0 18 4 26 10c22 16 46 37 64 64c20 33 46 71 72 100c12 16 28 26 44 33c6 2 10 3 14 3c10 0 16 -5 16 -16c0 -16 -2 -17 -14 -36c-10 -14 -18 -29 -18 -47
c0 -6 2 -12 4 -19c8 -24 24 -47 40 -63c4 -3 10 -4 16 -4c12 0 24 1 28 4c24 16 40 50 58 77c20 33 46 68 80 88c6 3 16 5 24 5s14 -2 14 -9c0 -2 -2 -5 -4 -9c-14 -29 -40 -47 -40 -93c0 -16 2 -31 10 -50c8 -27 26 -62 54 -99c6 -4 8 -6 8 -10c0 -16 -48 -36 -66 -36
c-32 0 -46 42 -60 65c-12 20 -28 42 -58 42c-10 0 -16 -1 -22 -6c-6 -3 -14 -12 -26 -26c-14 -14 -28 -35 -44 -64c-4 -6 -12 -9 -20 -9c-10 0 -20 4 -20 11c-8 29 -20 65 -34 88c-8 14 -20 22 -36 22c-18 0 -24 -14 -36 -28c-20 -21 -48 -45 -72 -62
c-20 -15 -34 -22 -62 -22z" />
    <glyph glyph-name="uni2DE9" unicode="&#x2de9;" 
d="M-127 648c0 10 8 21 8 34c0 6 -3 11 -10 11c-1 0 -3 -1 -5 -1c-3 -1 -7 -1 -11 -1c-13 0 -29 3 -41 3c-10 0 -15 -3 -18 -10c-4 -16 -11 -52 -30 -52h-10c-11 0 -22 2 -34 2c-6 0 -12 7 -12 14c0 6 1 13 6 28c7 26 18 60 27 86c5 13 8 22 11 27c8 8 14 17 30 17h4h2
c12 0 30 0 30 -9c0 -8 -9 -29 -9 -42c0 -7 2 -12 9 -13c8 -2 21 -3 30 -3c25 0 35 1 42 21c4 13 6 19 6 30s22 11 35 11h1c10 0 33 0 33 -8c0 -4 1 -7 1 -12c0 -4 -1 -10 -2 -19c-6 -37 -15 -85 -26 -117c-3 -11 -10 -14 -22 -14c-4 0 -9 1 -14 1c-18 1 -31 2 -31 16z" />
    <glyph glyph-name="uni2DEC" unicode="&#x2dec;" 
d="M-94 573c0 -37 12 -63 12 -96c0 -28 -18 -32 -50 -32c-10 0 -14 3 -14 10v8c0 3 4 6 8 6v19c0 54 -14 104 -14 159c0 36 14 85 30 105c12 18 38 34 58 43c8 4 12 5 16 5c12 0 20 -9 26 -15l4 -48c0 -11 2 -23 2 -34c0 -41 -8 -80 -24 -104c-4 -8 -16 -11 -28 -11
c-8 0 -16 1 -20 3c-6 0 -4 -4 -6 -6v-12zM-74 702c-21 0 -26 -17 -26 -37c0 -12 4 -19 16 -19l2 1c14 0 20 18 20 35v9c-2 8 -6 11 -12 11z" />
    <glyph glyph-name="uni047B" unicode="&#x47b;" horiz-adv-x="495" 
d="M300 22c0 -29 -27 -48 -57 -48c-27 0 -40 12 -49 27c-13 -1 -23 -1 -31 1c-94 20 -161 69 -163 183c0 47 24 81 50 106c29 29 70 53 112 69c2 32 21 52 55 54h7c23 0 38 -7 47 -21c2 -2 3 -5 3 -6h16c50 0 90 -32 114 -61c25 -29 51 -74 51 -121c0 -40 -26 -74 -48 -97
c-28 -29 -67 -56 -105 -74c-1 -6 -1 -10 -2 -12zM296 85c28 15 56 39 56 78c0 51 -30 95 -56 121c-8 9 -18 15 -29 20c-9 -15 -23 -24 -48 -24c-23 0 -40 8 -47 23c-32 -9 -58 -31 -60 -65c0 -4 -1 -9 -1 -13c0 -49 23 -86 48 -113c9 -8 20 -17 33 -24c6 16 27 26 50 26h5
c24 0 43 -12 49 -29z" />
    <glyph glyph-name="uni0471" unicode="&#x471;" horiz-adv-x="630" 
d="M559 385c19 0 31 -6 31 -22c0 -10 -6 -24 -7 -32c-2 -12 -18 -24 -27 -32c-12 -10 -30 -22 -44 -28c-19 0 -33 17 -45 25c-4 2 -7 4 -10 4c-6 0 -11 -6 -19 -14c-61 -58 -105 -136 -123 -236c-2 -11 -3 -19 -2 -23c0 -1 1 -3 1 -4c0 -7 -8 -10 -16 -10c-4 0 -8 0 -11 1
l-3 -178l-4 -81c-2 -7 3 -16 7 -17c1 -1 2 -1 4 -1c8 0 22 11 26 14l20 14c7 5 12 9 19 9c9 0 16 -6 14 -16c-1 -4 -7 -11 -19 -21c-23 -19 -54 -41 -81 -56c-11 -7 -20 -10 -24 -10h-1c-18 0 -29 5 -29 23v156l6 165c-3 -1 -5 -1 -8 -1h-9c-3 0 -7 0 -10 1h-1
c-12 0 -19 7 -22 22c-4 33 -8 74 -22 111c-17 46 -44 97 -72 135c-16 22 -33 36 -50 43c-21 9 -33 19 -33 49c0 8 2 19 11 19c17 0 39 -4 60 -4c11 0 20 2 29 2c7 0 13 -2 19 -7c25 -19 47 -52 64 -81c17 -27 34 -57 51 -92c4 110 11 202 11 308c0 18 -10 26 -18 35
c-4 5 -9 8 -15 10c-12 2 -19 13 -19 25c0 13 3 16 17 21c48 16 115 17 162 34c4 1 7 2 10 2c13 0 18 -12 24 -23c4 -7 0 -12 -3 -18c-3 -3 -10 -8 -21 -13c-24 -11 -44 -33 -48 -62c0 -51 -5 -109 -7 -162c-2 -46 -4 -97 -6 -154c27 41 50 73 82 108c35 40 72 62 142 62h19z
" />
    <glyph glyph-name="uni047D" unicode="&#x47d;" horiz-adv-x="978" 
d="M293 686c0 -15 19 -25 19 -42c-7 -13 -28 -23 -41 -31c-14 -9 -27 -14 -43 -18h-3c-14 0 -19 21 -19 40c0 10 1 19 4 25c7 23 16 32 40 47c27 17 64 36 94 49c40 18 79 27 132 29c5 0 15 -2 28 -6c67 -20 138 -54 204 -76c16 -5 31 -9 47 -9c9 0 18 1 27 4
c8 2 32 12 45 12c4 0 8 -2 9 -4c0 -4 1 -6 1 -9c0 -10 -8 -14 -19 -22c-30 -23 -80 -45 -133 -45c-46 0 -98 18 -136 33c-36 14 -80 37 -112 48c-16 7 -40 10 -63 10c-32 0 -81 -6 -81 -35zM511 514c0 14 -21 24 -34 24c-5 0 -12 -1 -18 -4c-39 -16 -80 -57 -101 -89
c-2 -2 -4 -3 -6 -3c-7 0 -11 12 -11 20c0 9 3 17 9 24c36 43 74 84 132 107c13 5 32 9 49 9c28 0 44 -11 44 -39c0 -29 -20 -62 -33 -76c-12 -15 -24 -23 -34 -25h-4c-10 0 -19 6 -19 13c0 3 1 6 5 9l12 14c6 5 9 10 9 16zM763 77c29 0 61 11 61 40c0 62 -13 125 -49 153
c-20 16 -40 29 -66 32h-8c-13 0 -25 -4 -33 -9c-4 -3 -7 -4 -10 -4c-6 0 -9 5 -9 12c0 9 3 11 10 20c19 23 49 50 79 62c10 4 22 6 33 6c34 0 70 -15 91 -27c29 -16 41 -31 55 -65c12 -28 20 -65 20 -102c0 -27 -5 -54 -16 -76c-36 -69 -116 -113 -211 -120h-12
c-49 0 -103 17 -142 29c-25 9 -48 16 -68 24c-21 6 -35 10 -44 10s-24 -4 -45 -10c-45 -15 -101 -33 -153 -44c-23 -6 -44 -8 -65 -8s-42 2 -64 6c-53 9 -80 35 -100 79c-11 24 -17 54 -17 85c0 53 16 107 38 136c38 48 86 70 164 77c7 1 14 1 22 1c45 0 88 -15 110 -38
c7 -7 10 -15 9 -22c-23 -12 -46 -28 -58 -49c-23 17 -45 30 -74 41c-10 4 -20 5 -29 5c-48 0 -70 -36 -70 -84c0 -34 17 -77 32 -105c17 -33 46 -71 91 -74h4c48 0 95 26 130 44c23 12 44 23 65 34c23 12 38 20 59 20c9 0 19 -2 31 -4c71 -18 138 -54 208 -72
c10 -2 20 -3 31 -3z" />
    <glyph glyph-name="uni047F" unicode="&#x47f;" horiz-adv-x="590" 
d="M441 519c-18 0 -19 17 -19 37v9c0 16 -7 38 -25 38h-22c-10 -1 -10 1 -20 0c-22 -2 -23 -24 -25 -47v-12c0 -9 0 -19 2 -24c0 -1 1 -2 1 -2c0 -12 -36 -14 -61 -14c-7 0 -14 0 -18 1c-19 0 -23 1 -25 17c0 10 1 25 1 36c0 27 -3 43 -29 45c-5 1 -12 1 -18 1
c-15 0 -33 -1 -45 -3c-20 0 -24 -17 -24 -40c0 -12 2 -25 3 -32c0 -2 1 -4 1 -6c0 -13 -13 -14 -28 -16c-17 -4 -41 -6 -59 -7h-10c-14 0 -21 3 -21 17v5c0 25 7 57 7 83c0 11 8 16 16 20c3 1 19 2 48 3c141 3 305 10 446 23c4 1 7 1 10 1c9 0 12 -5 12 -13
c0 -30 -33 -47 -49 -63c-11 -12 -25 -40 -36 -51c-4 -4 -8 -6 -13 -6zM114 378c8 0 21 -1 27 -1c5 -1 7 -3 7 -5s0 -5 -1 -8c0 -5 -11 -15 -15 -21c-18 -22 -27 -40 -30 -80v-7c0 -32 10 -79 22 -103c13 -23 30 -41 49 -54c5 -3 9 -4 13 -4c10 0 18 8 26 16c9 9 28 28 28 46
c0 4 -1 8 -4 12c-12 19 -19 48 -23 84v10c0 41 14 71 30 95c18 22 30 25 63 25h8c12 0 23 -1 23 -10c0 -1 -1 -3 -1 -4c-1 -3 -4 -9 -10 -17c-9 -12 -17 -37 -17 -62v-7c4 -66 31 -124 61 -162c10 -14 17 -23 20 -26c3 -2 6 -3 8 -3c16 0 31 29 36 41c8 21 13 51 13 82
c0 44 -11 88 -25 116c-3 6 -4 10 -4 11c1 3 1 5 1 7c0 8 20 13 31 16c12 4 27 11 44 21c4 3 7 4 10 4c12 0 21 -15 26 -22c16 -18 19 -52 20 -87v-12c0 -39 -11 -74 -23 -103c-24 -58 -62 -102 -108 -134c-19 -13 -33 -22 -42 -25c-8 -3 -16 -4 -23 -4c-44 0 -63 55 -85 85
c-5 8 -17 11 -27 6c-2 -1 -8 -6 -17 -15c-18 -18 -43 -41 -61 -58s-15 -15 -34 -21c-2 0 -3 -1 -5 -1c-7 0 -15 3 -26 8c-25 17 -48 56 -63 88c-17 35 -34 82 -36 127c0 70 25 121 68 147c11 6 15 9 30 9h16z" />
    <glyph glyph-name="uni046F" unicode="&#x46f;" horiz-adv-x="444" 
d="M66 521c0 29 21 32 47 36h10c56 0 93 -29 117 -62c20 17 41 34 65 47c20 10 40 13 65 13c14 0 32 -21 33 -34v-5c0 -19 -23 -23 -39 -29c-28 -11 -54 -20 -74 -42c-15 -17 -28 -35 -40 -56c33 0 61 -5 88 -12c33 -8 65 -32 65 -66c0 -35 -29 -50 -52 -66
c-10 -7 -19 -12 -28 -16c-15 -8 -16 -7 -23 -18c-2 -3 -3 -7 -3 -10c0 -8 2 -18 11 -18c24 0 51 -11 69 -20c17 -9 27 -25 27 -47c0 -21 -7 -43 -13 -53c-9 -21 -45 -32 -66 -41c-26 -11 -69 -15 -101 -20c-49 -7 -86 -6 -86 -64c0 -23 8 -47 32 -47h2c21 0 45 9 64 16
c21 7 50 18 69 27c8 4 16 5 24 5c35 0 64 -21 64 -54c0 -17 -7 -36 -15 -46c-17 -20 -27 -29 -66 -31h-5c-32 0 -56 17 -78 27c-6 3 -12 4 -17 4c-15 0 -26 -10 -37 -17c-23 -14 -61 -18 -101 -18c-26 0 -38 8 -50 22c-16 16 -24 34 -24 57c0 10 1 20 4 31c9 28 37 56 84 84
c43 25 105 36 158 49c18 5 40 11 42 28c1 11 3 16 0 30c-6 29 -39 55 -74 55h-5c-31 0 -58 -29 -58 -60c0 -6 -20 -13 -26 -16c-23 -9 -55 -22 -87 -22c-11 0 -17 9 -17 22c0 8 5 15 10 20c2 3 8 8 18 17c21 17 48 39 71 56c39 28 87 43 129 70c16 10 21 18 27 32
c3 6 4 10 4 17c0 33 -20 51 -48 51c-19 0 -40 -8 -51 -16c-19 -16 -28 -27 -29 -54c-2 -20 -21 -27 -36 -34c-12 -5 -28 -12 -40 -15c-5 -1 -9 -1 -14 -1c-9 0 -17 2 -21 6c-5 9 -7 18 -7 28c0 30 21 60 38 73c12 11 32 22 46 31c13 9 32 20 39 31c8 11 13 16 13 25
c0 28 -29 40 -48 52c-13 8 -37 19 -44 28c-7 8 -12 11 -12 20z" />
    <glyph glyph-name="uniA641" unicode="&#xa641;" horiz-adv-x="521" 
d="M145 110c0 -14 3 -20 6 -29c17 1 36 2 56 2c69 0 140 -4 185 -31c64 -38 109 -86 109 -185c0 -24 -2 -48 -7 -72c-11 -53 -53 -113 -83 -152c-18 -24 -34 -44 -49 -60c-15 -17 -23 -25 -25 -26c-7 -3 -14 -10 -22 -10c-10 0 -19 12 -25 17c-1 2 -1 4 -1 7c0 5 1 9 3 12
c22 33 61 70 77 110c14 32 29 86 29 134v7c0 38 -14 73 -28 98c-9 16 -12 17 -25 30c-34 36 -98 54 -170 54c-47 0 -97 -4 -137 -8c-8 -1 -13 -1 -18 -1c-11 0 -15 3 -20 14c-1 2 0 3 0 5v8c0 7 2 14 3 28s8 30 20 47c17 32 60 70 88 96c21 19 43 38 66 57c0 28 -2 50 -2 75
s6 46 28 48c31 0 69 -4 101 -4c39 4 82 7 122 10c10 0 21 -7 15 -18c-4 -25 -6 -22 -33 -38c-81 -47 -177 -109 -238 -178c-15 -18 -23 -33 -25 -47zM297 311l16 8c10 5 19 11 19 24c0 1 -1 1 -1 2h-22c-10 0 -24 0 -28 -6c-3 -5 -5 -12 -5 -21v-16z" />
    <glyph glyph-name="uni0464" unicode="&#x464;" horiz-adv-x="794" 
d="M43 243c0 101 11 217 11 318c0 20 -26 44 -35 55c-3 4 -5 8 -5 12c0 11 13 20 26 20c26 0 53 -3 79 -3h31c21 0 36 3 56 3c14 0 20 -7 20 -15c0 -6 -3 -13 -8 -19c-10 -12 -35 -35 -35 -57c0 -83 -6 -191 -6 -278c0 -14 8 -15 23 -16c7 -1 18 -1 32 -1h8c24 0 41 0 51 10
v13c0 129 35 234 100 301c25 26 57 44 96 55c16 4 30 6 44 6c62 0 105 -39 131 -83c19 -32 34 -70 45 -114c6 -8 17 -23 17 -37c0 -27 -34 -27 -69 -27h-27c-21 2 -35 7 -35 23c0 9 2 20 3 37c0 52 -17 106 -44 133c-10 10 -21 14 -33 14c-20 0 -41 -13 -51 -30
c-28 -41 -35 -109 -35 -180c0 -31 2 -64 3 -95c0 -9 7 -19 16 -13c5 4 15 6 28 6c20 1 57 11 89 11c6 0 12 -1 17 -1c50 -8 102 -26 133 -53c21 -18 35 -44 35 -80c0 -10 -4 -12 -12 -12c-6 0 -14 1 -24 1c-2 1 -4 1 -6 1c-23 0 -43 -4 -66 -5c-10 -1 -20 -3 -29 -3
s-17 5 -17 14c0 3 1 7 3 11c3 6 5 15 5 25c0 37 -17 60 -54 60c-40 0 -71 -7 -92 -21c-9 -7 -20 -16 -20 -26c7 -77 20 -159 40 -220c9 -30 20 -52 32 -68c10 -14 21 -20 33 -20c10 0 21 5 30 14c16 16 31 43 31 71c0 11 -4 13 -4 21c0 14 5 19 22 23c28 6 59 9 93 9
c10 -3 15 -10 15 -19c0 -8 -4 -17 -10 -23c-7 -6 -13 -13 -18 -22c-13 -43 -46 -79 -85 -102c-23 -13 -48 -20 -73 -20c-29 0 -58 10 -84 29c-90 67 -151 201 -169 340c-7 7 -26 9 -44 9h-37c-19 0 -34 -2 -36 -19c0 -47 1 -114 1 -163v-45c0 -28 0 -55 2 -75
c2 -23 15 -38 27 -50c4 -4 6 -12 6 -19c0 -5 -1 -10 -5 -11c-7 -4 -13 -6 -19 -6c-7 0 -14 2 -26 4c-20 4 -56 6 -87 6h-40h-19c-7 0 -12 6 -12 14c0 3 1 6 3 9c11 11 23 36 26 53c0 90 8 199 8 292v28z" />
    <glyph glyph-name="uni0468" unicode="&#x468;" horiz-adv-x="1173" 
d="M618 604c-21 0 -36 0 -45 5c-6 6 -7 13 -7 19c0 14 10 22 28 22c5 0 10 -1 16 -1c12 -2 24 -3 38 -3c37 0 81 5 118 5c9 0 18 0 26 -1c18 -1 21 -6 26 -21c0 -1 1 -2 1 -4c0 -8 -7 -18 -19 -18h-2c-3 1 -7 1 -11 1c-14 0 -23 -4 -23 -16c0 -2 0 -5 1 -8
c3 -47 9 -75 27 -109c27 -47 59 -79 102 -123c37 -38 68 -71 93 -99c62 -69 105 -130 105 -256c0 -43 -7 -70 -16 -102c0 -4 5 -10 12 -10c6 1 14 3 21 3c15 0 24 -12 24 -24c0 -17 -12 -20 -33 -20c-5 0 -12 3 -20 3h-25h-59h-57h-21c-6 -1 -12 -3 -16 -3
c-19 0 -25 7 -25 23c0 12 7 20 20 20c5 0 10 -1 15 -1c4 0 8 0 11 2c9 7 13 21 17 31c8 18 11 38 11 64c0 101 -42 157 -88 213c-6 6 -13 21 -25 21h-9c-14 0 -24 2 -35 2c-8 0 -17 -2 -28 -7c-7 -3 -7 -8 -10 -15c-4 -9 -4 -25 -4 -41v-31c0 -73 4 -154 4 -224v-9
c0 -5 6 -8 12 -8c7 0 17 3 25 3c13 0 20 -10 20 -20c0 -8 -4 -15 -9 -20c-4 -3 -11 -3 -19 -3c-6 0 -13 2 -19 3h-80h-56h-20c-7 -1 -13 -4 -18 -4c-16 0 -20 5 -25 21c-1 2 -1 3 -1 5c0 9 9 17 22 17c8 0 18 -2 26 -2c13 0 12 4 12 17c0 52 2 112 2 167v107
c-1 21 -4 19 -6 34c0 11 -30 12 -49 12h-14c-21 0 -40 -1 -48 -14c-20 -32 -44 -62 -61 -101c-14 -35 -26 -76 -26 -124c0 -42 11 -55 27 -81c4 -6 6 -11 12 -14c2 -2 5 -2 9 -2c5 0 12 1 17 1c11 0 18 -10 18 -18c0 -7 -4 -15 -10 -21c-3 -2 -8 -3 -17 -3c-5 0 -10 2 -16 3
h-21h-52h-32h-36h-40c-15 0 -22 3 -22 20c0 10 6 19 19 19c9 0 20 -1 28 -1c14 0 5 12 3 18c-10 31 -18 50 -18 93c0 76 26 127 59 173c12 19 28 38 46 58c-23 -1 -47 -1 -70 -1c-24 0 -41 0 -50 -1h-33c-25 0 -74 0 -76 -19c0 -47 1 -114 1 -163v-45c0 -28 0 -55 2 -75
c2 -23 15 -38 27 -50c4 -4 6 -12 6 -19c0 -5 -1 -10 -5 -11c-7 -4 -13 -6 -19 -6c-7 0 -14 2 -25 4c-21 4 -57 6 -88 6h-40h-19c-7 0 -12 6 -12 14c0 3 1 6 3 9c11 11 23 36 26 53c0 90 8 199 8 292v28c0 101 11 217 11 318c0 20 -26 44 -35 55c-3 4 -5 8 -5 12
c0 11 15 20 29 20c25 0 50 -3 76 -3h30c22 0 37 3 57 3c14 0 20 -7 20 -15c0 -6 -3 -13 -8 -19c-10 -13 -35 -35 -36 -57c0 -86 -5 -200 -5 -288c0 -17 78 -17 105 -17c52 0 105 6 155 9c27 29 59 61 96 96c58 59 89 123 94 227v20zM749 250c17 0 56 0 56 11c0 3 -2 5 -6 9
c-59 51 -117 107 -135 199c-2 8 -3 13 -3 16c0 7 -4 21 -13 21c-10 0 -11 -20 -11 -30c-2 -39 -20 -79 -35 -110c-15 -34 -35 -70 -52 -98c-1 -2 -2 -4 -2 -6c0 -12 24 -14 47 -14c10 0 21 1 29 1c16 1 34 1 52 1h73z" />
    <glyph glyph-name="uni046C" unicode="&#x46c;" horiz-adv-x="1172" 
d="M467 650c49 0 124 -4 175 -4c13 0 25 0 37 1c54 0 113 4 171 4c20 0 40 -1 59 -2c21 -1 23 -4 28 -20c0 -1 1 -2 1 -4c0 -8 -7 -18 -19 -18h-1c-4 1 -8 1 -12 1c-18 0 -17 -3 -29 -13c-34 -30 -78 -64 -105 -103c-6 -10 -11 -20 -11 -30c0 -8 3 -16 11 -24
c34 -32 88 -51 121 -86c72 -75 147 -147 183 -253c10 -31 15 -65 15 -102c0 -43 -7 -70 -15 -102c-1 -4 4 -10 10 -10c7 1 15 3 22 3c15 0 24 -12 24 -24c0 -17 -12 -20 -33 -20c-5 0 -12 1 -20 1c-23 1 -51 2 -84 2c-42 0 -65 -3 -94 -3c-19 0 -25 7 -25 23
c0 12 7 20 20 20c5 0 10 -1 15 -1c4 0 8 0 11 2c9 7 13 21 18 31c7 18 10 38 10 64c0 90 -30 129 -56 192c-1 4 -6 12 -14 22c-28 41 -68 88 -108 119c-4 3 -7 4 -9 4c-6 0 -8 -9 -8 -19c0 -6 2 -18 2 -27c0 -12 -3 -15 -4 -37c-1 -36 -2 -74 -2 -114c0 -76 4 -152 4 -222
v-9c0 -5 6 -8 11 -8c8 0 18 3 26 3c13 0 20 -10 20 -20c0 -8 -4 -15 -9 -20c-4 -3 -11 -3 -19 -3c-6 0 -13 0 -20 1c-24 0 -52 2 -79 2c-33 0 -58 -1 -77 -2c-6 -1 -12 -2 -17 -2c-16 0 -20 5 -25 21c-1 2 -1 3 -1 5c0 9 9 17 21 17c9 0 19 -2 27 -2c13 0 12 4 12 17
c0 62 2 136 2 202v77c0 23 0 43 -1 59c0 16 -1 25 -2 28c-2 5 2 15 2 22c-1 12 -6 19 -19 20c-3 0 -9 -6 -19 -17c-30 -33 -67 -83 -94 -117c-35 -53 -71 -103 -71 -193c0 -42 11 -55 27 -81c4 -6 6 -11 12 -14c2 -2 5 -2 9 -2c5 0 12 1 17 1c11 0 18 -10 18 -18
c0 -7 -4 -15 -10 -21c-3 -2 -8 -3 -17 -3c-28 0 -50 3 -89 3h-32c-29 0 -52 -2 -76 -2c-15 0 -22 5 -22 22c0 10 6 19 20 19c8 0 19 -1 28 -1c13 0 5 12 3 18c-12 31 -19 50 -19 93c0 75 22 122 56 171c18 26 42 55 72 86c28 30 63 65 103 104c3 3 4 7 4 12
c0 13 -43 12 -67 13c-53 3 -120 3 -176 3h-44c-22 0 -60 0 -62 -19v-61c0 -57 1 -121 1 -182v-149c0 -19 0 -37 2 -51c2 -23 15 -38 27 -50c4 -4 6 -12 6 -19c0 -5 -1 -10 -5 -11c-7 -4 -13 -6 -19 -6c-7 0 -14 2 -26 4c-20 4 -56 7 -87 7c-16 0 -50 -3 -59 -3
c-7 0 -12 8 -12 16c0 3 1 6 3 9c11 11 23 36 26 53c0 90 8 199 8 292v28c0 101 11 217 11 318c0 20 -26 44 -35 55c-3 4 -5 8 -5 12c0 11 13 20 26 20c26 0 53 -3 79 -3h31c21 0 36 3 56 3c14 0 20 -7 20 -15c0 -6 -3 -13 -8 -19c-10 -12 -35 -35 -35 -57
c0 -18 -4 -29 -5 -50c-1 -12 -1 -27 -1 -48c0 -16 173 -16 208 -16h3c71 0 158 0 223 8c1 2 1 5 1 7c0 9 -4 19 -12 28c-33 41 -93 74 -126 117c-8 5 -35 2 -43 7c-6 6 -9 13 -9 19c0 7 3 13 9 18c3 2 15 3 36 3zM778 603c-42 0 -105 -3 -150 -3c-18 0 -28 0 -29 1
c-4 2 -13 0 -13 -5c0 -1 0 -2 1 -3c22 -22 53 -56 76 -78c13 -12 12 -15 23 -15c7 0 8 4 14 10c27 25 60 54 85 81c5 4 7 7 7 8c0 3 -2 5 -7 5c-2 0 -4 0 -7 -1z" />
    <glyph glyph-name="uni046B" unicode="&#x46b;" horiz-adv-x="612" 
d="M102 12c0 -11 -10 -11 -24 -11h-2h-45c-18 0 -31 2 -31 22c0 33 13 57 28 80c25 41 55 78 92 107c24 18 50 36 74 50c11 7 26 11 26 19c0 2 -2 5 -7 9c-23 15 -42 28 -61 43c-11 8 -19 12 -19 22s8 20 17 20c40 0 95 4 135 4c8 0 19 0 33 1l42 2c19 1 44 3 59 3
c7 0 17 -6 17 -14c0 -11 -11 -18 -20 -23c-18 -10 -45 -31 -62 -43c-9 -8 -14 -14 -14 -19s1 -8 4 -8c2 0 5 -1 8 -3c2 -1 8 -4 18 -10c32 -22 76 -51 103 -78c32 -31 68 -62 85 -105c12 -32 10 -35 14 -61c0 -2 1 -3 1 -4c0 -6 -5 -10 -11 -10c-12 0 -41 1 -55 1
c-10 0 -28 -2 -41 -2c-15 0 -24 2 -28 13c-5 37 -11 55 -24 82c-8 18 -30 36 -46 46c-4 3 -16 9 -25 9c-5 0 -9 -2 -9 -9c0 -24 2 -56 2 -81c1 -21 3 -30 6 -47c1 -13 -1 -14 -12 -15c-16 -2 -37 -5 -54 -5h-18c-23 0 -51 2 -52 16v14c9 35 18 94 18 135c0 9 -14 14 -25 14
c-3 0 -6 -1 -8 -1c-10 -3 -22 -15 -31 -24c-31 -29 -53 -68 -58 -122v-17zM254 342c-10 0 -28 6 -28 -3c0 -7 21 -18 26 -22c6 -3 12 -6 17 -9l10 -5c3 -1 6 -1 7 -1c2 0 4 1 6 2c3 6 19 14 26 18c5 3 24 14 24 19c0 3 -2 5 -7 5c-2 0 -4 0 -7 -1c-21 0 -52 -3 -74 -3z" />
    <glyph glyph-name="uni0469" unicode="&#x469;" horiz-adv-x="738" 
d="M203 0c-16 0 -24 8 -24 27c0 14 5 25 13 40c15 31 21 40 49 66l45 45c5 8 10 13 10 25c0 10 -14 18 -23 18h-1c-6 -1 -11 -1 -14 -1c-26 0 -60 -4 -84 -7c-22 -3 -36 -7 -45 -21c-5 -7 -6 -18 -6 -31v-46c0 -36 0 -74 4 -104c0 -14 -22 -18 -46 -18c-20 0 -42 3 -51 6
c-17 3 -20 7 -20 21v13c2 44 11 96 13 139c3 55 13 118 21 168c3 19 21 30 43 30c2 0 3 0 5 -1h1c13 0 34 9 49 9c13 0 20 -10 20 -22c0 -17 -16 -31 -23 -42c-6 -9 -7 -29 -9 -45c0 -13 6 -22 18 -22c42 0 88 1 145 4c35 2 59 9 76 24c7 7 11 14 12 21c1 4 2 7 1 8
c0 16 -16 24 -27 33c-10 7 -28 14 -28 28c0 15 11 18 25 18h18c13 -1 30 -4 43 -4c23 -1 66 0 79 -10c3 -3 6 -24 6 -35c0 -18 5 -22 18 -38c27 -33 62 -74 89 -108c16 -21 31 -40 45 -57c22 -26 42 -55 44 -92c2 -15 4 -22 4 -29s-3 -10 -9 -10c-11 0 -37 1 -50 1
c-9 0 -25 -2 -37 -2s-23 2 -24 12c-3 10 2 16 0 30c-4 24 -13 32 -28 52c-11 18 -33 43 -52 48c-8 3 -20 3 -20 -6c0 -29 4 -69 4 -97c1 -5 4 -17 4 -25c0 -5 -1 -8 -3 -9c-7 -4 -46 -5 -57 -6h-5c-15 0 -45 3 -52 6c-3 1 -5 4 -5 9v12c4 13 7 40 9 58c3 20 7 51 7 67
c0 8 -13 13 -24 13c-2 0 -4 -1 -6 -1c-10 -2 -21 -14 -30 -21c-30 -26 -55 -60 -55 -116c0 -12 5 -24 -7 -24h-36c-7 0 -13 -1 -19 -1zM422 197h2c14 0 49 6 49 17c0 2 -1 4 -4 6c-7 7 -33 33 -38 43c-3 5 -6 8 -10 8c-2 0 -5 -2 -7 -6c-5 -15 -23 -35 -33 -45
c-4 -3 -6 -5 -6 -8c0 -15 30 -15 47 -15z" />
    <glyph glyph-name="uni046D" unicode="&#x46d;" horiz-adv-x="782" 
d="M274 202c0 12 -13 22 -24 22c-5 0 -9 -1 -15 -1c-41 0 -105 -2 -111 -38c-1 -13 -1 -29 -1 -46v-20c0 -36 0 -74 4 -104c0 -14 -22 -18 -46 -18c-20 0 -42 3 -51 6c-17 3 -20 7 -20 21v13c2 44 11 96 13 139c3 55 13 118 21 168c3 19 21 30 43 30c2 0 3 0 5 -1h1
c13 0 34 9 49 9c13 0 20 -10 20 -22c0 -17 -16 -31 -23 -42c-5 -8 -9 -31 -9 -47c0 -11 9 -19 22 -19h17c55 0 132 4 175 19c9 3 29 11 29 21c0 2 -1 4 -3 6c-3 6 -22 16 -30 21c-14 9 -36 17 -36 35c0 11 7 19 16 19c40 0 95 4 135 4c8 0 19 0 33 1l42 2c19 1 44 3 59 3
c7 0 17 -6 17 -14c0 -11 -11 -18 -20 -23c-18 -10 -45 -31 -62 -43c-9 -8 -14 -14 -14 -19s1 -8 4 -8c2 0 5 -1 8 -3c2 -1 8 -4 18 -10c32 -22 76 -51 103 -78c32 -31 68 -62 85 -105c12 -32 10 -35 14 -61c0 -2 1 -3 1 -4c0 -6 -5 -10 -11 -10c-12 0 -41 1 -55 1
c-10 0 -28 -2 -41 -2c-15 0 -24 2 -28 13c-5 37 -11 55 -24 82c-8 18 -30 36 -46 46c-4 3 -16 9 -25 9c-5 0 -9 -2 -9 -9c0 -24 2 -56 2 -81c1 -21 3 -30 6 -47c1 -13 -1 -14 -12 -15c-17 -2 -37 -5 -55 -5h-19c-22 0 -49 2 -50 16v14c9 35 18 94 18 135c0 9 -14 14 -25 14
c-3 0 -6 -1 -8 -1c-10 -3 -22 -15 -31 -24c-31 -29 -53 -68 -58 -122v-17c0 -11 -10 -11 -24 -11h-2h-45c-18 0 -32 2 -32 22c0 35 18 58 35 82s41 52 62 74c4 6 8 15 8 23zM424 342c-10 0 -28 6 -28 -3c0 -7 21 -18 26 -22c6 -3 12 -6 17 -9l10 -5c3 -1 6 -1 7 -1
c2 0 4 1 6 2c3 6 19 14 26 18c5 3 24 14 24 19c0 3 -2 5 -7 5c-2 0 -4 0 -7 -1c-21 0 -52 -3 -74 -3z" />
    <glyph glyph-name="uni0478" unicode="&#x478;" horiz-adv-x="960" 
d="M466 411c14 -48 21 -104 21 -160c0 -60 -8 -120 -24 -170c-27 -88 -72 -164 -135 -209c-29 -21 -58 -33 -87 -33c-24 0 -48 7 -75 24c-64 41 -110 114 -138 198c-18 50 -28 109 -28 170c0 31 3 63 8 94c18 108 58 200 116 266c29 32 67 71 116 71h8c27 0 53 -11 80 -29
c67 -46 112 -129 138 -222zM356 257v18c0 86 -6 156 -24 222c-11 38 -26 73 -52 93c-10 8 -22 12 -35 12c-16 0 -33 -7 -45 -19c-37 -35 -51 -104 -59 -169c-5 -41 -8 -86 -8 -135c0 -15 1 -30 1 -45c4 -91 12 -164 33 -235c11 -36 27 -70 51 -91c11 -9 23 -13 36 -13
c15 0 30 6 41 17c36 36 48 101 56 166c4 36 6 76 6 119c0 20 0 39 -1 60zM911 327c-37 -6 -70 -11 -87 -42c-32 -58 -27 -149 -32 -235c-8 -133 -19 -261 -52 -366c-7 -29 -16 -45 -42 -45c-18 0 -41 11 -41 32c0 3 1 6 2 10c25 38 40 86 47 138c6 49 12 110 12 168
c0 19 -2 24 -18 28c-9 3 -17 2 -23 -2c-8 -6 -25 -10 -40 -10c-18 0 -35 6 -35 25c-5 56 -13 114 -26 167c-12 59 -32 121 -45 161c-2 5 -3 9 -3 12c0 10 8 13 26 17c8 1 43 8 68 8c13 0 23 -2 24 -8c0 -13 7 -31 11 -45c14 -52 23 -114 30 -172c1 -11 2 -19 2 -24
c0 -11 6 -16 16 -16c2 0 4 1 6 1c3 1 6 1 8 1c15 1 15 19 16 43c3 56 11 122 29 165c20 47 78 64 142 64c10 0 15 -21 15 -40c0 -17 -4 -32 -10 -35z" />
    <glyph glyph-name="uni0479" unicode="&#x479;" horiz-adv-x="649" 
d="M93 371c13 12 27 17 41 17c18 0 35 -9 44 -31c13 -29 20 -73 20 -117c0 -76 -21 -128 -52 -179c-12 -20 -25 -37 -39 -51c-12 -12 -24 -17 -35 -17c-15 0 -29 10 -38 29c-15 32 -24 78 -24 124c0 73 16 124 44 173c11 21 24 38 39 52zM109 142c19 0 26 19 26 37
c0 20 -7 33 -19 44c-7 6 -13 8 -18 8c-14 0 -23 -18 -23 -37c0 -20 14 -52 34 -52zM600 327c-37 -6 -70 -11 -87 -42c-32 -58 -33 -149 -33 -235c-4 -81 -8 -161 -21 -233c-8 -46 -18 -95 -29 -133c-10 -28 -15 -45 -43 -45c-18 0 -41 11 -41 32c0 3 1 6 2 10
c25 38 41 86 47 138c6 49 12 110 12 168c0 19 -2 24 -18 28c-9 3 -17 2 -23 -2c-8 -6 -25 -10 -40 -10c-18 0 -35 6 -35 25c-5 56 -13 114 -26 167c-12 59 -32 121 -45 161c-2 5 -3 9 -3 12c0 10 8 13 26 17c8 1 43 8 68 8c13 0 23 -2 24 -8c0 -13 7 -31 11 -45
c14 -52 23 -114 30 -172c1 -11 2 -19 2 -24c0 -11 6 -16 16 -16c2 0 4 1 6 1c3 1 6 1 8 1c15 1 15 19 16 43c3 56 11 122 29 165c20 47 78 64 142 64c10 0 15 -21 15 -40c0 -17 -4 -32 -10 -35z" />
    <glyph glyph-name="uni046A" unicode="&#x46a;" horiz-adv-x="913" 
d="M209 648c49 0 122 -4 173 -4c13 0 25 1 37 1c54 0 113 4 171 4c20 0 40 -2 59 -2c21 0 23 -4 28 -20c0 -1 1 -2 1 -4c0 -8 -7 -18 -19 -18h-1c-4 1 -8 1 -12 1c-18 0 -17 -3 -29 -13c-34 -30 -78 -64 -105 -103c-6 -10 -11 -20 -11 -30c0 -9 3 -16 11 -24
c34 -32 88 -51 121 -86c72 -75 147 -147 183 -253c10 -31 15 -65 15 -102c0 -43 -7 -70 -15 -102c-1 -4 4 -10 10 -10c7 1 15 3 22 3c15 0 24 -12 24 -24c0 -17 -12 -20 -33 -20c-5 0 -12 3 -20 3h-162c-6 -1 -12 -3 -16 -3c-19 0 -25 7 -25 23c0 12 7 20 20 20
c5 0 10 -1 15 -1c20 0 23 20 29 33c7 18 10 38 10 64c0 90 -30 129 -56 192c-1 4 -6 12 -14 22c-28 41 -68 88 -108 119c-4 3 -7 4 -9 4c-6 0 -8 -9 -8 -19c0 -6 2 -18 2 -27c0 -12 -4 -15 -4 -37c0 -36 -2 -74 -2 -114c0 -76 4 -152 4 -222v-9c0 -5 6 -8 11 -8
c8 0 18 3 26 3c13 0 20 -10 20 -20c0 -8 -4 -15 -9 -20c-4 -3 -11 -3 -19 -3c-6 0 -13 2 -20 3h-156c-6 -1 -12 -4 -17 -4c-16 0 -20 5 -25 21c-1 2 -1 3 -1 5c0 9 9 17 21 17c9 0 19 -2 27 -2c13 0 12 4 12 17c0 62 2 136 2 202v77c0 23 -1 43 -1 59s-1 25 -2 28
c-2 5 2 15 2 22c0 12 -6 20 -19 20c-3 0 -9 -6 -19 -17c-30 -33 -67 -83 -94 -117c-35 -53 -71 -103 -71 -193c0 -42 11 -55 27 -81c5 -8 8 -16 21 -16c5 0 12 1 17 1c11 0 18 -10 18 -18c0 -7 -4 -15 -10 -21c-3 -2 -8 -3 -17 -3c-5 0 -10 2 -17 3h-180c-15 0 -22 3 -22 20
c0 10 6 19 20 19c8 0 19 -1 28 -1c13 0 5 12 3 18c-12 31 -19 50 -19 93c0 75 22 122 56 171c18 26 42 55 72 86c36 37 97 101 142 142c17 15 29 24 40 38c6 8 9 16 9 24c0 27 -30 51 -46 65c-28 24 -66 53 -88 82c-8 5 -36 1 -44 6c-6 6 -9 13 -9 19c0 7 3 13 9 18
c3 2 15 3 36 3zM518 601c-42 0 -105 -3 -150 -3c-18 0 -28 0 -29 1c-4 2 -13 0 -13 -5c0 -1 0 -2 1 -3c22 -22 53 -56 76 -78c13 -12 12 -15 23 -15c7 0 8 4 14 10c27 25 60 54 85 81c5 4 7 7 7 8c0 3 -2 5 -7 5c-2 0 -4 0 -7 -1z" />
    <glyph glyph-name="uni2DEA" unicode="&#x2dea;" 
d="M-110 788c13 7 30 14 43 14c6 0 12 -2 19 -7c18 -17 35 -46 35 -82c0 -21 -5 -32 -17 -47c-16 -22 -36 -43 -60 -56c-12 -8 -29 -13 -40 -14c-35 0 -51 49 -51 90c0 39 18 63 41 81c10 9 19 14 30 21zM-109 739c-19 -10 -26 -24 -26 -38c0 -12 3 -23 12 -34
c4 -6 15 -16 24 -16c2 0 5 1 7 1c15 5 32 21 32 40v1c0 18 -16 39 -28 45c-3 1 -8 3 -13 3c-2 0 -6 -1 -8 -2z" />
    <glyph glyph-name="uni2DE5" unicode="&#x2de5;" 
d="M-548 420c-36 0 -64 19 -64 56c0 4 0 9 1 14c10 42 39 81 65 107l18 18c-5 10 -9 20 -9 35c0 31 26 43 56 43c8 0 16 -1 24 -2c37 33 72 59 114 85c26 17 42 27 75 27c15 0 28 -4 35 -14c1 -3 2 -4 2 -5c24 -30 15 -94 48 -114c17 -10 57 -16 81 -22c21 -4 64 -11 71 -25
c5 -9 7 -18 7 -27c0 -31 -23 -61 -36 -78c-18 -22 -47 -48 -70 -66c-20 -17 -41 -26 -66 -32c-6 -1 -12 -2 -17 -2c-20 0 -32 12 -36 32v5c0 14 9 28 23 28c3 0 7 -1 11 -3c8 -3 15 -5 23 -5c11 0 21 3 33 9c16 7 52 46 62 69c3 9 0 18 -10 27c-42 23 -100 24 -149 41
c-36 13 -46 52 -65 80c-6 8 -15 11 -22 11c-21 0 -45 -24 -53 -32c-9 -9 -17 -18 -25 -29c5 -10 9 -22 9 -33c0 -23 -21 -38 -43 -38c-8 0 -16 2 -25 5c-23 -20 -41 -47 -59 -76c-4 -9 -6 -17 -6 -24c0 -15 10 -23 29 -23h4c1 1 2 1 3 1c13 0 21 -4 21 -13
c0 -3 -1 -7 -4 -12c-13 -10 -34 -18 -56 -18z" />
    <glyph glyph-name="uni0482" unicode="&#x482;" horiz-adv-x="407" 
d="M337 -64c0 -9 -12 -36 -18 -36c-10 -7 -18 8 -24 14l-35 35c-3 3 -5 4 -7 4c-8 0 -15 -17 -21 -27c-13 -21 -31 -51 -44 -72c-6 -11 -9 -16 -10 -17c-2 -4 -5 -9 -4 -15c0 -2 2 -6 7 -10c12 -13 30 -30 42 -42c6 -6 5 -8 3 -16c0 -5 -11 -14 -14 -17
c-4 -4 -13 -13 -18 -13c-2 0 -3 -1 -5 -1c-13 0 -21 15 -29 23c-6 7 -15 18 -20 23c-4 2 -6 2 -9 2c-8 0 -9 -9 -19 -19c-17 -21 -39 -52 -57 -70c-3 -3 -7 -5 -14 -5h-3c-9 0 -38 11 -38 19c-1 3 0 6 0 8c0 12 5 13 15 22c16 16 36 35 53 52c10 12 21 17 21 32
c0 2 -1 4 -2 7c0 1 -3 4 -9 9c-11 10 -24 25 -36 35c-8 8 -15 14 -10 26l6 12c4 7 13 21 24 21c3 0 6 -1 9 -3c11 -11 25 -28 37 -38c4 -4 6 -6 7 -6c5 -2 8 -4 11 -4c7 0 11 6 19 17c14 21 32 49 45 70c7 12 10 18 10 20c1 3 2 6 2 8c0 8 -3 8 -10 16c-10 9 -25 25 -35 35
c-6 6 -11 10 -11 17c0 3 1 6 3 10c6 10 11 28 26 28c2 0 5 -1 8 -2c5 0 17 -16 21 -20c6 -7 15 -17 21 -23c2 -2 5 -3 7 -3c6 0 11 9 16 18c11 16 25 37 35 54c8 13 6 15 15 19c1 1 3 1 4 1c14 0 35 -24 35 -41c0 -2 -1 -5 -2 -7c-12 -23 -37 -52 -49 -76
c-1 -3 -2 -7 -2 -10c0 -13 16 -18 25 -25c7 -6 19 -15 24 -20c4 -6 4 -9 4 -19z" />
    <glyph glyph-name="uniA65E" unicode="&#xa65e;" horiz-adv-x="912" 
d="M202 -154h-180c-15 0 -22 3 -22 20c0 10 6 19 20 19c8 0 19 -1 28 -1c13 0 5 12 3 18c-12 31 -19 50 -19 93c0 75 22 122 56 171c18 26 42 55 72 86c36 38 97 101 143 142c27 25 48 41 69 71c0 28 2 50 2 65v30c0 20 -26 44 -35 55c-3 4 -5 8 -5 12c0 11 13 20 26 20
c26 0 53 -3 79 -3h31c21 0 36 3 56 3c14 0 20 -7 20 -15c0 -6 -3 -13 -8 -19c-10 -12 -35 -35 -35 -57c-3 -15 -3 -33 -3 -53v-31c2 -11 3 -14 16 -25c36 -31 84 -61 117 -96c72 -75 147 -147 183 -253c10 -31 15 -65 15 -102c0 -43 -7 -70 -15 -102c-1 -4 4 -10 10 -10
c7 1 15 3 22 3c15 0 24 -12 24 -24c0 -17 -12 -20 -33 -20c-5 0 -12 3 -20 3h-162c-6 -1 -12 -3 -16 -3c-19 0 -25 7 -25 23c0 12 7 20 20 20c5 0 10 -1 15 -1c20 0 23 20 29 33c7 18 10 38 10 64c0 90 -30 129 -56 192c-1 4 -6 12 -14 22c-28 41 -68 88 -108 119
c-7 5 -12 4 -15 -1v-40c0 -29 2 -29 2 -62v-128c0 -43 1 -89 1 -128c0 -47 6 -61 28 -84c4 -4 6 -12 6 -19c0 -5 -1 -10 -5 -11c-7 -4 -13 -6 -19 -6c-7 0 -14 2 -26 4c-20 4 -56 6 -87 6h-59c-7 0 -12 6 -12 14c0 3 1 6 3 9c11 11 23 36 26 53c1 2 1 11 1 27
c0 83 7 181 7 265v45c0 9 0 21 1 35c0 12 -3 19 -17 14c-3 -1 -9 -7 -19 -18c-30 -34 -67 -82 -94 -116c-35 -53 -71 -103 -71 -193c0 -42 11 -55 27 -81c5 -8 8 -16 21 -16c5 0 12 1 17 1c11 0 18 -10 18 -18c0 -7 -4 -15 -10 -21c-3 -2 -8 -3 -17 -3c-5 0 -10 2 -17 3z
" />
    <glyph glyph-name="uniA65F" unicode="&#xa65f;" horiz-adv-x="612" 
d="M102 11c0 -11 -10 -11 -24 -11h-2h-45c-18 0 -31 2 -31 22c0 33 13 57 28 80c25 41 55 78 92 107c24 18 50 36 74 50c15 9 17 9 26 15c4 3 6 5 6 7c1 25 2 49 2 69c2 21 22 31 44 31c1 0 3 0 4 -1h2c10 0 23 4 30 4c4 0 10 1 21 3h6c15 0 27 -9 27 -23c0 -2 0 -4 -1 -6
c-4 -21 -22 -26 -24 -48c-1 -7 -2 -15 -3 -25c0 -7 13 -12 18 -15c2 -1 8 -4 18 -10c32 -20 76 -49 103 -76c32 -31 68 -62 85 -105c12 -32 10 -35 14 -61c0 -2 1 -3 1 -4c0 -6 -5 -10 -11 -10c-12 0 -41 1 -55 1c-10 0 -28 -2 -41 -2c-15 0 -24 2 -28 13
c-5 37 -11 55 -24 82c-8 18 -30 36 -46 46c-4 3 -16 9 -25 9c-5 0 -9 -2 -9 -9c0 -24 2 -56 2 -81c1 -21 3 -30 6 -47c1 -13 -1 -14 -12 -15c-16 -2 -37 -5 -54 -5h-18c-23 0 -51 2 -52 16v14c9 35 18 94 18 135c0 9 -14 14 -25 14c-3 0 -6 -1 -8 -1c-10 -3 -22 -15 -31 -24
c-31 -29 -53 -68 -58 -122v-17z" />
    <glyph glyph-name="uni2DF7" unicode="&#x2df7;" 
d="M-227 618c-23 9 -45 25 -49 53c0 39 34 67 62 84c26 17 63 29 104 29c6 0 12 -1 19 -1c9 -4 17 -10 17 -21c0 -10 -3 -18 -11 -21c-5 -3 -11 -4 -15 -4c-15 0 -24 11 -29 24h-5c-30 0 -54 -25 -65 -46c-6 -9 -8 -19 -8 -29c9 -19 46 -28 77 -28c9 0 16 1 24 2
c5 -4 8 -10 8 -17s-1 -14 -3 -22c-16 -11 -39 -15 -66 -15c-3 -16 -8 -34 -10 -53c0 -15 5 -34 13 -42c7 -3 10 -6 19 -6c16 0 25 7 38 14l16 8l14 9l10 7c6 -5 11 -12 13 -19c-20 -17 -42 -30 -67 -44c-21 -11 -31 -15 -61 -15c-39 0 -66 37 -66 76c0 29 12 57 21 77z" />
    <glyph glyph-name="uni2DFB" unicode="&#x2dfb;" 
d="M-186.3 677.6c-19.8 0 -57.6 -8.09998 -57.6 -25.2c0 -22.5 -1.8 -41.4 -1.8 -58.5c0 -25.2 1.8 -43.2 3.59999 -55.8c0 -11.7 -16.2 -11.7 -36 -11.7h-1.79999c-34.2 0 -46.8 0 -46.8 18.9c0 12.6 9 90 9 100.8l14.4 112.5c1.79999 9.90002 9 16.2 21.6 18.9
c18 0 25.2 2.70001 46.8 5.40002c12.6 2.69995 18 -0.900024 18 -12.6c0 -10.8 -10.8 -22.5 -16.2 -28.8c-3.59999 -6.29999 -7.2 -17.1 -7.2 -30.6c0 -8.10004 9 -12.6 23.4 -12.6c41.4 0 73.8 11.7 79.2 33.3c14.4 36 34.2 54 57.6004 54h5.3994
c28.7998 0 41.4004 -34.2 41.4004 -93.6c0 -18.9 -1.7998 -35.1 -3.6006 -47.7c-7.2578 -34.931 -38.542 -99.992 -84.5996 -116.1c-1.8 0 -3.6 0.899963 -5.4 0.899963c-28.8 3.60004 -39.6 54.9 -39.6 95.4c0 10.8 1.8 22.5 1.8 31.5c0 14.4 -6.3 21.6 -21.6 21.6z
M-72 656c0 22 -12 38 -28 38c-12 0 -16 -7 -18 -18c-0.261002 -1.82501 -0.385002 -3.67999 -0.385002 -5.54602c0 -19.61 13.775 -40.454 28.385 -40.454c12 0 18 13 18 26z" />
    <glyph glyph-name="uni2DFA" unicode="&#x2dfa;" 
d="M-343 734c0 -5 3 -13 3 -18c0 -19 -20 -16 -38 -23c-9 -4 -20 -8 -30 -8c-11 0 -14 13 -14 25c0 43 45 54 80 61c19 4 40 8 61 8c8 0 16 1 24 1c4 0 8 -1 12 -1c14 51 44 121 59 141c3 3 7 5 14 5c5 -1 9 -1 13 -1c5 1 13 2 20 2c10 0 19 -2 23 -8c1 -3 0 -7 -3 -14
l-28 -46c-16 -30 -29 -60 -38 -90c11 -3 18 -7 29 -11c37 -18 73 -23 121 -23c8 0 11 -4 11 -8c0 -3 -2 -7 -4 -10c-14 -23 -33 -56 -33 -92h-58l9 18c12 20 27 44 43 60c-11 -2 -22 -3 -33 -3c-37 0 -71 10 -98 21v-1c-8 -34 -18 -80 -18 -108c0 -10 6 -6 25 -3
c17 3 28 4 33 4c7 0 17 -18 28 -55c11 -33 16 -54 16 -62c0 -5 -4 -9 -12 -12h-82s-55 -2 -72 -2h-5c-8 0 -16 9 -16 18c0 40 31 188 45 242c-18 5 -36 8 -53 8c-12 0 -34 -3 -34 -15zM-219 568c-12 0 -13 -21 -13 -37c0 -15 3 -23 19 -23c2 0 5 1 8 1c10 0 15 9 15 22
c0 17 -8 29 -20 34c-4 2 -7 3 -9 3z" />
    <glyph glyph-name="uni2DF6" unicode="&#x2df6;" 
d="M-269 800c21 24 44 57 81 62c3 -4 10 -9 21 -14s17 -11 20 -20c-19 -4 -42 -20 -53 -31c39 -5 81 -11 111 -28c29 -17 62 -48 62 -91c-41 -36 -64 -60 -97 -101c-7 -2 -10 -3 -12 -3c-4 0 -5 2 -16 2l-4 4c15 20 35 47 50 63c-2 17 0 21 -12 34c-33 34 -68 54 -120 75
l-6 -12l-8 -10c-22 -35 -34 -53 -64 -80c-23 -21 -57 -40 -93 -40c-10 0 -20 2 -30 5c-22 16 -33 44 -33 78c4 88 112 107 203 107zM-350 687c19 18 42 57 56 78c1 0 1 0 1 1c-11 2 -22 3 -32 3c-15 0 -47 -9 -58 -14c-5 -8 -7 -20 -7 -32c0 -21 8 -42 27 -42c5 0 9 2 13 6z
" />
    <glyph glyph-name="uni0465" unicode="&#x465;" horiz-adv-x="466" 
d="M390 115c13 0 20 -6 20 -17c0 -21 -22 -54 -26 -60c-15 -20 -55 -37 -89 -37c-4 0 -8 0 -12 1c-37 14 -38 61 -40 110c-2 37 -13 54 -13 92v10c-9 10 -13 12 -22 12c-4 0 -9 -1 -16 -1c-21 -2 -23 -2 -42 -10c-13 -4 -26 -12 -26 -27c-1 -13 -1 -29 -1 -46v-20
c0 -36 0 -74 4 -104c0 -14 -22 -18 -46 -18c-20 0 -42 3 -51 6c-17 3 -20 7 -20 21v13c2 44 11 96 13 139c3 55 13 118 21 168c3 19 21 30 43 30c2 0 3 0 5 -1h1c13 0 34 9 49 9c13 0 20 -10 20 -22c0 -17 -16 -31 -23 -42c-6 -7 -9 -30 -10 -44c0 -17 13 -20 31 -20
c7 0 15 1 23 1c24 3 43 8 56 15c15 50 53 79 95 100c13 7 37 13 59 13c19 0 35 -4 35 -22c0 -14 -7 -31 -11 -41c-5 -11 -30 -15 -45 -19c-16 -5 -40 -12 -43 -28c-2 -7 -4 -19 -4 -30c0 -13 3 -25 11 -26c9 -3 11 0 18 4c7 5 29 20 44 20c13 0 15 -18 15 -33
c0 -7 -1 -15 -2 -21c-3 -14 -40 -18 -52 -22c-9 -2 -19 -14 -19 -26v-28c0 -8 1 -16 9 -15c14 2 25 16 41 16z" />
    <glyph glyph-name="uni2DF9" unicode="&#x2df9;" 
d="M-257 515h129c-29 38 -48 81 -63 139c-11 -32 -20 -53 -30 -72c-8 -16 -19 -41 -36 -67zM-53 912c13 0 31 -8 31 -16c0 -4 -7 -10 -14 -19c-8 -8 -9 -27 -15 -22c-6 4 -19 7 -25 4c-4 -1 -21 -17 -31 -33c-9 -14 -19 -32 -41 -84c0 0 26 -77 46 -135
c19 -60 51 -89 61 -99c5 -5 -4 -12 -14 -12h-235c-15 0 -23 4 -23 11c0 11 19 26 25 32c16 19 27 34 37 56c18 31 46 78 46 97c0 3 -14 39 -19 50c-13 30 -12 32 -31 67c-23 43 -58 81 -58 83c-1 6 2 12 10 12h66c19 -19 40 -53 53 -77c9 -19 23 -54 23 -54
c13 36 24 58 32 71c13 23 36 68 76 68z" />
    <glyph glyph-name="uni0487" unicode="&#x487;" 
d="M-237 848c0 -15 -85 -48 -102 -48c-3 0 -4 1 -6 1c-11 4 -22 52 -22 78c0 51 29 94 87 130c53 33 110 52 173 52h9c30 0 58 -6 83 -17c31 -12 109 -73 138 -87c40 -15 85 -33 134 -54c5 -3 8 -8 8 -14c0 -9 -4 -15 -12 -19s-29 -6 -64 -6c-113 0 -150 14 -211 64
c-36 31 -56 49 -61 52c-17 11 -33 17 -48 17c-14 0 -30 -3 -48 -9c-46 -16 -70 -42 -70 -82c0 -17 12 -37 12 -58z" />
    <glyph glyph-name="uni04860301" unicode="&#xee01;" 
d="M-52 759c12 -2 20 -12 20 -21c0 -8 -6 -17 -12 -26s-12 -19 -20 -30l-22 -34c-7 -12 -13 -20 -18 -26c-15 -26 -37 -55 -56 -78c-10 -12 -19 -26 -37 -26c-17 0 -33 12 -33 27c0 6 3 12 8 18c25 24 43 45 64 80c23 35 38 61 45 78c7 16 12 26 15 29c6 7 17 10 30 10
c5 0 11 -1 16 -1zM-264 650c0 15 -13 22 -27 22c-31 0 -52 -25 -60 -48c-4 -16 -8 -28 -12 -37c-2 -7 -8 -9 -13 -9c-12 0 -23 9 -23 21v14c0 26 8 54 16 75c17 42 49 91 103 91h9c34 0 58 -15 70 -36c5 -7 6 -16 6 -26c0 -20 -7 -43 -12 -56c-9 -26 -24 -44 -42 -61
c-5 -6 -20 -18 -32 -18c-6 0 -10 3 -10 9c0 10 4 13 12 22c4 4 15 22 15 37z" />
    <glyph glyph-name="uni04860300" unicode="&#xee03;" 
d="M-426 774c-4 4 -7 8 -7 12c0 20 44 41 76 41c6 0 11 -1 16 -2c40 -10 79 -32 115 -47c8 -3 17 -6 27 -9c14 -4 14 -4 29 -9c25 -7 45 -14 74 -18c16 -1 56 -2 56 -18c0 -21 -13 -42 -24 -53c-5 -5 -9 -7 -14 -7c-9 1 -27 8 -54 21c-41 20 -105 46 -159 58
c-36 8 -70 14 -104 21c-14 3 -24 7 -31 10zM-374 581c-10 -14 -18 -31 -37 -31h-2c-13 1 -19 9 -19 19c0 7 3 15 7 22c31 53 101 104 180 104c3 0 5 0 8 -1c25 -1 44 -10 57 -28c5 -6 7 -13 7 -21c0 -15 -10 -32 -18 -43c-13 -17 -36 -38 -58 -44c-2 -1 -4 -1 -7 -1
c-10 0 -17 6 -17 15l13 33v6c0 19 -7 34 -23 34c-5 0 -10 -1 -16 -3c-31 -11 -57 -37 -75 -61z" />
    <glyph glyph-name="uni1C82" unicode="&#x1c82;" horiz-adv-x="237" 
d="M92 375c13 12 29 20 42 20c19 0 35 -11 44 -32c13 -29 19 -74 19 -117c0 -76 -21 -127 -51 -178c-12 -20 -25 -37 -39 -51c-12 -12 -24 -17 -35 -17c-15 0 -29 10 -38 28c-15 32 -24 78 -24 124c0 72 16 123 44 174c10 20 23 36 38 49zM97 236c-14 0 -22 -15 -22 -33
c0 -21 7 -34 18 -47c5 -5 11 -8 16 -8c12 0 23 13 25 27v10c0 21 -6 33 -20 44c-5 5 -11 7 -17 7z" />
    <glyph glyph-name="uni1C81" unicode="&#x1c81;" horiz-adv-x="453" 
d="M307 13h-6c-23 -6 -48 -13 -77 -13c-28 0 -57 4 -81 7c-11 2 -18 2 -19 -7c0 -42 -10 -99 -10 -143c0 -19 -1 -50 -1 -72v-53c0 -13 -33 -18 -46 -20c-5 -1 -24 -6 -38 -6c-8 0 -15 2 -15 7c-1 1 -2 4 -3 8c0 17 -1 41 -1 64c0 36 1 80 1 116v48c0 24 0 40 -7 52
c-3 3 -4 10 -4 17c0 9 2 17 6 20c4 6 2 8 12 9c25 0 53 -16 78 -16c9 0 11 4 19 15c40 58 57 146 57 243c0 21 -3 53 -3 73c3 7 -1 12 6 16c7 5 23 5 36 5h7c25 0 45 11 66 18c4 0 8 1 11 1c5 0 9 -1 9 -5c0 -3 1 -6 2 -9s1 -11 -1 -23c-4 -22 -9 -34 -9 -62
c-1 -9 -1 -18 -1 -26c0 -46 4 -92 13 -130c6 -28 17 -61 24 -86c4 -11 6 -18 7 -19c5 -5 4 -13 16 -9c11 2 25 10 37 10c5 -1 8 -2 9 -4l6 -9c5 -5 6 -15 6 -27c0 -39 -9 -67 -23 -108c-18 -57 -30 -102 -57 -143c-9 -16 -44 -24 -65 -28c-4 -1 -7 -1 -11 -1
c-10 0 -19 3 -19 12c0 14 15 38 17 42c33 57 59 126 78 197c2 6 2 10 2 13c0 9 -4 12 -13 18c-5 5 -12 10 -15 8zM162 38c0 -11 36 -12 55 -12h8c6 0 8 2 8 6c0 6 -5 15 -7 23c-8 23 -14 50 -18 76c-3 16 -3 25 -11 25c-4 0 -16 -57 -18 -66c-3 -11 -7 -22 -10 -31
c-3 -10 -7 -17 -7 -21z" />
    <glyph glyph-name="uni1C83" unicode="&#x1c83;" horiz-adv-x="452" 
d="M389 310c0 -11 -12 -13 -26 -13c-11 0 -23 2 -29 2c0 0 -24 -4 -39 -4c-6 0 -10 0 -11 2c-11 25 -32 37 -63 37c-74 0 -111 -49 -111 -147c0 -14 1 -29 2 -45c0 -20 3 -49 9 -87c17 -54 47 -101 88 -141c4 -5 11 -7 22 -7c15 0 32 7 51 21s31 21 38 21c10 0 15 -5 15 -15
c0 -13 -19 -30 -57 -51s-65 -31 -80 -31c-55 1 -102 31 -141 94c-38 59 -57 125 -57 196c0 66 29 124 86 174c53 47 111 71 174 71c21 0 46 -8 77 -23c35 -17 52 -35 52 -54z" />
    <glyph glyph-name="uni04630311" unicode="&#xee55;" horiz-adv-x="590" 
d="M304 633c-25 0 -43 -23 -43 -48c0 -10 4 -19 4 -31c0 -7 -5 -16 -12 -18c-18 -1 -35 -3 -52 -3c-3 0 -6 0 -9 1c-18 0 -20 1 -27 12c-7 12 -10 31 -10 50c0 47 36 73 67 90c22 13 52 16 88 16c46 0 73 -9 102 -26c23 -15 44 -47 44 -88c0 -20 -4 -49 -21 -52
c-3 -1 -9 -1 -17 -1h-23c-9 0 -18 0 -29 1c-7 -2 -13 8 -15 13c-3 10 1 20 1 31c0 18 -11 40 -20 46c-8 5 -17 7 -28 7zM435 242c-9 0 -17 14 -17 20c0 9 2 20 -1 29c-2 18 -20 31 -33 37c-5 3 -9 4 -13 4c-5 0 -24 3 -35 3c-4 0 -7 0 -8 -1c-10 -10 -9 -7 -13 -28
c-6 -33 -17 -77 -17 -113c4 -5 -2 -11 15 -9c21 4 50 10 73 10c12 0 23 -29 28 -42c13 -35 26 -78 34 -116c2 -9 3 -15 3 -18c0 -14 -8 -14 -17 -18c-1 -1 -8 -1 -18 -1h-38c-20 0 -50 1 -67 1c-29 0 -67 -3 -97 -3h-20c-10 1 -24 11 -24 24c0 8 1 15 4 35
c13 82 27 176 41 261v3c0 21 -29 25 -56 25c-7 0 -13 0 -19 -1c-16 0 -16 -5 -26 -14c-6 -4 -10 -14 -11 -29c0 -11 -1 -32 -1 -45v-31c0 -9 2 -22 2 -34c0 -15 -3 -28 -13 -29c-19 0 -46 -2 -65 -2c-15 0 -22 1 -26 10v15c0 46 2 101 5 145c1 8 1 14 1 15c2 13 4 29 20 29
h2c24 0 71 -1 100 -1h83c27 0 24 23 30 46c4 18 11 36 19 51c3 5 12 6 20 6c5 0 16 -2 20 0c6 2 13 2 19 2c15 0 30 -3 35 -12c6 -8 0 -14 -4 -20c-3 -6 -10 -28 -20 -63c-1 -4 -1 -5 -1 -8c0 -8 30 -9 52 -9h55c35 0 66 10 99 10c11 0 15 -6 15 -14c0 -21 -18 -32 -30 -44
c-15 -14 -28 -24 -41 -40c-9 -10 -18 -20 -28 -29c-5 -4 -11 -7 -16 -7zM337 73c-1 25 -17 54 -44 54c-10 0 -13 -8 -15 -20c-3 -9 -5 -21 -5 -34c0 -18 5 -35 21 -35c27 0 43 5 43 35z" />
    <glyph glyph-name="uni0463.short" unicode="&#xee23;" horiz-adv-x="594" 
d="M294 38c27 0 43 5 43 35c-1 22 -13 43 -30 51c-6 2 -10 3 -14 3c-10 0 -13 -8 -15 -20c-3 -9 -5 -21 -5 -34c0 -18 5 -35 21 -35zM311 0c-29 0 -67 -3 -97 -3h-20c-10 1 -24 11 -24 24c0 8 1 15 4 35c13 82 27 176 41 261v3c0 21 -29 25 -56 25c-7 0 -13 0 -19 -1
c-16 0 -16 -5 -26 -14c-6 -4 -10 -14 -11 -29c0 -11 -1 -32 -1 -45v-31c0 -9 2 -22 2 -34c0 -15 -3 -28 -13 -29c-19 0 -46 -2 -65 -2c-15 0 -22 1 -26 10v15c0 46 2 101 5 145c1 8 1 14 1 15c2 13 4 29 20 29h2c24 0 71 -1 100 -1h62h21c9 0 13 1 19 7c7 9 5 10 10 30
c8 31 19 71 29 101c6 17 12 30 19 39c4 5 12 6 21 6c5 0 15 -2 19 0c7 2 15 3 24 3c17 0 35 -4 40 -13c6 -8 0 -14 -4 -20c-22 -36 -41 -79 -58 -143c-1 -4 -1 -5 -1 -8c0 -8 30 -9 52 -9h15h40c35 0 66 10 99 10c11 0 15 -6 15 -14c0 -5 -2 -12 -5 -17
c-5 -10 -16 -18 -25 -27c-15 -14 -28 -24 -41 -40c-9 -10 -18 -20 -28 -29c-5 -4 -11 -7 -16 -7c-4 0 -8 2 -11 6c-4 6 -6 11 -6 14c0 9 2 20 -1 29c-2 18 -20 31 -33 37c-5 3 -9 4 -13 4c-5 0 -24 3 -35 3c-4 0 -7 0 -8 -1c-10 -10 -9 -7 -13 -28c-6 -33 -17 -77 -17 -113
c4 -5 -2 -11 15 -9c21 4 50 10 73 10c12 0 23 -29 28 -42c13 -35 26 -78 34 -116c2 -9 3 -15 3 -18c0 -14 -8 -14 -17 -18c-1 -1 -8 -1 -18 -1h-38c-20 0 -50 1 -67 1z" />
    <glyph glyph-name="uni1C84" unicode="&#x1c84;" horiz-adv-x="345" 
d="M312 660c12 0 19 -6 19 -16c0 -7 -4 -17 -7 -21c-45 -90 -92 -229 -116 -323c-9 -31 -12 -33 -12 -51c0 -5.14301 -2.20399 -23.51 -2.20399 -31.802c0 -1.382 0.0609894 -2.48399 0.203995 -3.198c-2 -11 -2 -20 -2 -27c0 -15 2 -26 2 -49c0 -35 7 -53 11 -88
c0 -1 11 -41 19 -50c-4 3 -12 4 -21 4c-18 0 -41 -4 -45 -4h-34c-24 3 -32 3 -51 3v7c0 33 4 76 13 129c3 16 8 31 8 35c0 1 14 49 14 50c0 2 22 66 22 66s19 86 70 193c16 35 40 82 60 113c-18 -4 -36 -6 -55 -6c-67 0 -121 27 -169 49c-48 23 -99 50 -164 50
c-27 0 -61 -3 -61 -30c0 -10 4 -25 4 -34c0 -28 -14 -36 -38 -39c-19 -2 -36 -15 -53 -21c-6 -3 -12 -4 -17 -4c-20 0 -27 31 -27 52c0 60 48 92 94 110s112 29 172 29c70 0 121 -18 169 -47c58 -34 116 -45 197 -45z" />
    <glyph glyph-name="u1F540" unicode="&#x1f540;" horiz-adv-x="925" 
d="M722 327c26 0 47 -21 47 -47s-20 -47 -46 -47c-3 -22 -23 -43 -47 -43c-26 0 -49 21 -49 47c0 8 1 15 5 20h-164v-160c5 5 13 7 23 7c26 0 47 -22 47 -48s-21 -48 -47 -48h-3v-2c0 -26 -21 -47 -47 -47s-47 20 -47 46c-22 3 -43 23 -43 47c0 26 21 49 47 49
c8 0 15 -1 20 -5v161h-160c4 -5 5 -12 5 -20c0 -26 -23 -47 -49 -47c-24 0 -44 21 -47 43c-26 0 -46 21 -46 47s21 47 47 47h2v3c0 26 22 47 48 47s48 -21 48 -47c0 -10 -2 -18 -7 -23h159v164c-5 -4 -12 -5 -20 -5c-26 0 -47 23 -47 49c0 24 21 44 43 47c0 26 21 46 47 46
s47 -21 47 -47v-2h3c26 0 47 -22 47 -48s-21 -48 -47 -48c-10 0 -18 2 -23 7v-163h163c-5 5 -7 13 -7 23c0 26 22 47 48 47s48 -21 48 -47v-3h2zM833 497c32 -59 52 -133 52 -209c0 -45 -7 -90 -21 -134c-38 -114 -114 -202 -214 -256c-61 -32 -134 -51 -211 -51
c-44 0 -88 6 -132 21c-113 37 -202 115 -255 214c-32 59 -52 133 -52 208c0 45 7 90 22 134c37 114 114 202 214 256c59 32 132 52 208 52c44 0 89 -7 134 -22c114 -37 201 -113 255 -213zM792 152c17 44 26 91 26 138c0 54 -12 109 -34 156c-41 89 -113 157 -206 194
c-43 17 -90 26 -137 26c-54 0 -109 -12 -155 -34c-89 -41 -158 -113 -194 -206c-18 -45 -27 -93 -27 -143v-5c3 -113 55 -202 118 -262c60 -57 149 -104 259 -104h10c114 3 203 54 262 118c34 35 59 76 78 122z" />
    <glyph glyph-name="u1F541" unicode="&#x1f541;" horiz-adv-x="928" 
d="M886 329c1 -14 2 -27 2 -40c0 -118 -46 -215 -104 -283c-73 -88 -187 -159 -340 -159c-75 0 -142 21 -196 48c-114 57 -200 155 -234 290c-9 36 -14 75 -14 115c0 10 -1 19 0 29h69v-16c0 -128 46 -226 112 -292c61 -61 151 -108 264 -108h10c116 3 208 58 268 124
c55 61 99 147 99 258c0 7 0 22 -1 34h65zM718 320c26 0 47 -21 47 -47s-20 -47 -46 -47c-3 -22 -23 -43 -47 -43c-26 0 -49 21 -49 47c0 8 1 15 5 20h-164v-160c5 5 13 7 23 7c26 0 47 -22 47 -48s-21 -48 -47 -48h-3v-2c0 -26 -21 -47 -47 -47s-47 20 -47 46
c-22 3 -43 23 -43 47c0 26 21 49 47 49c8 0 15 -1 20 -5v161h-160c4 -5 5 -12 5 -20c0 -26 -23 -47 -49 -47c-24 0 -44 21 -47 43c-26 0 -46 21 -46 47s21 47 47 47h2v3c0 26 22 47 48 47s48 -21 48 -47c0 -10 -2 -18 -7 -23h159v164c-5 -4 -12 -5 -20 -5
c-26 0 -47 23 -47 49c0 24 21 44 43 47c0 26 21 46 47 46s47 -21 47 -47v-2h3c26 0 47 -22 47 -48s-21 -48 -47 -48c-10 0 -18 2 -23 7v-163h163c-5 5 -7 13 -7 23c0 26 22 47 48 47s48 -21 48 -47v-3h2z" />
    <glyph glyph-name="u1F542" unicode="&#x1f542;" horiz-adv-x="688" 
d="M601 310c26 0 47 -21 47 -47s-20 -47 -46 -47c-3 -22 -23 -43 -47 -43c-26 0 -49 21 -49 47c0 8 1 15 5 20h-164v-160c5 5 13 7 23 7c26 0 47 -22 47 -48s-21 -48 -47 -48h-3c0 -26 -21 -39 -47 -39s-47 10 -47 36c-22 3 -43 23 -43 47c0 26 21 49 47 49c8 0 15 -1 20 -5
v161h-160c4 -5 5 -12 5 -20c0 -26 -23 -47 -49 -47c-24 0 -44 21 -47 43c-26 0 -46 21 -46 47s23 47 49 47v3c0 26 22 47 48 47s48 -21 48 -47c0 -10 -2 -18 -7 -23h159v164c-5 -4 -12 -5 -20 -5c-26 0 -47 23 -47 49c0 24 21 44 43 47c0 26 21 46 47 46s47 -21 47 -47v-2h3
c26 0 47 -22 47 -48s-21 -48 -47 -48c-10 0 -18 2 -23 7v-163h163c-5 5 -7 13 -7 23c0 26 22 47 48 47s48 -21 48 -47v-3h2z" />
    <glyph glyph-name="u1F543" unicode="&#x1f543;" horiz-adv-x="777" 
d="M406 297c0 28 22 48 49 48c25 0 46 -22 46 -47c0 -28 -21 -48 -48 -48c-26 0 -47 20 -47 47zM692 -47l-78 109c-86 -31 -157 -51 -253 -59c-16 -2 -31 -3 -46 -3c-66 0 -124 14 -164 42c-55 40 -95 85 -119 134c-18 34 -25 70 -25 106c0 83 41 164 88 214
c41 43 92 75 153 94c33 11 69 17 108 17c22 0 44 -2 66 -6c72 -12 135 -41 188 -79c11 28 19 61 23 94l73 -59l-60 -98c-57 25 -113 42 -181 55c-20 4 -39 6 -57 6c-10 0 -19 -1 -29 -2c-116 -13 -222 -44 -277 -117c-20 -27 -29 -61 -29 -97c0 -30 7 -61 19 -89
c26 -59 73 -104 134 -128c22 -8 45 -13 69 -13c8 0 17 1 25 2c115 13 216 21 306 58l111 -111zM261 330c-27 0 -50 21 -50 48s22 48 49 48c26 0 46 -21 46 -47c0 -27 -18 -49 -45 -49zM221 192c0 28 20 49 49 49c26 0 46 -22 46 -48c0 -27 -19 -48 -46 -48
c-28 0 -49 21 -49 47z" />
    <glyph glyph-name="u1F544" unicode="&#x1f544;" horiz-adv-x="769" 
d="M479 426c28 0 47 -20 47 -48c0 -26 -21 -48 -47 -48c-28 0 -49 21 -49 49c0 27 23 47 49 47zM468 242c27 0 47 -21 47 -49c0 -26 -20 -47 -46 -47c-28 0 -49 21 -49 49c0 27 22 47 48 47zM641 497c47 -50 88 -131 88 -216c0 -35 -7 -71 -24 -105
c-25 -49 -64 -94 -119 -134c-40 -28 -98 -42 -164 -42c-15 0 -30 1 -46 3c-96 8 -165 28 -252 59l-78 -110l-46 71l110 111c70 -27 138 -42 224 -49c31 -4 69 -10 106 -10c64 0 116 30 150 62c40 37 74 96 74 167c0 81 -47 128 -100 158c-56 30 -132 47 -206 57
c-10 1 -20 2 -30 2c-51 0 -105 -15 -144 -27c-32 -10 -63 -22 -94 -35l-58 99l71 59c5 -33 13 -67 23 -95c54 38 115 67 188 79c22 4 44 6 66 6c39 0 75 -6 108 -17c61 -19 112 -51 153 -93zM283 346c27 0 47 -21 47 -49c0 -26 -20 -47 -45 -47c-27 0 -50 21 -50 49
c0 26 23 47 48 47z" />
    <glyph glyph-name="u1F545" unicode="&#x1f545;" horiz-adv-x="876" 
d="M0 0v30h51l58 635h-51v29h179c49 -426 98 -562 181 -562s132 136 181 562h180v-29h-51l57 -635h51v-30h-245v30h55l-40 440h-3c-41 -294 -101 -477 -185 -477s-143 183 -184 477h-3l-40 -440h54v-30h-245zM314 491v195c0 62 52 97 121 97c76 0 115 -42 115 -95
c0 -55 -47 -86 -102 -86c-16 0 -34 2 -51 8l-3 -2v-117c-16 -3 -24 -4 -40 -4s-24 1 -40 4zM394 693c0 -44 9 -69 37 -69s38 25 38 69s-10 70 -38 70s-37 -26 -37 -70zM228 788c0 -18 -79 -47 -100 -47s-20 19 -26 43c-3 12 -5 24 -5 36c0 55 37 94 73 119
c26 19 56 33 90 44c33 11 71 19 107 19c75 0 124 -39 168 -72c45 -35 107 -54 165 -78c15 -5 30 -9 30 -23c0 -20 -18 -23 -44 -23c-12 0 -24 -2 -37 -2c-50 0 -104 6 -139 20c-51 23 -85 66 -129 96c-14 9 -27 17 -50 17h-7c-28 0 -66 -19 -83 -33c-15 -12 -24 -28 -24 -54
c0 -21 4 -45 11 -60v-2z" />
    <glyph glyph-name="uni1C85" unicode="&#x1c85;" horiz-adv-x="669" 
d="M38 370c5 15 13 20 24 20h4c80 -13 158 -17 232 -17h30c70 0 160 3 271 3c27 0 42 -4 45 -13c1 -3 2 -7 2 -10c0 -10 -5 -22 -13 -34c-14 -22 -15 -47 -20 -86c-3 -15 -9 -112 -9 -158c0 -10 0 -17 1 -22c1 -8 5 -16 10 -24c4 -6 7 -12 7 -17c0 -6 -5 -11 -19 -11
c-70 1 -106 5 -109 11c-4 3 -7 16 -7 39s3 56 7 100c4 49 11 105 20 168v2c0 11 -41 11 -63 12c-29 0 -47 -2 -54 -6c-5 -3 -8 -10 -10 -21c-3 -15 -5 -24 -5 -25c-10 -78 -14 -136 -14 -177v-19c2 -26 6 -42 12 -50c5 -6 8 -14 7 -21s-9 -11 -24 -12c-17 -1 -31 -2 -44 -2
c-34 0 -53 5 -56 14c-5 20 -7 55 -7 105c0 66 4 77 13 143c5 31 7 47 7 49c0 11 -2 18 -6 19c-9 3 -29 5 -60 5c-35 0 -55 -5 -60 -14c-17 -59 -16 -66 -21 -148c-1 -21 -2 -40 -2 -57c0 -19 1 -34 3 -47c2 -24 6 -40 9 -48c1 -2 1 -4 1 -6c0 -9 -8 -13 -25 -13
c-4 0 -21 0 -51 -1h-5c-27 0 -43 5 -47 15c-1 14 -1 30 -1 47c0 40 2 87 5 142c5 79 12 134 22 165z" />
    <glyph glyph-name="uni0426.alt" horiz-adv-x="599" 
d="M68 -93v14c0 14 1 32 1 54c0 49 1 106 1 158c1 67 1 142 1 226c-8 6 -18 15 -27 18c-8 3 -14 4 -13 18s7 16 16 21c2 1 11 3 25 3c39 3 93 5 132 5c17 -3 36 -6 36 -25c0 -13 -12 -18 -18 -25c-7 -8 -18 -7 -21 -18c0 -48 -5 -109 -5 -161v-41c0 -23 3 -39 3 -73
c0 -4 0 -8 -1 -13c0 -41 -3 -89 -3 -132c0 -8 0 -16 1 -24c0 -12 0 -19 1 -21c5 -6 27 -8 49 -8c14 0 28 1 37 1c23 1 50 2 80 3c0 45 0 85 1 122c0 28 1 61 1 88c0 18 -1 35 -1 49c0 69 -7 151 -7 219c-1 7 -11 14 -16 18s-14 15 -14 25c0 9 12 12 19 14c36 0 90 3 128 5
c16 2 26 4 30 5h5c12 0 16 -9 16 -21c0 -19 -20 -25 -26 -38c-1 -3 -3 -5 -4 -7v-244c2 -75 7 -156 10 -225c1 -31 4 -31 6 -74c1 -31 2 -68 2 -102c1 -43 1 -92 2 -146c0 -22 2 -38 21 -42c8 -2 23 -6 23 -16c0 -1 -1 -3 -1 -5c-4 -18 -25 -15 -54 -17
c-47 -2 -109 -5 -156 -5c-14 1 -18 5 -18 12c0 3 1 7 2 12c4 7 12 8 18 12c4 2 7 5 11 9c3 8 9 20 9 33c0 28 -2 65 -2 95v20c0 2 1 8 1 16c0 5 0 10 -1 16c0 44 -4 83 -5 131h-61c-34 0 -82 1 -116 1c-12 0 -24 1 -36 1c-40 0 -80 -5 -117 -5h-4c-15 0 -29 11 -29 26v6
c0 20 41 13 58 17c10 2 10 5 10 15z" />
    <glyph glyph-name="uniA64A" unicode="&#xa64a;" horiz-adv-x="586" 
d="M0 15c0 112 70 169 180 169c20 0 54 -15 66 -25c4 28 6 56 6 84c0 14 -7 21 -20 21c-6 0 -14 -1 -23 -4c-24 -7 -38 -10 -43 -10c-19 0 -31 10 -32 25c-3 27 -11 82 -26 167c-18 90 -33 140 -45 151c-1 1 -10 2 -28 3c-8 0 -12 5 -12 13c0 18 11 37 24 37
c4 -1 15 -1 34 -1s45 0 79 1c9 1 15 -4 18 -14c6 -23 14 -59 25 -110c11 -74 17 -121 18 -141c1 -9 4 -15 10 -16l15 2c11 0 19 0 21 10c2 28 4 56 5 84c5 56 13 97 24 124c15 36 64 64 142 64c9 0 14 -20 14 -60c0 -30 -2 -46 -7 -47c-1 -3 -9 -5 -25 -6
c-14 -2 -29 -4 -44 -7c-26 -7 -41 -41 -46 -103c-3 -40 -7 -106 -12 -197c-2 -30 -4 -38 -6 -73c18 16 44 28 83 28c42 0 78 -21 101 -44c28 -28 50 -70 50 -125c0 -83 -53 -134 -114 -157c-21 -7 -41 -12 -61 -12c-44 0 -80 24 -101 49c-19 -28 -55 -49 -96 -49
c-80 0 -136 41 -160 98c-10 21 -14 44 -14 71zM293 -29c-38 0 -77 -5 -114 -7c-9 0 -18 8 -18 18c0 5 4 12 9 14c30 11 56 19 66 50c2 9 4 22 4 38c0 42 -27 73 -69 73c-58 0 -65 -84 -65 -142c0 -44 5 -79 14 -104s28 -38 57 -38c44 0 72 25 87 51c4 7 7 10 8 10
c4 0 8 -3 14 -10c19 -24 47 -51 91 -51c69 0 71 72 71 142c0 54 -11 104 -40 129c-8 9 -19 13 -32 13c-42 0 -69 -31 -69 -73c0 -41 11 -61 39 -73c10 -4 39 -10 39 -25c0 -10 -5 -18 -15 -18l-26 2c-7 1 -16 1 -24 1h-27z" />
    <glyph glyph-name="uniA64B" unicode="&#xa64b;" horiz-adv-x="357" 
d="M133 1c-86 0 -133 49 -133 130v9c0 36 17 63 35 84c23 28 55 50 86 72c-9 11 -18 21 -27 30c-30 32 -60 70 -80 110c-10 19 -11 27 -14 49v8c0 18 10 32 21 43c21 24 64 43 106 50c3 0 5 1 8 1c12 0 19 -7 19 -15c0 -5 -3 -11 -10 -16c-11 -8 -14 -24 -14 -46
c0 -12 6 -32 17 -58c12 -29 29 -61 51 -97c5 5 15 12 19 16c52 52 104 117 143 178c9 15 14 26 15 32c1 5 2 10 2 13c0 5 -2 8 -7 8c-1 0 -3 0 -6 -1c-9 -3 -16 -12 -28 -12h-4c-13 3 -18 6 -18 20c0 20 31 31 48 39c19 8 46 19 64 25c9 2 16 4 23 4c16 0 27 -7 36 -21
c1 -2 2 -5 2 -8c0 -5 -2 -12 -5 -20c-22 -54 -68 -107 -104 -150c-48 -52 -109 -103 -162 -151l21 -30c28 -37 48 -67 61 -107c4 -15 6 -30 6 -44c0 -39 -16 -74 -38 -97c-27 -29 -69 -48 -127 -48h-6zM146 265c-33 -29 -54 -55 -54 -115c0 -35 7 -67 24 -86
c7 -9 17 -13 28 -13c12 0 25 6 34 15c12 13 20 39 20 74c0 49 -29 94 -52 125z" />
    <glyph glyph-name="uni047C" unicode="&#x47c;" horiz-adv-x="1061" 
d="M360 720c0 -15 19 -25 19 -42c-7 -13 -28 -23 -41 -31c-14 -9 -27 -14 -43 -18h-3c-14 0 -19 21 -19 40c0 10 1 19 4 25c7 23 16 32 40 47c27 17 64 36 94 49c40 18 79 29 132 29c5 0 15 -2 28 -6c67 -20 138 -54 204 -76c16 -5 31 -9 47 -9c9 0 18 1 27 4
c8 2 32 12 45 12c4 0 8 -2 9 -4c0 -4 1 -6 1 -9c0 -10 -8 -14 -19 -22c-30 -23 -80 -45 -133 -45c-46 0 -98 18 -136 33c-36 14 -80 37 -112 48c-16 7 -40 10 -63 10c-32 0 -81 -6 -81 -35zM415 548c-10 -14 -18 -31 -37 -31h-2c-13 0 -19 9 -19 19c0 7 3 15 7 22
c31 53 101 104 180 104c29 0 51 -9 65 -29c5 -6 7 -13 7 -21c0 -15 -10 -32 -18 -43c-13 -17 -36 -38 -58 -44c-2 -1 -4 -1 -7 -1c-10 0 -17 6 -17 15l13 33v6c0 19 -7 34 -23 34c-5 0 -10 -1 -16 -3c-31 -11 -57 -37 -75 -61zM589 420c0 57 51 88 109 88c24 0 48 -5 72 -13
c51 -17 106 -47 147 -86c55 -53 99 -130 99 -240c0 -105 -30 -177 -78 -227c-22 -23 -44 -40 -68 -51c-53 -27 -95 -48 -172 -48c-40 0 -81 8 -103 25c-34 26 -60 63 -80 103c-45 -73 -103 -139 -220 -139h-3c-33 0 -67 7 -102 18c-47 16 -88 52 -118 94
c-40 52 -69 126 -72 217v11c0 90 32 157 74 206c37 43 88 80 139 100c22 9 44 13 66 13c36 0 69 -12 89 -35c11 -13 22 -32 22 -56c0 -27 -27 -56 -45 -64c-9 -5 -18 -7 -27 -7c-32 0 -60 20 -60 52v4c1 10 10 25 10 38c0 12 -13 24 -25 24c-11 0 -21 -8 -31 -19
c-43 -46 -67 -121 -77 -205c-2 -16 -3 -33 -3 -49c0 -58 11 -115 27 -154c15 -37 40 -71 76 -103c22 -20 47 -33 79 -33c45 0 73 19 100 38s53 51 53 99c0 35 -4 61 -21 77c-6 4 -13 14 -13 22c0 5 4 9 12 10c3 0 7 1 11 1c17 0 41 -3 55 -3c10 0 39 5 61 5
c14 0 25 -2 26 -9c0 -5 -3 -9 -8 -14s-12 -15 -21 -28c-8 -13 -12 -29 -12 -45c0 -61 34 -109 74 -131c16 -8 34 -12 52 -12c34 0 69 13 92 31c25 19 48 34 65 65c21 38 29 86 29 147v24c-2 70 -6 119 -20 167c-8 29 -18 41 -30 62c-9 15 -19 29 -29 42
c-11 14 -21 21 -38 21c-12 0 -21 -6 -21 -17s6 -21 6 -32c0 -5 -1 -13 -4 -19c-7 -20 -17 -23 -36 -34c-9 -5 -19 -8 -29 -8c-49 0 -79 32 -79 77z" />
    <glyph glyph-name="uni0491.alt" horiz-adv-x="220" 
d="M208 526c-30 0 -59 -24 -59 -67c0 -3 1 -6 1 -10c2 -53 3 -102 3 -147c0 -59 -2 -111 -5 -156c-5 -71 -8 -109 -9 -114c-9 -62 -24 -93 -45 -93h-1l-25 1l-43 -2h-11c-10 1 -15 6 -14 15c27 95 32 210 38 342c2 87 4 138 5 152c1 31 8 59 20 83c21 37 52 56 95 56
c7 -1 12 -1 15 -1l88 -10l44 -4h11c25 0 39 6 44 19c9 23 14 45 20 47c0 0 18 4 29 4c12 0 30 -5 30 -5c-15 -95 -53 -143 -113 -143c-14 0 -25 2 -34 6c-16 7 -36 14 -59 22c-11 3 -19 5 -25 5z" />
    <glyph glyph-name="uni040D" unicode="&#x40d;" horiz-adv-x="606" 
d="M106 815c-4 4 -6 8 -6 12c0 18 43 39 74 39c6 0 11 -1 15 -2c39 -10 76 -32 112 -45c40 -13 80 -30 127 -36c15 -1 55 -2 55 -17c0 -20 -13 -42 -23 -53c-5 -4 -9 -6 -14 -6c-9 1 -27 8 -54 20c-39 20 -101 45 -154 56c-35 8 -70 15 -102 22c-13 4 -23 7 -30 10z
M206 -122c2 -3 3 -6 3 -9c0 -8 -5 -16 -12 -16c-19 0 -47 3 -74 3c-6 0 -13 -1 -19 -1c-21 -1 -39 -3 -54 -6c-9 -2 -19 -3 -28 -3c-13 0 -22 4 -22 17c0 15 10 23 16 33c22 28 21 82 26 132c6 62 12 135 17 196c1 18 2 29 2 36c9 88 20 186 27 274c0 15 1 24 1 28
c-2 29 -30 45 -39 66c-1 3 -1 6 -1 9c0 9 7 14 19 14c22 0 37 -6 58 -9c9 0 19 -2 30 -3c23 -1 42 -2 56 -2c8 0 20 1 31 1c14 0 25 -2 25 -12c0 -20 -22 -32 -32 -44c-7 -8 -16 -18 -16 -30c0 -19 -3 -45 -5 -69c-3 -37 -6 -82 -9 -120c-1 -4 -1 -8 -1 -12
c0 -17 6 -32 22 -32c2 0 4 1 7 1c21 5 42 17 60 27c39 19 80 32 89 82c4 19 5 50 5 75v26v37c0 24 -23 31 -34 45c-4 5 -8 14 -8 21s4 13 15 13h4c7 0 15 -1 22 -1c43 0 85 6 125 7c8 1 20 3 29 3c4 0 8 -1 10 -2c7 -3 15 -11 15 -21c0 -3 -1 -7 -4 -11c-4 -4 -4 -4 -10 -11
c-11 -10 -27 -25 -27 -45c0 -31 -3 -73 -5 -114c-2 -49 -3 -101 -3 -152c0 -111 5 -224 13 -323c1 -20 2 -35 3 -45c3 -21 9 -34 22 -44c5 -4 10 -8 10 -16c0 -2 0 -4 -1 -7c-2 -7 -6 -11 -11 -11c-25 0 -53 4 -81 4h-14c-22 -1 -40 -3 -54 -5c-9 -1 -18 -2 -26 -2
c-14 0 -24 4 -24 18c0 15 9 21 16 30c15 19 18 34 18 64v30c-1 78 -4 181 -4 258v32c0 14 0 28 1 43c1 12 -3 24 -13 24c-3 0 -6 -1 -9 -3c-18 -13 -46 -23 -66 -34c-42 -22 -87 -38 -102 -90c-4 -85 -13 -177 -15 -265c-1 -3 -1 -5 -1 -8c0 -24 4 -44 13 -55
c6 -6 11 -12 14 -16z" />
    <glyph glyph-name="uni045D" unicode="&#x45d;" horiz-adv-x="441" 
d="M53 621c-4 4 -6 8 -6 12c0 18 43 39 74 39c6 0 11 -1 15 -2c39 -10 76 -32 112 -45c40 -13 80 -30 127 -36c15 -1 55 -2 55 -17c0 -20 -13 -42 -23 -53c-5 -4 -9 -6 -14 -6c-9 1 -27 8 -54 20c-39 20 -101 45 -154 56c-35 8 -70 15 -102 22c-13 4 -23 7 -30 10zM252 75
c0 36 5 100 5 121c0 11 -4 14 -10 14c-7 0 -16 -4 -24 -6c-26 -9 -61 -16 -93 -21c-4 -32 -6 -69 -6 -103c0 -22 1 -47 3 -64c0 -10 -6 -14 -15 -14c-4 0 -7 1 -11 2c-10 1 -21 2 -32 2h-11c-7 0 -20 -2 -30 -2c-8 0 -17 1 -18 6c-2 4 0 11 0 20c0 10 0 21 2 36
c6 53 22 180 33 229c7 29 11 47 12 55c4 22 12 32 32 32h12c11 0 25 3 33 4c5 0 19 5 31 5s16 -7 16 -17c0 -15 -15 -33 -20 -42c-13 -23 -20 -61 -23 -92c32 0 70 9 95 14c15 4 23 3 26 14c1 3 1 5 0 7c3 23 6 45 11 67c4 17 4 28 19 32s28 3 48 5c22 4 37 10 56 10
c7 0 11 -6 11 -12c0 -3 -1 -6 -3 -9c-18 -26 -22 -60 -29 -98c-5 -32 -9 -67 -9 -103c0 -47 7 -94 13 -133c1 -10 4 -19 4 -26s-3 -11 -12 -11c-13 0 -33 3 -50 3c-20 0 -35 -2 -53 -2c-13 0 -10 6 -12 17c-1 22 -1 42 -1 60z" />
    <glyph glyph-name="uni0400" unicode="&#x400;" horiz-adv-x="517" 
d="M85 816c-4 4 -6 8 -6 12c0 18 43 39 74 39c6 0 11 -1 15 -2c39 -10 76 -32 112 -45c40 -13 80 -30 127 -36c15 -1 55 -2 55 -17c0 -20 -13 -42 -23 -53c-5 -4 -9 -6 -14 -6c-9 1 -27 8 -54 20c-39 20 -101 45 -154 56c-35 8 -70 15 -102 22c-13 4 -23 7 -30 10zM346 190
c0 37 -17 60 -54 60c-42 0 -73 -13 -92 -32c-9 -9 -20 -23 -20 -35c7 -75 19 -153 40 -210c9 -27 20 -47 32 -61c9 -12 21 -17 32 -17s22 5 31 14c16 16 33 43 33 71c0 11 -6 13 -6 21c0 14 5 19 22 23c28 6 59 9 93 9c10 -3 15 -10 15 -19c0 -8 -4 -17 -10 -23
c-7 -6 -13 -13 -18 -22c-13 -43 -46 -79 -85 -102c-21 -12 -48 -20 -76 -20c-18 0 -36 4 -53 12c-75 33 -123 112 -155 189c-29 69 -47 148 -47 240c0 124 31 222 92 291c27 29 62 50 105 62c16 4 30 6 44 6c62 0 105 -39 131 -83c19 -32 34 -70 45 -114c6 -8 17 -23 17 -37
c0 -27 -34 -27 -69 -27h-27c-21 2 -35 7 -35 23c0 9 2 20 3 37c0 52 -17 106 -44 133c-10 10 -21 14 -32 14c-21 0 -42 -14 -52 -33c-28 -47 -35 -120 -35 -197c0 -32 2 -64 3 -95c0 -9 7 -19 16 -13c22 16 49 27 89 35c8 2 16 2 24 2c25 0 50 -6 71 -13
c59 -18 118 -46 118 -121c0 -10 -4 -12 -12 -12c-6 0 -14 1 -24 1c-2 1 -4 1 -6 1c-23 0 -43 -4 -66 -5c-10 -1 -20 -3 -29 -3s-17 5 -17 14c0 3 1 7 3 11c3 6 5 15 5 25z" />
    <glyph glyph-name="uni0450" unicode="&#x450;" horiz-adv-x="214" 
d="M-80 603c-4 4 -6 8 -6 12c0 18 43 39 74 39c6 0 11 -1 15 -2c39 -10 76 -32 112 -45c40 -13 80 -30 127 -36c15 -1 55 -2 55 -17c0 -20 -13 -42 -23 -53c-5 -4 -9 -6 -14 -6c-9 1 -27 8 -54 20c-39 20 -101 45 -154 56c-35 8 -70 15 -102 22c-13 4 -23 7 -30 10zM160 114
c13 0 20 -6 20 -17c0 -21 -22 -54 -26 -60c-15 -20 -55 -37 -89 -37c-4 0 -8 0 -12 1c-50 19 -29 92 -45 142c-5 17 -8 39 -8 62c0 78 31 126 80 153c27 16 44 27 88 27c22 0 29 -4 29 -22c0 -15 -6 -30 -10 -41c-5 -11 -30 -15 -45 -19c-16 -5 -40 -12 -43 -28
c-2 -7 -4 -19 -4 -30c0 -13 3 -25 11 -26c9 -3 11 0 18 4c7 5 29 20 44 20c13 0 15 -18 15 -33c0 -7 -1 -15 -2 -21c-3 -14 -40 -18 -52 -22c-9 -2 -19 -14 -19 -26v-28c0 -8 1 -16 9 -15c14 2 25 16 41 16z" />
    </font>
</defs>
</svg>
